<?xml version="1.0" encoding="UTF-8" standalone="no"?>
<!DOCTYPE svg PUBLIC "-//W3C//DTD SVG 1.1//EN"
 "http://www.w3.org/Graphics/SVG/1.1/DTD/svg11.dtd">
<!-- Generated by graphviz version 2.47.0 (20210316.0004)
 -->
<!-- Title: dependencies Pages: 1 -->
<svg width="781pt" height="211pt"
 viewBox="0.00 0.00 781.00 211.00" xmlns="http://www.w3.org/2000/svg" xmlns:xlink="http://www.w3.org/1999/xlink">
<g id="graph0" class="graph" transform="scale(1 1) rotate(0) translate(4 207)">
<title>dependencies</title>
<polygon fill="white" stroke="transparent" points="-4,4 -4,-207 777,-207 777,4 -4,4"/>
<text text-anchor="start" x="365.51" y="-42.4" font-family="Times-12" font-weight="bold" font-size="14.00">Legend</text>
<polygon fill="#ffffb3" stroke="transparent" points="152.5,-10 152.5,-30 172.5,-30 172.5,-10 152.5,-10"/>
<text text-anchor="start" x="176.13" y="-15.4" font-family="Times-12" font-size="14.00"> &#160;Declarations</text>
<polygon fill="#8dd3c7" stroke="transparent" points="265.5,-10 265.5,-30 285.5,-30 285.5,-10 265.5,-10"/>
<text text-anchor="start" x="289.23" y="-15.4" font-family="Times-12" font-size="14.00"> &#160;Module</text>
<polygon fill="#80b1d3" stroke="transparent" points="351.5,-10 351.5,-30 371.5,-30 371.5,-10 351.5,-10"/>
<text text-anchor="start" x="375.28" y="-15.4" font-family="Times-12" font-size="14.00"> &#160;Bootstrap</text>
<polygon fill="#fdb462" stroke="transparent" points="448.5,-10 448.5,-30 468.5,-30 468.5,-10 448.5,-10"/>
<text text-anchor="start" x="472.17" y="-15.4" font-family="Times-12" font-size="14.00"> &#160;Providers</text>
<polygon fill="#fb8072" stroke="transparent" points="544.5,-10 544.5,-30 564.5,-30 564.5,-10 544.5,-10"/>
<text text-anchor="start" x="568.23" y="-15.4" font-family="Times-12" font-size="14.00"> &#160;Exports</text>
<g id="clust1" class="cluster">
<title>cluster_PaymentModule</title>
<polygon fill="none" stroke="black" stroke-dasharray="1,5" points="8,-70 8,-195 765,-195 765,-70 8,-70"/>
</g>
<g id="clust6" class="cluster">
<title>cluster_PaymentModule_providers</title>
<polygon fill="none" stroke="black" points="245,-78 245,-130 757,-130 757,-78 245,-78"/>
</g>
<g id="clust3" class="cluster">
<title>cluster_PaymentModule_imports</title>
<polygon fill="none" stroke="black" points="16,-78 16,-130 237,-130 237,-78 16,-78"/>
</g>
<!-- CartsModule -->
<g id="node1" class="node">
<title>CartsModule</title>
<polygon fill="#8dd3c7" stroke="black" points="228.6,-122 225.6,-126 204.6,-126 201.6,-122 139.4,-122 139.4,-86 228.6,-86 228.6,-122"/>
<text text-anchor="middle" x="184" y="-99.8" font-family="Times,serif" font-size="14.00">CartsModule</text>
</g>
<!-- PaymentModule -->
<g id="node3" class="node">
<title>PaymentModule</title>
<polygon fill="#8dd3c7" stroke="black" points="381.04,-187 378.04,-191 357.04,-191 354.04,-187 272.96,-187 272.96,-151 381.04,-151 381.04,-187"/>
<text text-anchor="middle" x="327" y="-164.8" font-family="Times,serif" font-size="14.00">PaymentModule</text>
</g>
<!-- CartsModule&#45;&gt;PaymentModule -->
<g id="edge1" class="edge">
<title>CartsModule&#45;&gt;PaymentModule</title>
<path fill="none" stroke="black" d="M184,-122.02C184,-139.37 184,-163 184,-163 184,-163 262.94,-163 262.94,-163"/>
<polygon fill="black" stroke="black" points="262.94,-166.5 272.94,-163 262.94,-159.5 262.94,-166.5"/>
</g>
<!-- OrdersModule -->
<g id="node2" class="node">
<title>OrdersModule</title>
<polygon fill="#8dd3c7" stroke="black" points="121.64,-122 118.64,-126 97.64,-126 94.64,-122 24.36,-122 24.36,-86 121.64,-86 121.64,-122"/>
<text text-anchor="middle" x="73" y="-99.8" font-family="Times,serif" font-size="14.00">OrdersModule</text>
</g>
<!-- OrdersModule&#45;&gt;PaymentModule -->
<g id="edge2" class="edge">
<title>OrdersModule&#45;&gt;PaymentModule</title>
<path fill="none" stroke="black" d="M73,-122.28C73,-143.32 73,-175 73,-175 73,-175 262.82,-175 262.82,-175"/>
<polygon fill="black" stroke="black" points="262.82,-178.5 272.82,-175 262.82,-171.5 262.82,-178.5"/>
</g>
<!-- MomoStrategy -->
<g id="node4" class="node">
<title>MomoStrategy</title>
<ellipse fill="#fdb462" stroke="black" cx="680" cy="-104" rx="68.94" ry="18"/>
<text text-anchor="middle" x="680" y="-99.8" font-family="Times,serif" font-size="14.00">MomoStrategy</text>
</g>
<!-- MomoStrategy&#45;&gt;PaymentModule -->
<g id="edge3" class="edge">
<title>MomoStrategy&#45;&gt;PaymentModule</title>
<path fill="none" stroke="black" d="M680,-122.28C680,-143.32 680,-175 680,-175 680,-175 391.38,-175 391.38,-175"/>
<polygon fill="black" stroke="black" points="391.38,-171.5 381.38,-175 391.38,-178.5 391.38,-171.5"/>
</g>
<!-- PaymentRepository -->
<g id="node5" class="node">
<title>PaymentRepository</title>
<ellipse fill="#fdb462" stroke="black" cx="506" cy="-104" rx="87.42" ry="18"/>
<text text-anchor="middle" x="506" y="-99.8" font-family="Times,serif" font-size="14.00">PaymentRepository</text>
</g>
<!-- PaymentRepository&#45;&gt;PaymentModule -->
<g id="edge4" class="edge">
<title>PaymentRepository&#45;&gt;PaymentModule</title>
<path fill="none" stroke="black" d="M506,-122.02C506,-139.37 506,-163 506,-163 506,-163 391.19,-163 391.19,-163"/>
<polygon fill="black" stroke="black" points="391.19,-159.5 381.19,-163 391.19,-166.5 391.19,-159.5"/>
</g>
<!-- PaymentService -->
<g id="node6" class="node">
<title>PaymentService</title>
<ellipse fill="#fdb462" stroke="black" cx="327" cy="-104" rx="73.57" ry="18"/>
<text text-anchor="middle" x="327" y="-99.8" font-family="Times,serif" font-size="14.00">PaymentService</text>
</g>
<!-- PaymentService&#45;&gt;PaymentModule -->
<g id="edge5" class="edge">
<title>PaymentService&#45;&gt;PaymentModule</title>
<path fill="none" stroke="black" d="M327,-122.11C327,-122.11 327,-140.99 327,-140.99"/>
<polygon fill="black" stroke="black" points="323.5,-140.99 327,-150.99 330.5,-140.99 323.5,-140.99"/>
</g>
</g>
</svg>
