<?xml version="1.0" encoding="UTF-8" standalone="no"?>
<!DOCTYPE svg PUBLIC "-//W3C//DTD SVG 1.1//EN"
 "http://www.w3.org/Graphics/SVG/1.1/DTD/svg11.dtd">
<!-- Generated by graphviz version 2.47.0 (20210316.0004)
 -->
<!-- Title: dependencies Pages: 1 -->
<svg width="504pt" height="284pt"
 viewBox="0.00 0.00 504.00 284.00" xmlns="http://www.w3.org/2000/svg" xmlns:xlink="http://www.w3.org/1999/xlink">
<g id="graph0" class="graph" transform="scale(1 1) rotate(0) translate(4 280)">
<title>dependencies</title>
<polygon fill="white" stroke="transparent" points="-4,4 -4,-280 500,-280 500,4 -4,4"/>
<text text-anchor="start" x="227.01" y="-42.4" font-family="Times-12" font-weight="bold" font-size="14.00">Legend</text>
<polygon fill="#ffffb3" stroke="transparent" points="14,-10 14,-30 34,-30 34,-10 14,-10"/>
<text text-anchor="start" x="37.63" y="-15.4" font-family="Times-12" font-size="14.00"> &#160;Declarations</text>
<polygon fill="#8dd3c7" stroke="transparent" points="127,-10 127,-30 147,-30 147,-10 127,-10"/>
<text text-anchor="start" x="150.73" y="-15.4" font-family="Times-12" font-size="14.00"> &#160;Module</text>
<polygon fill="#80b1d3" stroke="transparent" points="213,-10 213,-30 233,-30 233,-10 213,-10"/>
<text text-anchor="start" x="236.78" y="-15.4" font-family="Times-12" font-size="14.00"> &#160;Bootstrap</text>
<polygon fill="#fdb462" stroke="transparent" points="310,-10 310,-30 330,-30 330,-10 310,-10"/>
<text text-anchor="start" x="333.67" y="-15.4" font-family="Times-12" font-size="14.00"> &#160;Providers</text>
<polygon fill="#fb8072" stroke="transparent" points="406,-10 406,-30 426,-30 426,-10 406,-10"/>
<text text-anchor="start" x="429.73" y="-15.4" font-family="Times-12" font-size="14.00"> &#160;Exports</text>
<g id="clust1" class="cluster">
<title>cluster_IdentitiesModule</title>
<polygon fill="none" stroke="black" stroke-dasharray="1,5" points="64,-70 64,-268 432,-268 432,-70 64,-70"/>
</g>
<g id="clust4" class="cluster">
<title>cluster_IdentitiesModule_exports</title>
<polygon fill="none" stroke="black" points="186,-208 186,-260 316,-260 316,-208 186,-208"/>
</g>
<g id="clust6" class="cluster">
<title>cluster_IdentitiesModule_providers</title>
<polygon fill="none" stroke="black" points="72,-78 72,-130 424,-130 424,-78 72,-78"/>
</g>
<!-- IdentitiesService  -->
<g id="node1" class="node">
<title>IdentitiesService </title>
<polygon fill="#fb8072" stroke="black" points="307.58,-252 194.42,-252 194.42,-216 307.58,-216 307.58,-252"/>
<text text-anchor="middle" x="251" y="-229.8" font-family="Times,serif" font-size="14.00">IdentitiesService </text>
</g>
<!-- IdentitiesModule -->
<g id="node2" class="node">
<title>IdentitiesModule</title>
<polygon fill="#8dd3c7" stroke="black" points="306.65,-187 303.65,-191 282.65,-191 279.65,-187 195.35,-187 195.35,-151 306.65,-151 306.65,-187"/>
<text text-anchor="middle" x="251" y="-164.8" font-family="Times,serif" font-size="14.00">IdentitiesModule</text>
</g>
<!-- IdentitiesModule&#45;&gt;IdentitiesService  -->
<g id="edge1" class="edge">
<title>IdentitiesModule&#45;&gt;IdentitiesService </title>
<path fill="none" stroke="black" stroke-dasharray="5,2" d="M251,-187.11C251,-187.11 251,-205.99 251,-205.99"/>
<polygon fill="black" stroke="black" points="247.5,-205.99 251,-215.99 254.5,-205.99 247.5,-205.99"/>
</g>
<!-- IdentitiesService -->
<g id="node3" class="node">
<title>IdentitiesService</title>
<ellipse fill="#fdb462" stroke="black" cx="340" cy="-104" rx="75.85" ry="18"/>
<text text-anchor="middle" x="340" y="-99.8" font-family="Times,serif" font-size="14.00">IdentitiesService</text>
</g>
<!-- IdentitiesService&#45;&gt;IdentitiesModule -->
<g id="edge2" class="edge">
<title>IdentitiesService&#45;&gt;IdentitiesModule</title>
<path fill="none" stroke="black" d="M285.45,-116.53C285.45,-116.53 285.45,-140.85 285.45,-140.85"/>
<polygon fill="black" stroke="black" points="281.95,-140.85 285.45,-150.85 288.95,-140.85 281.95,-140.85"/>
</g>
<!-- IdentityRepository -->
<g id="node4" class="node">
<title>IdentityRepository</title>
<ellipse fill="#fdb462" stroke="black" cx="163" cy="-104" rx="83.41" ry="18"/>
<text text-anchor="middle" x="163" y="-99.8" font-family="Times,serif" font-size="14.00">IdentityRepository</text>
</g>
<!-- IdentityRepository&#45;&gt;IdentitiesModule -->
<g id="edge3" class="edge">
<title>IdentityRepository&#45;&gt;IdentitiesModule</title>
<path fill="none" stroke="black" d="M220.81,-117.15C220.81,-117.15 220.81,-140.69 220.81,-140.69"/>
<polygon fill="black" stroke="black" points="217.31,-140.69 220.81,-150.69 224.31,-140.69 217.31,-140.69"/>
</g>
</g>
</svg>
