<?xml version="1.0" encoding="UTF-8" standalone="no"?>
<!DOCTYPE svg PUBLIC "-//W3C//DTD SVG 1.1//EN"
 "http://www.w3.org/Graphics/SVG/1.1/DTD/svg11.dtd">
<!-- Generated by graphviz version 2.47.0 (20210316.0004)
 -->
<!-- Title: dependencies Pages: 1 -->
<svg width="727pt" height="284pt"
 viewBox="0.00 0.00 727.00 284.00" xmlns="http://www.w3.org/2000/svg" xmlns:xlink="http://www.w3.org/1999/xlink">
<g id="graph0" class="graph" transform="scale(1 1) rotate(0) translate(4 280)">
<title>dependencies</title>
<polygon fill="white" stroke="transparent" points="-4,4 -4,-280 723,-280 723,4 -4,4"/>
<text text-anchor="start" x="338.51" y="-42.4" font-family="Times-12" font-weight="bold" font-size="14.00">Legend</text>
<polygon fill="#ffffb3" stroke="transparent" points="125.5,-10 125.5,-30 145.5,-30 145.5,-10 125.5,-10"/>
<text text-anchor="start" x="149.13" y="-15.4" font-family="Times-12" font-size="14.00"> &#160;Declarations</text>
<polygon fill="#8dd3c7" stroke="transparent" points="238.5,-10 238.5,-30 258.5,-30 258.5,-10 238.5,-10"/>
<text text-anchor="start" x="262.23" y="-15.4" font-family="Times-12" font-size="14.00"> &#160;Module</text>
<polygon fill="#80b1d3" stroke="transparent" points="324.5,-10 324.5,-30 344.5,-30 344.5,-10 324.5,-10"/>
<text text-anchor="start" x="348.28" y="-15.4" font-family="Times-12" font-size="14.00"> &#160;Bootstrap</text>
<polygon fill="#fdb462" stroke="transparent" points="421.5,-10 421.5,-30 441.5,-30 441.5,-10 421.5,-10"/>
<text text-anchor="start" x="445.17" y="-15.4" font-family="Times-12" font-size="14.00"> &#160;Providers</text>
<polygon fill="#fb8072" stroke="transparent" points="517.5,-10 517.5,-30 537.5,-30 537.5,-10 517.5,-10"/>
<text text-anchor="start" x="541.23" y="-15.4" font-family="Times-12" font-size="14.00"> &#160;Exports</text>
<g id="clust1" class="cluster">
<title>cluster_MediaModule</title>
<polygon fill="none" stroke="black" stroke-dasharray="1,5" points="8,-70 8,-268 711,-268 711,-70 8,-70"/>
</g>
<g id="clust4" class="cluster">
<title>cluster_MediaModule_exports</title>
<polygon fill="none" stroke="black" points="290,-208 290,-260 440,-260 440,-208 290,-208"/>
</g>
<g id="clust3" class="cluster">
<title>cluster_MediaModule_imports</title>
<polygon fill="none" stroke="black" points="585,-78 585,-130 703,-130 703,-78 585,-78"/>
</g>
<g id="clust6" class="cluster">
<title>cluster_MediaModule_providers</title>
<polygon fill="none" stroke="black" points="16,-78 16,-130 577,-130 577,-78 16,-78"/>
</g>
<!-- StorageModule -->
<g id="node1" class="node">
<title>StorageModule</title>
<polygon fill="#8dd3c7" stroke="black" points="695.31,-122 692.31,-126 671.31,-126 668.31,-122 592.69,-122 592.69,-86 695.31,-86 695.31,-122"/>
<text text-anchor="middle" x="644" y="-99.8" font-family="Times,serif" font-size="14.00">StorageModule</text>
</g>
<!-- MediaModule -->
<g id="node2" class="node">
<title>MediaModule</title>
<polygon fill="#8dd3c7" stroke="black" points="412.81,-187 409.81,-191 388.81,-191 385.81,-187 317.19,-187 317.19,-151 412.81,-151 412.81,-187"/>
<text text-anchor="middle" x="365" y="-164.8" font-family="Times,serif" font-size="14.00">MediaModule</text>
</g>
<!-- StorageModule&#45;&gt;MediaModule -->
<g id="edge1" class="edge">
<title>StorageModule&#45;&gt;MediaModule</title>
<path fill="none" stroke="black" d="M644,-122.11C644,-141.34 644,-169 644,-169 644,-169 422.96,-169 422.96,-169"/>
<polygon fill="black" stroke="black" points="422.96,-165.5 412.96,-169 422.96,-172.5 422.96,-165.5"/>
</g>
<!-- MediaAssetsService  -->
<g id="node3" class="node">
<title>MediaAssetsService </title>
<polygon fill="#fb8072" stroke="black" points="431.79,-252 298.21,-252 298.21,-216 431.79,-216 431.79,-252"/>
<text text-anchor="middle" x="365" y="-229.8" font-family="Times,serif" font-size="14.00">MediaAssetsService </text>
</g>
<!-- MediaModule&#45;&gt;MediaAssetsService  -->
<g id="edge2" class="edge">
<title>MediaModule&#45;&gt;MediaAssetsService </title>
<path fill="none" stroke="black" stroke-dasharray="5,2" d="M365,-187.11C365,-187.11 365,-205.99 365,-205.99"/>
<polygon fill="black" stroke="black" points="361.5,-205.99 365,-215.99 368.5,-205.99 361.5,-205.99"/>
</g>
<!-- MediaAssetRepository -->
<g id="node4" class="node">
<title>MediaAssetRepository</title>
<ellipse fill="#fdb462" stroke="black" cx="469" cy="-104" rx="99.58" ry="18"/>
<text text-anchor="middle" x="469" y="-99.8" font-family="Times,serif" font-size="14.00">MediaAssetRepository</text>
</g>
<!-- MediaAssetRepository&#45;&gt;MediaModule -->
<g id="edge3" class="edge">
<title>MediaAssetRepository&#45;&gt;MediaModule</title>
<path fill="none" stroke="black" d="M391.06,-115.32C391.06,-115.32 391.06,-140.94 391.06,-140.94"/>
<polygon fill="black" stroke="black" points="387.56,-140.94 391.06,-150.94 394.56,-140.94 387.56,-140.94"/>
</g>
<!-- MediaAssetsService -->
<g id="node5" class="node">
<title>MediaAssetsService</title>
<ellipse fill="#fdb462" stroke="black" cx="262" cy="-104" rx="89.74" ry="18"/>
<text text-anchor="middle" x="262" y="-99.8" font-family="Times,serif" font-size="14.00">MediaAssetsService</text>
</g>
<!-- MediaAssetsService&#45;&gt;MediaModule -->
<g id="edge4" class="edge">
<title>MediaAssetsService&#45;&gt;MediaModule</title>
<path fill="none" stroke="black" d="M334.61,-114.73C334.61,-114.73 334.61,-140.87 334.61,-140.87"/>
<polygon fill="black" stroke="black" points="331.11,-140.87 334.61,-150.87 338.11,-140.87 331.11,-140.87"/>
</g>
<!-- MediaService -->
<g id="node6" class="node">
<title>MediaService</title>
<ellipse fill="#fdb462" stroke="black" cx="89" cy="-104" rx="64.82" ry="18"/>
<text text-anchor="middle" x="89" y="-99.8" font-family="Times,serif" font-size="14.00">MediaService</text>
</g>
<!-- MediaService&#45;&gt;MediaModule -->
<g id="edge5" class="edge">
<title>MediaService&#45;&gt;MediaModule</title>
<path fill="none" stroke="black" d="M89,-122.11C89,-141.34 89,-169 89,-169 89,-169 307.24,-169 307.24,-169"/>
<polygon fill="black" stroke="black" points="307.24,-172.5 317.24,-169 307.24,-165.5 307.24,-172.5"/>
</g>
</g>
</svg>
