<?xml version="1.0" encoding="UTF-8" standalone="no"?>
<!DOCTYPE svg PUBLIC "-//W3C//DTD SVG 1.1//EN"
 "http://www.w3.org/Graphics/SVG/1.1/DTD/svg11.dtd">
<!-- Generated by graphviz version 2.47.0 (20210316.0004)
 -->
<!-- Title: dependencies Pages: 1 -->
<svg width="510pt" height="284pt"
 viewBox="0.00 0.00 510.00 284.00" xmlns="http://www.w3.org/2000/svg" xmlns:xlink="http://www.w3.org/1999/xlink">
<g id="graph0" class="graph" transform="scale(1 1) rotate(0) translate(4 280)">
<title>dependencies</title>
<polygon fill="white" stroke="transparent" points="-4,4 -4,-280 506,-280 506,4 -4,4"/>
<text text-anchor="start" x="230.01" y="-42.4" font-family="Times-12" font-weight="bold" font-size="14.00">Legend</text>
<polygon fill="#ffffb3" stroke="transparent" points="17,-10 17,-30 37,-30 37,-10 17,-10"/>
<text text-anchor="start" x="40.63" y="-15.4" font-family="Times-12" font-size="14.00"> &#160;Declarations</text>
<polygon fill="#8dd3c7" stroke="transparent" points="130,-10 130,-30 150,-30 150,-10 130,-10"/>
<text text-anchor="start" x="153.73" y="-15.4" font-family="Times-12" font-size="14.00"> &#160;Module</text>
<polygon fill="#80b1d3" stroke="transparent" points="216,-10 216,-30 236,-30 236,-10 216,-10"/>
<text text-anchor="start" x="239.78" y="-15.4" font-family="Times-12" font-size="14.00"> &#160;Bootstrap</text>
<polygon fill="#fdb462" stroke="transparent" points="313,-10 313,-30 333,-30 333,-10 313,-10"/>
<text text-anchor="start" x="336.67" y="-15.4" font-family="Times-12" font-size="14.00"> &#160;Providers</text>
<polygon fill="#fb8072" stroke="transparent" points="409,-10 409,-30 429,-30 429,-10 409,-10"/>
<text text-anchor="start" x="432.73" y="-15.4" font-family="Times-12" font-size="14.00"> &#160;Exports</text>
<g id="clust1" class="cluster">
<title>cluster_MediaModule</title>
<polygon fill="none" stroke="black" stroke-dasharray="1,5" points="8,-70 8,-268 494,-268 494,-70 8,-70"/>
</g>
<g id="clust3" class="cluster">
<title>cluster_MediaModule_imports</title>
<polygon fill="none" stroke="black" points="368,-78 368,-130 486,-130 486,-78 368,-78"/>
</g>
<g id="clust6" class="cluster">
<title>cluster_MediaModule_providers</title>
<polygon fill="none" stroke="black" points="16,-78 16,-130 360,-130 360,-78 16,-78"/>
</g>
<g id="clust4" class="cluster">
<title>cluster_MediaModule_exports</title>
<polygon fill="none" stroke="black" points="187,-208 187,-260 337,-260 337,-208 187,-208"/>
</g>
<!-- StorageModule -->
<g id="node1" class="node">
<title>StorageModule</title>
<polygon fill="#8dd3c7" stroke="black" points="478.31,-122 475.31,-126 454.31,-126 451.31,-122 375.69,-122 375.69,-86 478.31,-86 478.31,-122"/>
<text text-anchor="middle" x="427" y="-99.8" font-family="Times,serif" font-size="14.00">StorageModule</text>
</g>
<!-- MediaModule -->
<g id="node2" class="node">
<title>MediaModule</title>
<polygon fill="#8dd3c7" stroke="black" points="309.81,-187 306.81,-191 285.81,-191 282.81,-187 214.19,-187 214.19,-151 309.81,-151 309.81,-187"/>
<text text-anchor="middle" x="262" y="-164.8" font-family="Times,serif" font-size="14.00">MediaModule</text>
</g>
<!-- StorageModule&#45;&gt;MediaModule -->
<g id="edge1" class="edge">
<title>StorageModule&#45;&gt;MediaModule</title>
<path fill="none" stroke="black" d="M427,-122.11C427,-141.34 427,-169 427,-169 427,-169 319.72,-169 319.72,-169"/>
<polygon fill="black" stroke="black" points="319.72,-165.5 309.72,-169 319.72,-172.5 319.72,-165.5"/>
</g>
<!-- MediaAssetsService  -->
<g id="node3" class="node">
<title>MediaAssetsService </title>
<polygon fill="#fb8072" stroke="black" points="328.79,-252 195.21,-252 195.21,-216 328.79,-216 328.79,-252"/>
<text text-anchor="middle" x="262" y="-229.8" font-family="Times,serif" font-size="14.00">MediaAssetsService </text>
</g>
<!-- MediaModule&#45;&gt;MediaAssetsService  -->
<g id="edge2" class="edge">
<title>MediaModule&#45;&gt;MediaAssetsService </title>
<path fill="none" stroke="black" stroke-dasharray="5,2" d="M262,-187.11C262,-187.11 262,-205.99 262,-205.99"/>
<polygon fill="black" stroke="black" points="258.5,-205.99 262,-215.99 265.5,-205.99 258.5,-205.99"/>
</g>
<!-- MediaAssetsService -->
<g id="node4" class="node">
<title>MediaAssetsService</title>
<ellipse fill="#fdb462" stroke="black" cx="262" cy="-104" rx="89.74" ry="18"/>
<text text-anchor="middle" x="262" y="-99.8" font-family="Times,serif" font-size="14.00">MediaAssetsService</text>
</g>
<!-- MediaAssetsService&#45;&gt;MediaModule -->
<g id="edge3" class="edge">
<title>MediaAssetsService&#45;&gt;MediaModule</title>
<path fill="none" stroke="black" d="M262,-122.11C262,-122.11 262,-140.99 262,-140.99"/>
<polygon fill="black" stroke="black" points="258.5,-140.99 262,-150.99 265.5,-140.99 258.5,-140.99"/>
</g>
<!-- MediaService -->
<g id="node5" class="node">
<title>MediaService</title>
<ellipse fill="#fdb462" stroke="black" cx="89" cy="-104" rx="64.82" ry="18"/>
<text text-anchor="middle" x="89" y="-99.8" font-family="Times,serif" font-size="14.00">MediaService</text>
</g>
<!-- MediaService&#45;&gt;MediaModule -->
<g id="edge4" class="edge">
<title>MediaService&#45;&gt;MediaModule</title>
<path fill="none" stroke="black" d="M89,-122.11C89,-141.34 89,-169 89,-169 89,-169 204.27,-169 204.27,-169"/>
<polygon fill="black" stroke="black" points="204.27,-172.5 214.27,-169 204.27,-165.5 204.27,-172.5"/>
</g>
</g>
</svg>
