<?xml version="1.0" encoding="UTF-8" standalone="no"?>
<!DOCTYPE svg PUBLIC "-//W3C//DTD SVG 1.1//EN"
 "http://www.w3.org/Graphics/SVG/1.1/DTD/svg11.dtd">
<!-- Generated by graphviz version 2.47.0 (20210316.0004)
 -->
<!-- Title: dependencies Pages: 1 -->
<svg width="504pt" height="211pt"
 viewBox="0.00 0.00 504.00 211.00" xmlns="http://www.w3.org/2000/svg" xmlns:xlink="http://www.w3.org/1999/xlink">
<g id="graph0" class="graph" transform="scale(1 1) rotate(0) translate(4 207)">
<title>dependencies</title>
<polygon fill="white" stroke="transparent" points="-4,4 -4,-207 500,-207 500,4 -4,4"/>
<text text-anchor="start" x="227.01" y="-42.4" font-family="Times-12" font-weight="bold" font-size="14.00">Legend</text>
<polygon fill="#ffffb3" stroke="transparent" points="14,-10 14,-30 34,-30 34,-10 14,-10"/>
<text text-anchor="start" x="37.63" y="-15.4" font-family="Times-12" font-size="14.00"> &#160;Declarations</text>
<polygon fill="#8dd3c7" stroke="transparent" points="127,-10 127,-30 147,-30 147,-10 127,-10"/>
<text text-anchor="start" x="150.73" y="-15.4" font-family="Times-12" font-size="14.00"> &#160;Module</text>
<polygon fill="#80b1d3" stroke="transparent" points="213,-10 213,-30 233,-30 233,-10 213,-10"/>
<text text-anchor="start" x="236.78" y="-15.4" font-family="Times-12" font-size="14.00"> &#160;Bootstrap</text>
<polygon fill="#fdb462" stroke="transparent" points="310,-10 310,-30 330,-30 330,-10 310,-10"/>
<text text-anchor="start" x="333.67" y="-15.4" font-family="Times-12" font-size="14.00"> &#160;Providers</text>
<polygon fill="#fb8072" stroke="transparent" points="406,-10 406,-30 426,-30 426,-10 406,-10"/>
<text text-anchor="start" x="429.73" y="-15.4" font-family="Times-12" font-size="14.00"> &#160;Exports</text>
<g id="clust1" class="cluster">
<title>cluster_StorageModule</title>
<polygon fill="none" stroke="black" stroke-dasharray="1,5" points="42,-70 42,-195 454,-195 454,-70 42,-70"/>
</g>
<g id="clust3" class="cluster">
<title>cluster_StorageModule_imports</title>
<polygon fill="none" stroke="black" points="308,-78 308,-130 446,-130 446,-78 308,-78"/>
</g>
<g id="clust6" class="cluster">
<title>cluster_StorageModule_providers</title>
<polygon fill="none" stroke="black" points="50,-78 50,-130 300,-130 300,-78 50,-78"/>
</g>
<!-- CloudinaryModule -->
<g id="node1" class="node">
<title>CloudinaryModule</title>
<polygon fill="#8dd3c7" stroke="black" points="438.04,-122 435.04,-126 414.04,-126 411.04,-122 315.96,-122 315.96,-86 438.04,-86 438.04,-122"/>
<text text-anchor="middle" x="377" y="-99.8" font-family="Times,serif" font-size="14.00">CloudinaryModule</text>
</g>
<!-- StorageModule -->
<g id="node2" class="node">
<title>StorageModule</title>
<polygon fill="#8dd3c7" stroke="black" points="226.31,-187 223.31,-191 202.31,-191 199.31,-187 123.69,-187 123.69,-151 226.31,-151 226.31,-187"/>
<text text-anchor="middle" x="175" y="-164.8" font-family="Times,serif" font-size="14.00">StorageModule</text>
</g>
<!-- CloudinaryModule&#45;&gt;StorageModule -->
<g id="edge1" class="edge">
<title>CloudinaryModule&#45;&gt;StorageModule</title>
<path fill="none" stroke="black" d="M377,-122.11C377,-141.34 377,-169 377,-169 377,-169 236.23,-169 236.23,-169"/>
<polygon fill="black" stroke="black" points="236.23,-165.5 226.23,-169 236.23,-172.5 236.23,-165.5"/>
</g>
<!-- CloudinaryStorageProvider -->
<g id="node3" class="node">
<title>CloudinaryStorageProvider</title>
<ellipse fill="#fdb462" stroke="black" cx="175" cy="-104" rx="117.48" ry="18"/>
<text text-anchor="middle" x="175" y="-99.8" font-family="Times,serif" font-size="14.00">CloudinaryStorageProvider</text>
</g>
<!-- CloudinaryStorageProvider&#45;&gt;StorageModule -->
<g id="edge2" class="edge">
<title>CloudinaryStorageProvider&#45;&gt;StorageModule</title>
<path fill="none" stroke="black" d="M192.05,-122.11C192.05,-122.11 192.05,-140.99 192.05,-140.99"/>
<polygon fill="black" stroke="black" points="188.55,-140.99 192.05,-150.99 195.55,-140.99 188.55,-140.99"/>
</g>
<!-- CloudinaryStorageProvider&#45;&gt;StorageModule -->
<g id="edge3" class="edge">
<title>CloudinaryStorageProvider&#45;&gt;StorageModule</title>
<path fill="none" stroke="black" d="M157.95,-122.11C157.95,-122.11 157.95,-140.99 157.95,-140.99"/>
<polygon fill="black" stroke="black" points="154.45,-140.99 157.95,-150.99 161.45,-140.99 154.45,-140.99"/>
</g>
</g>
</svg>
