<?xml version="1.0" encoding="UTF-8" standalone="no"?>
<!DOCTYPE svg PUBLIC "-//W3C//DTD SVG 1.1//EN"
 "http://www.w3.org/Graphics/SVG/1.1/DTD/svg11.dtd">
<!-- Generated by graphviz version 2.47.0 (20210316.0004)
 -->
<!-- Title: dependencies Pages: 1 -->
<svg width="641pt" height="284pt"
 viewBox="0.00 0.00 641.00 284.00" xmlns="http://www.w3.org/2000/svg" xmlns:xlink="http://www.w3.org/1999/xlink">
<g id="graph0" class="graph" transform="scale(1 1) rotate(0) translate(4 280)">
<title>dependencies</title>
<polygon fill="white" stroke="transparent" points="-4,4 -4,-280 637,-280 637,4 -4,4"/>
<text text-anchor="start" x="295.51" y="-42.4" font-family="Times-12" font-weight="bold" font-size="14.00">Legend</text>
<polygon fill="#ffffb3" stroke="transparent" points="82.5,-10 82.5,-30 102.5,-30 102.5,-10 82.5,-10"/>
<text text-anchor="start" x="106.13" y="-15.4" font-family="Times-12" font-size="14.00"> &#160;Declarations</text>
<polygon fill="#8dd3c7" stroke="transparent" points="195.5,-10 195.5,-30 215.5,-30 215.5,-10 195.5,-10"/>
<text text-anchor="start" x="219.23" y="-15.4" font-family="Times-12" font-size="14.00"> &#160;Module</text>
<polygon fill="#80b1d3" stroke="transparent" points="281.5,-10 281.5,-30 301.5,-30 301.5,-10 281.5,-10"/>
<text text-anchor="start" x="305.28" y="-15.4" font-family="Times-12" font-size="14.00"> &#160;Bootstrap</text>
<polygon fill="#fdb462" stroke="transparent" points="378.5,-10 378.5,-30 398.5,-30 398.5,-10 378.5,-10"/>
<text text-anchor="start" x="402.17" y="-15.4" font-family="Times-12" font-size="14.00"> &#160;Providers</text>
<polygon fill="#fb8072" stroke="transparent" points="474.5,-10 474.5,-30 494.5,-30 494.5,-10 474.5,-10"/>
<text text-anchor="start" x="498.23" y="-15.4" font-family="Times-12" font-size="14.00"> &#160;Exports</text>
<g id="clust1" class="cluster">
<title>cluster_UsersModule</title>
<polygon fill="none" stroke="black" stroke-dasharray="1,5" points="8,-70 8,-268 625,-268 625,-70 8,-70"/>
</g>
<g id="clust3" class="cluster">
<title>cluster_UsersModule_imports</title>
<polygon fill="none" stroke="black" points="487,-78 487,-130 617,-130 617,-78 487,-78"/>
</g>
<g id="clust4" class="cluster">
<title>cluster_UsersModule_exports</title>
<polygon fill="none" stroke="black" points="263,-208 263,-260 373,-260 373,-208 263,-208"/>
</g>
<g id="clust6" class="cluster">
<title>cluster_UsersModule_providers</title>
<polygon fill="none" stroke="black" points="16,-78 16,-130 479,-130 479,-78 16,-78"/>
</g>
<!-- PasswordModule -->
<g id="node1" class="node">
<title>PasswordModule</title>
<polygon fill="#8dd3c7" stroke="black" points="608.7,-122 605.7,-126 584.7,-126 581.7,-122 495.3,-122 495.3,-86 608.7,-86 608.7,-122"/>
<text text-anchor="middle" x="552" y="-99.8" font-family="Times,serif" font-size="14.00">PasswordModule</text>
</g>
<!-- UsersModule -->
<g id="node2" class="node">
<title>UsersModule</title>
<polygon fill="#8dd3c7" stroke="black" points="363.92,-187 360.92,-191 339.92,-191 336.92,-187 272.08,-187 272.08,-151 363.92,-151 363.92,-187"/>
<text text-anchor="middle" x="318" y="-164.8" font-family="Times,serif" font-size="14.00">UsersModule</text>
</g>
<!-- PasswordModule&#45;&gt;UsersModule -->
<g id="edge1" class="edge">
<title>PasswordModule&#45;&gt;UsersModule</title>
<path fill="none" stroke="black" d="M552,-122.11C552,-141.34 552,-169 552,-169 552,-169 373.95,-169 373.95,-169"/>
<polygon fill="black" stroke="black" points="373.95,-165.5 363.95,-169 373.95,-172.5 373.95,-165.5"/>
</g>
<!-- UsersService  -->
<g id="node3" class="node">
<title>UsersService </title>
<polygon fill="#fb8072" stroke="black" points="364.85,-252 271.15,-252 271.15,-216 364.85,-216 364.85,-252"/>
<text text-anchor="middle" x="318" y="-229.8" font-family="Times,serif" font-size="14.00">UsersService </text>
</g>
<!-- UsersModule&#45;&gt;UsersService  -->
<g id="edge2" class="edge">
<title>UsersModule&#45;&gt;UsersService </title>
<path fill="none" stroke="black" stroke-dasharray="5,2" d="M318,-187.11C318,-187.11 318,-205.99 318,-205.99"/>
<polygon fill="black" stroke="black" points="314.5,-205.99 318,-215.99 321.5,-205.99 314.5,-205.99"/>
</g>
<!-- RoleRepository -->
<g id="node4" class="node">
<title>RoleRepository</title>
<ellipse fill="#fdb462" stroke="black" cx="399" cy="-104" rx="71.81" ry="18"/>
<text text-anchor="middle" x="399" y="-99.8" font-family="Times,serif" font-size="14.00">RoleRepository</text>
</g>
<!-- RoleRepository&#45;&gt;UsersModule -->
<g id="edge3" class="edge">
<title>RoleRepository&#45;&gt;UsersModule</title>
<path fill="none" stroke="black" d="M345.53,-116.23C345.53,-116.23 345.53,-140.68 345.53,-140.68"/>
<polygon fill="black" stroke="black" points="342.03,-140.68 345.53,-150.68 349.03,-140.68 342.03,-140.68"/>
</g>
<!-- UserRepository -->
<g id="node5" class="node">
<title>UserRepository</title>
<ellipse fill="#fdb462" stroke="black" cx="238" cy="-104" rx="71.79" ry="18"/>
<text text-anchor="middle" x="238" y="-99.8" font-family="Times,serif" font-size="14.00">UserRepository</text>
</g>
<!-- UserRepository&#45;&gt;UsersModule -->
<g id="edge4" class="edge">
<title>UserRepository&#45;&gt;UsersModule</title>
<path fill="none" stroke="black" d="M290.97,-116.23C290.97,-116.23 290.97,-140.68 290.97,-140.68"/>
<polygon fill="black" stroke="black" points="287.47,-140.68 290.97,-150.68 294.47,-140.68 287.47,-140.68"/>
</g>
<!-- UsersService -->
<g id="node6" class="node">
<title>UsersService</title>
<ellipse fill="#fdb462" stroke="black" cx="86" cy="-104" rx="61.95" ry="18"/>
<text text-anchor="middle" x="86" y="-99.8" font-family="Times,serif" font-size="14.00">UsersService</text>
</g>
<!-- UsersService&#45;&gt;UsersModule -->
<g id="edge5" class="edge">
<title>UsersService&#45;&gt;UsersModule</title>
<path fill="none" stroke="black" d="M86,-122.11C86,-141.34 86,-169 86,-169 86,-169 262.16,-169 262.16,-169"/>
<polygon fill="black" stroke="black" points="262.16,-172.5 272.16,-169 262.16,-165.5 262.16,-172.5"/>
</g>
</g>
</svg>
