<?xml version="1.0" encoding="UTF-8" standalone="no"?>
<!DOCTYPE svg PUBLIC "-//W3C//DTD SVG 1.1//EN"
 "http://www.w3.org/Graphics/SVG/1.1/DTD/svg11.dtd">
<!-- Generated by graphviz version 2.47.0 (20210316.0004)
 -->
<!-- Title: dependencies Pages: 1 -->
<svg width="504pt" height="284pt"
 viewBox="0.00 0.00 504.00 284.00" xmlns="http://www.w3.org/2000/svg" xmlns:xlink="http://www.w3.org/1999/xlink">
<g id="graph0" class="graph" transform="scale(1 1) rotate(0) translate(4 280)">
<title>dependencies</title>
<polygon fill="white" stroke="transparent" points="-4,4 -4,-280 500,-280 500,4 -4,4"/>
<text text-anchor="start" x="227.01" y="-42.4" font-family="Times-12" font-weight="bold" font-size="14.00">Legend</text>
<polygon fill="#ffffb3" stroke="transparent" points="14,-10 14,-30 34,-30 34,-10 14,-10"/>
<text text-anchor="start" x="37.63" y="-15.4" font-family="Times-12" font-size="14.00"> &#160;Declarations</text>
<polygon fill="#8dd3c7" stroke="transparent" points="127,-10 127,-30 147,-30 147,-10 127,-10"/>
<text text-anchor="start" x="150.73" y="-15.4" font-family="Times-12" font-size="14.00"> &#160;Module</text>
<polygon fill="#80b1d3" stroke="transparent" points="213,-10 213,-30 233,-30 233,-10 213,-10"/>
<text text-anchor="start" x="236.78" y="-15.4" font-family="Times-12" font-size="14.00"> &#160;Bootstrap</text>
<polygon fill="#fdb462" stroke="transparent" points="310,-10 310,-30 330,-30 330,-10 310,-10"/>
<text text-anchor="start" x="333.67" y="-15.4" font-family="Times-12" font-size="14.00"> &#160;Providers</text>
<polygon fill="#fb8072" stroke="transparent" points="406,-10 406,-30 426,-30 426,-10 406,-10"/>
<text text-anchor="start" x="429.73" y="-15.4" font-family="Times-12" font-size="14.00"> &#160;Exports</text>
<g id="clust1" class="cluster">
<title>cluster_UsersModule</title>
<polygon fill="none" stroke="black" stroke-dasharray="1,5" points="8.5,-70 8.5,-268 487.5,-268 487.5,-70 8.5,-70"/>
</g>
<g id="clust4" class="cluster">
<title>cluster_UsersModule_exports</title>
<polygon fill="none" stroke="black" points="183.5,-208 183.5,-260 293.5,-260 293.5,-208 183.5,-208"/>
</g>
<g id="clust6" class="cluster">
<title>cluster_UsersModule_providers</title>
<polygon fill="none" stroke="black" points="16.5,-78 16.5,-130 479.5,-130 479.5,-78 16.5,-78"/>
</g>
<!-- UsersService  -->
<g id="node1" class="node">
<title>UsersService </title>
<polygon fill="#fb8072" stroke="black" points="285.35,-252 191.65,-252 191.65,-216 285.35,-216 285.35,-252"/>
<text text-anchor="middle" x="238.5" y="-229.8" font-family="Times,serif" font-size="14.00">UsersService </text>
</g>
<!-- UsersModule -->
<g id="node2" class="node">
<title>UsersModule</title>
<polygon fill="#8dd3c7" stroke="black" points="284.42,-187 281.42,-191 260.42,-191 257.42,-187 192.58,-187 192.58,-151 284.42,-151 284.42,-187"/>
<text text-anchor="middle" x="238.5" y="-164.8" font-family="Times,serif" font-size="14.00">UsersModule</text>
</g>
<!-- UsersModule&#45;&gt;UsersService  -->
<g id="edge1" class="edge">
<title>UsersModule&#45;&gt;UsersService </title>
<path fill="none" stroke="black" stroke-dasharray="5,2" d="M238.5,-187.11C238.5,-187.11 238.5,-205.99 238.5,-205.99"/>
<polygon fill="black" stroke="black" points="235,-205.99 238.5,-215.99 242,-205.99 235,-205.99"/>
</g>
<!-- RoleRepository -->
<g id="node3" class="node">
<title>RoleRepository</title>
<ellipse fill="#fdb462" stroke="black" cx="399.5" cy="-104" rx="71.81" ry="18"/>
<text text-anchor="middle" x="399.5" y="-99.8" font-family="Times,serif" font-size="14.00">RoleRepository</text>
</g>
<!-- RoleRepository&#45;&gt;UsersModule -->
<g id="edge2" class="edge">
<title>RoleRepository&#45;&gt;UsersModule</title>
<path fill="none" stroke="black" d="M399.5,-122.11C399.5,-141.34 399.5,-169 399.5,-169 399.5,-169 294.64,-169 294.64,-169"/>
<polygon fill="black" stroke="black" points="294.64,-165.5 284.64,-169 294.64,-172.5 294.64,-165.5"/>
</g>
<!-- UserRepository -->
<g id="node4" class="node">
<title>UserRepository</title>
<ellipse fill="#fdb462" stroke="black" cx="238.5" cy="-104" rx="71.79" ry="18"/>
<text text-anchor="middle" x="238.5" y="-99.8" font-family="Times,serif" font-size="14.00">UserRepository</text>
</g>
<!-- UserRepository&#45;&gt;UsersModule -->
<g id="edge3" class="edge">
<title>UserRepository&#45;&gt;UsersModule</title>
<path fill="none" stroke="black" d="M238.5,-122.11C238.5,-122.11 238.5,-140.99 238.5,-140.99"/>
<polygon fill="black" stroke="black" points="235,-140.99 238.5,-150.99 242,-140.99 235,-140.99"/>
</g>
<!-- UsersService -->
<g id="node5" class="node">
<title>UsersService</title>
<ellipse fill="#fdb462" stroke="black" cx="86.5" cy="-104" rx="61.95" ry="18"/>
<text text-anchor="middle" x="86.5" y="-99.8" font-family="Times,serif" font-size="14.00">UsersService</text>
</g>
<!-- UsersService&#45;&gt;UsersModule -->
<g id="edge4" class="edge">
<title>UsersService&#45;&gt;UsersModule</title>
<path fill="none" stroke="black" d="M86.5,-122.11C86.5,-141.34 86.5,-169 86.5,-169 86.5,-169 182.48,-169 182.48,-169"/>
<polygon fill="black" stroke="black" points="182.48,-172.5 192.48,-169 182.48,-165.5 182.48,-172.5"/>
</g>
</g>
</svg>
