<?xml version="1.0" encoding="UTF-8" standalone="no"?>
<!DOCTYPE svg PUBLIC "-//W3C//DTD SVG 1.1//EN"
 "http://www.w3.org/Graphics/SVG/1.1/DTD/svg11.dtd">
<!-- Generated by graphviz version 2.47.0 (20210316.0004)
 -->
<!-- Title: dependencies Pages: 1 -->
<svg width="556pt" height="284pt"
 viewBox="0.00 0.00 556.00 284.00" xmlns="http://www.w3.org/2000/svg" xmlns:xlink="http://www.w3.org/1999/xlink">
<g id="graph0" class="graph" transform="scale(1 1) rotate(0) translate(4 280)">
<title>dependencies</title>
<polygon fill="white" stroke="transparent" points="-4,4 -4,-280 552,-280 552,4 -4,4"/>
<text text-anchor="start" x="253.01" y="-42.4" font-family="Times-12" font-weight="bold" font-size="14.00">Legend</text>
<polygon fill="#ffffb3" stroke="transparent" points="40,-10 40,-30 60,-30 60,-10 40,-10"/>
<text text-anchor="start" x="63.63" y="-15.4" font-family="Times-12" font-size="14.00"> &#160;Declarations</text>
<polygon fill="#8dd3c7" stroke="transparent" points="153,-10 153,-30 173,-30 173,-10 153,-10"/>
<text text-anchor="start" x="176.73" y="-15.4" font-family="Times-12" font-size="14.00"> &#160;Module</text>
<polygon fill="#80b1d3" stroke="transparent" points="239,-10 239,-30 259,-30 259,-10 239,-10"/>
<text text-anchor="start" x="262.78" y="-15.4" font-family="Times-12" font-size="14.00"> &#160;Bootstrap</text>
<polygon fill="#fdb462" stroke="transparent" points="336,-10 336,-30 356,-30 356,-10 336,-10"/>
<text text-anchor="start" x="359.67" y="-15.4" font-family="Times-12" font-size="14.00"> &#160;Providers</text>
<polygon fill="#fb8072" stroke="transparent" points="432,-10 432,-30 452,-30 452,-10 432,-10"/>
<text text-anchor="start" x="455.73" y="-15.4" font-family="Times-12" font-size="14.00"> &#160;Exports</text>
<g id="clust1" class="cluster">
<title>cluster_CustomersModule</title>
<polygon fill="none" stroke="black" stroke-dasharray="1,5" points="8,-70 8,-268 540,-268 540,-70 8,-70"/>
</g>
<g id="clust6" class="cluster">
<title>cluster_CustomersModule_providers</title>
<polygon fill="none" stroke="black" points="154,-78 154,-130 532,-130 532,-78 154,-78"/>
</g>
<g id="clust4" class="cluster">
<title>cluster_CustomersModule_exports</title>
<polygon fill="none" stroke="black" points="174,-208 174,-260 312,-260 312,-208 174,-208"/>
</g>
<g id="clust3" class="cluster">
<title>cluster_CustomersModule_imports</title>
<polygon fill="none" stroke="black" points="16,-78 16,-130 146,-130 146,-78 16,-78"/>
</g>
<!-- PasswordModule -->
<g id="node1" class="node">
<title>PasswordModule</title>
<polygon fill="#8dd3c7" stroke="black" points="137.7,-122 134.7,-126 113.7,-126 110.7,-122 24.3,-122 24.3,-86 137.7,-86 137.7,-122"/>
<text text-anchor="middle" x="81" y="-99.8" font-family="Times,serif" font-size="14.00">PasswordModule</text>
</g>
<!-- CustomersModule -->
<g id="node2" class="node">
<title>CustomersModule</title>
<polygon fill="#8dd3c7" stroke="black" points="302.93,-187 299.93,-191 278.93,-191 275.93,-187 183.07,-187 183.07,-151 302.93,-151 302.93,-187"/>
<text text-anchor="middle" x="243" y="-164.8" font-family="Times,serif" font-size="14.00">CustomersModule</text>
</g>
<!-- PasswordModule&#45;&gt;CustomersModule -->
<g id="edge1" class="edge">
<title>PasswordModule&#45;&gt;CustomersModule</title>
<path fill="none" stroke="black" d="M81,-122.11C81,-141.34 81,-169 81,-169 81,-169 173.14,-169 173.14,-169"/>
<polygon fill="black" stroke="black" points="173.14,-172.5 183.14,-169 173.14,-165.5 173.14,-172.5"/>
</g>
<!-- CustomersService  -->
<g id="node3" class="node">
<title>CustomersService </title>
<polygon fill="#fb8072" stroke="black" points="303.86,-252 182.14,-252 182.14,-216 303.86,-216 303.86,-252"/>
<text text-anchor="middle" x="243" y="-229.8" font-family="Times,serif" font-size="14.00">CustomersService </text>
</g>
<!-- CustomersModule&#45;&gt;CustomersService  -->
<g id="edge2" class="edge">
<title>CustomersModule&#45;&gt;CustomersService </title>
<path fill="none" stroke="black" stroke-dasharray="5,2" d="M243,-187.11C243,-187.11 243,-205.99 243,-205.99"/>
<polygon fill="black" stroke="black" points="239.5,-205.99 243,-215.99 246.5,-205.99 239.5,-205.99"/>
</g>
<!-- CustomerRepository -->
<g id="node4" class="node">
<title>CustomerRepository</title>
<ellipse fill="#fdb462" stroke="black" cx="433" cy="-104" rx="90.93" ry="18"/>
<text text-anchor="middle" x="433" y="-99.8" font-family="Times,serif" font-size="14.00">CustomerRepository</text>
</g>
<!-- CustomerRepository&#45;&gt;CustomersModule -->
<g id="edge3" class="edge">
<title>CustomerRepository&#45;&gt;CustomersModule</title>
<path fill="none" stroke="black" d="M433,-122.11C433,-141.34 433,-169 433,-169 433,-169 312.86,-169 312.86,-169"/>
<polygon fill="black" stroke="black" points="312.86,-165.5 302.86,-169 312.86,-172.5 312.86,-165.5"/>
</g>
<!-- CustomersService -->
<g id="node5" class="node">
<title>CustomersService</title>
<ellipse fill="#fdb462" stroke="black" cx="243" cy="-104" rx="81.1" ry="18"/>
<text text-anchor="middle" x="243" y="-99.8" font-family="Times,serif" font-size="14.00">CustomersService</text>
</g>
<!-- CustomersService&#45;&gt;CustomersModule -->
<g id="edge4" class="edge">
<title>CustomersService&#45;&gt;CustomersModule</title>
<path fill="none" stroke="black" d="M243,-122.11C243,-122.11 243,-140.99 243,-140.99"/>
<polygon fill="black" stroke="black" points="239.5,-140.99 243,-150.99 246.5,-140.99 239.5,-140.99"/>
</g>
</g>
</svg>
