<?xml version="1.0" encoding="UTF-8" standalone="no"?>
<!DOCTYPE svg PUBLIC "-//W3C//DTD SVG 1.1//EN"
 "http://www.w3.org/Graphics/SVG/1.1/DTD/svg11.dtd">
<!-- Generated by graphviz version 2.47.0 (20210316.0004)
 -->
<!-- Title: dependencies Pages: 1 -->
<svg width="504pt" height="284pt"
 viewBox="0.00 0.00 504.00 284.00" xmlns="http://www.w3.org/2000/svg" xmlns:xlink="http://www.w3.org/1999/xlink">
<g id="graph0" class="graph" transform="scale(1 1) rotate(0) translate(4 280)">
<title>dependencies</title>
<polygon fill="white" stroke="transparent" points="-4,4 -4,-280 500,-280 500,4 -4,4"/>
<text text-anchor="start" x="227.01" y="-42.4" font-family="Times-12" font-weight="bold" font-size="14.00">Legend</text>
<polygon fill="#ffffb3" stroke="transparent" points="14,-10 14,-30 34,-30 34,-10 14,-10"/>
<text text-anchor="start" x="37.63" y="-15.4" font-family="Times-12" font-size="14.00"> &#160;Declarations</text>
<polygon fill="#8dd3c7" stroke="transparent" points="127,-10 127,-30 147,-30 147,-10 127,-10"/>
<text text-anchor="start" x="150.73" y="-15.4" font-family="Times-12" font-size="14.00"> &#160;Module</text>
<polygon fill="#80b1d3" stroke="transparent" points="213,-10 213,-30 233,-30 233,-10 213,-10"/>
<text text-anchor="start" x="236.78" y="-15.4" font-family="Times-12" font-size="14.00"> &#160;Bootstrap</text>
<polygon fill="#fdb462" stroke="transparent" points="310,-10 310,-30 330,-30 330,-10 310,-10"/>
<text text-anchor="start" x="333.67" y="-15.4" font-family="Times-12" font-size="14.00"> &#160;Providers</text>
<polygon fill="#fb8072" stroke="transparent" points="406,-10 406,-30 426,-30 426,-10 406,-10"/>
<text text-anchor="start" x="429.73" y="-15.4" font-family="Times-12" font-size="14.00"> &#160;Exports</text>
<g id="clust1" class="cluster">
<title>cluster_CustomersModule</title>
<polygon fill="none" stroke="black" stroke-dasharray="1,5" points="51,-70 51,-268 445,-268 445,-70 51,-70"/>
</g>
<g id="clust6" class="cluster">
<title>cluster_CustomersModule_providers</title>
<polygon fill="none" stroke="black" points="59,-78 59,-130 437,-130 437,-78 59,-78"/>
</g>
<g id="clust4" class="cluster">
<title>cluster_CustomersModule_exports</title>
<polygon fill="none" stroke="black" points="174,-208 174,-260 312,-260 312,-208 174,-208"/>
</g>
<!-- CustomersService  -->
<g id="node1" class="node">
<title>CustomersService </title>
<polygon fill="#fb8072" stroke="black" points="303.86,-252 182.14,-252 182.14,-216 303.86,-216 303.86,-252"/>
<text text-anchor="middle" x="243" y="-229.8" font-family="Times,serif" font-size="14.00">CustomersService </text>
</g>
<!-- CustomersModule -->
<g id="node2" class="node">
<title>CustomersModule</title>
<polygon fill="#8dd3c7" stroke="black" points="302.93,-187 299.93,-191 278.93,-191 275.93,-187 183.07,-187 183.07,-151 302.93,-151 302.93,-187"/>
<text text-anchor="middle" x="243" y="-164.8" font-family="Times,serif" font-size="14.00">CustomersModule</text>
</g>
<!-- CustomersModule&#45;&gt;CustomersService  -->
<g id="edge1" class="edge">
<title>CustomersModule&#45;&gt;CustomersService </title>
<path fill="none" stroke="black" stroke-dasharray="5,2" d="M243,-187.11C243,-187.11 243,-205.99 243,-205.99"/>
<polygon fill="black" stroke="black" points="239.5,-205.99 243,-215.99 246.5,-205.99 239.5,-205.99"/>
</g>
<!-- CustomerRepository -->
<g id="node3" class="node">
<title>CustomerRepository</title>
<ellipse fill="#fdb462" stroke="black" cx="338" cy="-104" rx="90.93" ry="18"/>
<text text-anchor="middle" x="338" y="-99.8" font-family="Times,serif" font-size="14.00">CustomerRepository</text>
</g>
<!-- CustomerRepository&#45;&gt;CustomersModule -->
<g id="edge2" class="edge">
<title>CustomerRepository&#45;&gt;CustomersModule</title>
<path fill="none" stroke="black" d="M274.88,-117.15C274.88,-117.15 274.88,-140.69 274.88,-140.69"/>
<polygon fill="black" stroke="black" points="271.38,-140.69 274.88,-150.69 278.38,-140.69 271.38,-140.69"/>
</g>
<!-- CustomersService -->
<g id="node4" class="node">
<title>CustomersService</title>
<ellipse fill="#fdb462" stroke="black" cx="148" cy="-104" rx="81.1" ry="18"/>
<text text-anchor="middle" x="148" y="-99.8" font-family="Times,serif" font-size="14.00">CustomersService</text>
</g>
<!-- CustomersService&#45;&gt;CustomersModule -->
<g id="edge3" class="edge">
<title>CustomersService&#45;&gt;CustomersModule</title>
<path fill="none" stroke="black" d="M206.29,-116.84C206.29,-116.84 206.29,-140.52 206.29,-140.52"/>
<polygon fill="black" stroke="black" points="202.79,-140.52 206.29,-150.52 209.79,-140.52 202.79,-140.52"/>
</g>
</g>
</svg>
