<?xml version="1.0" encoding="UTF-8" standalone="no"?>
<!DOCTYPE svg PUBLIC "-//W3C//DTD SVG 1.1//EN"
 "http://www.w3.org/Graphics/SVG/1.1/DTD/svg11.dtd">
<!-- Generated by graphviz version 2.47.0 (20210316.0004)
 -->
<!-- Title: dependencies Pages: 1 -->
<svg width="978pt" height="284pt"
 viewBox="0.00 0.00 978.00 284.00" xmlns="http://www.w3.org/2000/svg" xmlns:xlink="http://www.w3.org/1999/xlink">
<g id="graph0" class="graph" transform="scale(1 1) rotate(0) translate(4 280)">
<title>dependencies</title>
<polygon fill="white" stroke="transparent" points="-4,4 -4,-280 974,-280 974,4 -4,4"/>
<text text-anchor="start" x="464.01" y="-42.4" font-family="Times-12" font-weight="bold" font-size="14.00">Legend</text>
<polygon fill="#ffffb3" stroke="transparent" points="251,-10 251,-30 271,-30 271,-10 251,-10"/>
<text text-anchor="start" x="274.63" y="-15.4" font-family="Times-12" font-size="14.00"> &#160;Declarations</text>
<polygon fill="#8dd3c7" stroke="transparent" points="364,-10 364,-30 384,-30 384,-10 364,-10"/>
<text text-anchor="start" x="387.73" y="-15.4" font-family="Times-12" font-size="14.00"> &#160;Module</text>
<polygon fill="#80b1d3" stroke="transparent" points="450,-10 450,-30 470,-30 470,-10 450,-10"/>
<text text-anchor="start" x="473.78" y="-15.4" font-family="Times-12" font-size="14.00"> &#160;Bootstrap</text>
<polygon fill="#fdb462" stroke="transparent" points="547,-10 547,-30 567,-30 567,-10 547,-10"/>
<text text-anchor="start" x="570.67" y="-15.4" font-family="Times-12" font-size="14.00"> &#160;Providers</text>
<polygon fill="#fb8072" stroke="transparent" points="643,-10 643,-30 663,-30 663,-10 643,-10"/>
<text text-anchor="start" x="666.73" y="-15.4" font-family="Times-12" font-size="14.00"> &#160;Exports</text>
<g id="clust1" class="cluster">
<title>cluster_OrdersModule</title>
<polygon fill="none" stroke="black" stroke-dasharray="1,5" points="8,-70 8,-268 962,-268 962,-70 8,-70"/>
</g>
<g id="clust3" class="cluster">
<title>cluster_OrdersModule_imports</title>
<polygon fill="none" stroke="black" points="830,-78 830,-130 954,-130 954,-78 830,-78"/>
</g>
<g id="clust6" class="cluster">
<title>cluster_OrdersModule_providers</title>
<polygon fill="none" stroke="black" points="16,-78 16,-130 822,-130 822,-78 16,-78"/>
</g>
<g id="clust4" class="cluster">
<title>cluster_OrdersModule_exports</title>
<polygon fill="none" stroke="black" points="439,-208 439,-260 593,-260 593,-208 439,-208"/>
</g>
<!-- ProductsModule -->
<g id="node1" class="node">
<title>ProductsModule</title>
<polygon fill="#8dd3c7" stroke="black" points="946.04,-122 943.04,-126 922.04,-126 919.04,-122 837.96,-122 837.96,-86 946.04,-86 946.04,-122"/>
<text text-anchor="middle" x="892" y="-99.8" font-family="Times,serif" font-size="14.00">ProductsModule</text>
</g>
<!-- OrdersModule -->
<g id="node2" class="node">
<title>OrdersModule</title>
<polygon fill="#8dd3c7" stroke="black" points="564.64,-187 561.64,-191 540.64,-191 537.64,-187 467.36,-187 467.36,-151 564.64,-151 564.64,-187"/>
<text text-anchor="middle" x="516" y="-164.8" font-family="Times,serif" font-size="14.00">OrdersModule</text>
</g>
<!-- ProductsModule&#45;&gt;OrdersModule -->
<g id="edge1" class="edge">
<title>ProductsModule&#45;&gt;OrdersModule</title>
<path fill="none" stroke="black" d="M892,-122.28C892,-143.32 892,-175 892,-175 892,-175 574.77,-175 574.77,-175"/>
<polygon fill="black" stroke="black" points="574.77,-171.5 564.77,-175 574.77,-178.5 574.77,-171.5"/>
</g>
<!-- AdminOrdersService  -->
<g id="node3" class="node">
<title>AdminOrdersService </title>
<polygon fill="#fb8072" stroke="black" points="585.45,-252 446.55,-252 446.55,-216 585.45,-216 585.45,-252"/>
<text text-anchor="middle" x="516" y="-229.8" font-family="Times,serif" font-size="14.00">AdminOrdersService </text>
</g>
<!-- OrdersModule&#45;&gt;AdminOrdersService  -->
<g id="edge2" class="edge">
<title>OrdersModule&#45;&gt;AdminOrdersService </title>
<path fill="none" stroke="black" stroke-dasharray="5,2" d="M516,-187.11C516,-187.11 516,-205.99 516,-205.99"/>
<polygon fill="black" stroke="black" points="512.5,-205.99 516,-215.99 519.5,-205.99 512.5,-205.99"/>
</g>
<!-- AdminOrdersService -->
<g id="node4" class="node">
<title>AdminOrdersService</title>
<ellipse fill="#fdb462" stroke="black" cx="721" cy="-104" rx="93.18" ry="18"/>
<text text-anchor="middle" x="721" y="-99.8" font-family="Times,serif" font-size="14.00">AdminOrdersService</text>
</g>
<!-- AdminOrdersService&#45;&gt;OrdersModule -->
<g id="edge3" class="edge">
<title>AdminOrdersService&#45;&gt;OrdersModule</title>
<path fill="none" stroke="black" d="M721,-122.02C721,-139.37 721,-163 721,-163 721,-163 574.84,-163 574.84,-163"/>
<polygon fill="black" stroke="black" points="574.84,-159.5 564.84,-163 574.84,-166.5 574.84,-159.5"/>
</g>
<!-- OrderItemRepository -->
<g id="node5" class="node">
<title>OrderItemRepository</title>
<ellipse fill="#fdb462" stroke="black" cx="516" cy="-104" rx="93.76" ry="18"/>
<text text-anchor="middle" x="516" y="-99.8" font-family="Times,serif" font-size="14.00">OrderItemRepository</text>
</g>
<!-- OrderItemRepository&#45;&gt;OrdersModule -->
<g id="edge4" class="edge">
<title>OrderItemRepository&#45;&gt;OrdersModule</title>
<path fill="none" stroke="black" d="M516,-122.11C516,-122.11 516,-140.99 516,-140.99"/>
<polygon fill="black" stroke="black" points="512.5,-140.99 516,-150.99 519.5,-140.99 512.5,-140.99"/>
</g>
<!-- OrderRepository -->
<g id="node6" class="node">
<title>OrderRepository</title>
<ellipse fill="#fdb462" stroke="black" cx="328" cy="-104" rx="75.86" ry="18"/>
<text text-anchor="middle" x="328" y="-99.8" font-family="Times,serif" font-size="14.00">OrderRepository</text>
</g>
<!-- OrderRepository&#45;&gt;OrdersModule -->
<g id="edge5" class="edge">
<title>OrderRepository&#45;&gt;OrdersModule</title>
<path fill="none" stroke="black" d="M328,-122.02C328,-139.37 328,-163 328,-163 328,-163 457.1,-163 457.1,-163"/>
<polygon fill="black" stroke="black" points="457.1,-166.5 467.1,-163 457.1,-159.5 457.1,-166.5"/>
</g>
<!-- StorefrontOrdersService -->
<g id="node7" class="node">
<title>StorefrontOrdersService</title>
<ellipse fill="#fdb462" stroke="black" cx="129" cy="-104" rx="105.33" ry="18"/>
<text text-anchor="middle" x="129" y="-99.8" font-family="Times,serif" font-size="14.00">StorefrontOrdersService</text>
</g>
<!-- StorefrontOrdersService&#45;&gt;OrdersModule -->
<g id="edge6" class="edge">
<title>StorefrontOrdersService&#45;&gt;OrdersModule</title>
<path fill="none" stroke="black" d="M129,-122.28C129,-143.32 129,-175 129,-175 129,-175 456.99,-175 456.99,-175"/>
<polygon fill="black" stroke="black" points="456.99,-178.5 466.99,-175 456.99,-171.5 456.99,-178.5"/>
</g>
</g>
</svg>
