<?xml version="1.0" encoding="UTF-8" standalone="no"?>
<!DOCTYPE svg PUBLIC "-//W3C//DTD SVG 1.1//EN"
 "http://www.w3.org/Graphics/SVG/1.1/DTD/svg11.dtd">
<!-- Generated by graphviz version 2.47.0 (20210316.0004)
 -->
<!-- Title: dependencies Pages: 1 -->
<svg width="2357pt" height="211pt"
 viewBox="0.00 0.00 2357.00 211.00" xmlns="http://www.w3.org/2000/svg" xmlns:xlink="http://www.w3.org/1999/xlink">
<g id="graph0" class="graph" transform="scale(1 1) rotate(0) translate(4 207)">
<title>dependencies</title>
<polygon fill="white" stroke="transparent" points="-4,4 -4,-207 2353,-207 2353,4 -4,4"/>
<text text-anchor="start" x="1153.51" y="-42.4" font-family="Times-12" font-weight="bold" font-size="14.00">Legend</text>
<polygon fill="#ffffb3" stroke="transparent" points="940.5,-10 940.5,-30 960.5,-30 960.5,-10 940.5,-10"/>
<text text-anchor="start" x="964.13" y="-15.4" font-family="Times-12" font-size="14.00"> &#160;Declarations</text>
<polygon fill="#8dd3c7" stroke="transparent" points="1053.5,-10 1053.5,-30 1073.5,-30 1073.5,-10 1053.5,-10"/>
<text text-anchor="start" x="1077.23" y="-15.4" font-family="Times-12" font-size="14.00"> &#160;Module</text>
<polygon fill="#80b1d3" stroke="transparent" points="1139.5,-10 1139.5,-30 1159.5,-30 1159.5,-10 1139.5,-10"/>
<text text-anchor="start" x="1163.28" y="-15.4" font-family="Times-12" font-size="14.00"> &#160;Bootstrap</text>
<polygon fill="#fdb462" stroke="transparent" points="1236.5,-10 1236.5,-30 1256.5,-30 1256.5,-10 1236.5,-10"/>
<text text-anchor="start" x="1260.17" y="-15.4" font-family="Times-12" font-size="14.00"> &#160;Providers</text>
<polygon fill="#fb8072" stroke="transparent" points="1332.5,-10 1332.5,-30 1352.5,-30 1352.5,-10 1332.5,-10"/>
<text text-anchor="start" x="1356.23" y="-15.4" font-family="Times-12" font-size="14.00"> &#160;Exports</text>
<g id="clust1" class="cluster">
<title>cluster_AppModule</title>
<polygon fill="none" stroke="black" stroke-dasharray="1,5" points="8,-70 8,-195 2341,-195 2341,-70 8,-70"/>
</g>
<g id="clust3" class="cluster">
<title>cluster_AppModule_imports</title>
<polygon fill="none" stroke="black" points="154,-78 154,-130 2333,-130 2333,-78 154,-78"/>
</g>
<g id="clust6" class="cluster">
<title>cluster_AppModule_providers</title>
<polygon fill="none" stroke="black" points="16,-78 16,-130 146,-130 146,-78 16,-78"/>
</g>
<!-- AuthModule -->
<g id="node1" class="node">
<title>AuthModule</title>
<polygon fill="#8dd3c7" stroke="black" points="2324.55,-122 2321.55,-126 2300.55,-126 2297.55,-122 2237.45,-122 2237.45,-86 2324.55,-86 2324.55,-122"/>
<text text-anchor="middle" x="2281" y="-99.8" font-family="Times,serif" font-size="14.00">AuthModule</text>
</g>
<!-- AppModule -->
<g id="node18" class="node">
<title>AppModule</title>
<polygon fill="#8dd3c7" stroke="black" points="1237.66,-187 1234.66,-191 1213.66,-191 1210.66,-187 1154.34,-187 1154.34,-151 1237.66,-151 1237.66,-187"/>
<text text-anchor="middle" x="1196" y="-164.8" font-family="Times,serif" font-size="14.00">AppModule</text>
</g>
<!-- AuthModule&#45;&gt;AppModule -->
<g id="edge1" class="edge">
<title>AuthModule&#45;&gt;AppModule</title>
<path fill="none" stroke="black" d="M2281,-122.32C2281,-145.66 2281,-183 2281,-183 2281,-183 1247.87,-183 1247.87,-183"/>
<polygon fill="black" stroke="black" points="1247.87,-179.5 1237.87,-183 1247.87,-186.5 1247.87,-179.5"/>
</g>
<!-- BrandsModule -->
<g id="node2" class="node">
<title>BrandsModule</title>
<polygon fill="#8dd3c7" stroke="black" points="2219.71,-122 2216.71,-126 2195.71,-126 2192.71,-122 2120.29,-122 2120.29,-86 2219.71,-86 2219.71,-122"/>
<text text-anchor="middle" x="2170" y="-99.8" font-family="Times,serif" font-size="14.00">BrandsModule</text>
</g>
<!-- BrandsModule&#45;&gt;AppModule -->
<g id="edge2" class="edge">
<title>BrandsModule&#45;&gt;AppModule</title>
<path fill="none" stroke="black" d="M2170,-122.16C2170,-144.35 2170,-179 2170,-179 2170,-179 1247.85,-179 1247.85,-179"/>
<polygon fill="black" stroke="black" points="1247.85,-175.5 1237.85,-179 1247.85,-182.5 1247.85,-175.5"/>
</g>
<!-- CartsModule -->
<g id="node3" class="node">
<title>CartsModule</title>
<polygon fill="#8dd3c7" stroke="black" points="2102.6,-122 2099.6,-126 2078.6,-126 2075.6,-122 2013.4,-122 2013.4,-86 2102.6,-86 2102.6,-122"/>
<text text-anchor="middle" x="2058" y="-99.8" font-family="Times,serif" font-size="14.00">CartsModule</text>
</g>
<!-- CartsModule&#45;&gt;AppModule -->
<g id="edge3" class="edge">
<title>CartsModule&#45;&gt;AppModule</title>
<path fill="none" stroke="black" d="M2058,-122.28C2058,-143.32 2058,-175 2058,-175 2058,-175 1247.87,-175 1247.87,-175"/>
<polygon fill="black" stroke="black" points="1247.87,-171.5 1237.87,-175 1247.87,-178.5 1247.87,-171.5"/>
</g>
<!-- CategoriesModule -->
<g id="node4" class="node">
<title>CategoriesModule</title>
<polygon fill="#8dd3c7" stroke="black" points="1995.92,-122 1992.92,-126 1971.92,-126 1968.92,-122 1876.08,-122 1876.08,-86 1995.92,-86 1995.92,-122"/>
<text text-anchor="middle" x="1936" y="-99.8" font-family="Times,serif" font-size="14.00">CategoriesModule</text>
</g>
<!-- CategoriesModule&#45;&gt;AppModule -->
<g id="edge4" class="edge">
<title>CategoriesModule&#45;&gt;AppModule</title>
<path fill="none" stroke="black" d="M1936,-122.31C1936,-142.15 1936,-171 1936,-171 1936,-171 1247.91,-171 1247.91,-171"/>
<polygon fill="black" stroke="black" points="1247.91,-167.5 1237.91,-171 1247.91,-174.5 1247.91,-167.5"/>
</g>
<!-- CloudinaryModule -->
<g id="node5" class="node">
<title>CloudinaryModule</title>
<polygon fill="#8dd3c7" stroke="black" points="1858.04,-122 1855.04,-126 1834.04,-126 1831.04,-122 1735.96,-122 1735.96,-86 1858.04,-86 1858.04,-122"/>
<text text-anchor="middle" x="1797" y="-99.8" font-family="Times,serif" font-size="14.00">CloudinaryModule</text>
</g>
<!-- CloudinaryModule&#45;&gt;AppModule -->
<g id="edge5" class="edge">
<title>CloudinaryModule&#45;&gt;AppModule</title>
<path fill="none" stroke="black" d="M1797,-122.22C1797,-140.83 1797,-167 1797,-167 1797,-167 1247.78,-167 1247.78,-167"/>
<polygon fill="black" stroke="black" points="1247.78,-163.5 1237.78,-167 1247.78,-170.5 1247.78,-163.5"/>
</g>
<!-- CustomersModule -->
<g id="node6" class="node">
<title>CustomersModule</title>
<polygon fill="#8dd3c7" stroke="black" points="1717.93,-122 1714.93,-126 1693.93,-126 1690.93,-122 1598.07,-122 1598.07,-86 1717.93,-86 1717.93,-122"/>
<text text-anchor="middle" x="1658" y="-99.8" font-family="Times,serif" font-size="14.00">CustomersModule</text>
</g>
<!-- CustomersModule&#45;&gt;AppModule -->
<g id="edge6" class="edge">
<title>CustomersModule&#45;&gt;AppModule</title>
<path fill="none" stroke="black" d="M1658,-122.02C1658,-139.37 1658,-163 1658,-163 1658,-163 1247.81,-163 1247.81,-163"/>
<polygon fill="black" stroke="black" points="1247.81,-159.5 1237.81,-163 1247.81,-166.5 1247.81,-159.5"/>
</g>
<!-- DashboardModule -->
<g id="node7" class="node">
<title>DashboardModule</title>
<polygon fill="#8dd3c7" stroke="black" points="1580.19,-122 1577.19,-126 1556.19,-126 1553.19,-122 1459.81,-122 1459.81,-86 1580.19,-86 1580.19,-122"/>
<text text-anchor="middle" x="1520" y="-99.8" font-family="Times,serif" font-size="14.00">DashboardModule</text>
</g>
<!-- DashboardModule&#45;&gt;AppModule -->
<g id="edge7" class="edge">
<title>DashboardModule&#45;&gt;AppModule</title>
<path fill="none" stroke="black" d="M1520,-122.01C1520,-138.05 1520,-159 1520,-159 1520,-159 1247.69,-159 1247.69,-159"/>
<polygon fill="black" stroke="black" points="1247.69,-155.5 1237.69,-159 1247.69,-162.5 1247.69,-155.5"/>
</g>
<!-- DatabaseModule -->
<g id="node8" class="node">
<title>DatabaseModule</title>
<polygon fill="#8dd3c7" stroke="black" points="1441.35,-122 1438.35,-126 1417.35,-126 1414.35,-122 1330.65,-122 1330.65,-86 1441.35,-86 1441.35,-122"/>
<text text-anchor="middle" x="1386" y="-99.8" font-family="Times,serif" font-size="14.00">DatabaseModule</text>
</g>
<!-- DatabaseModule&#45;&gt;AppModule -->
<g id="edge8" class="edge">
<title>DatabaseModule&#45;&gt;AppModule</title>
<path fill="none" stroke="black" d="M1386,-122.12C1386,-136.78 1386,-155 1386,-155 1386,-155 1247.7,-155 1247.7,-155"/>
<polygon fill="black" stroke="black" points="1247.7,-151.5 1237.7,-155 1247.7,-158.5 1247.7,-151.5"/>
</g>
<!-- IdentitiesModule -->
<g id="node9" class="node">
<title>IdentitiesModule</title>
<polygon fill="#8dd3c7" stroke="black" points="1312.65,-122 1309.65,-126 1288.65,-126 1285.65,-122 1201.35,-122 1201.35,-86 1312.65,-86 1312.65,-122"/>
<text text-anchor="middle" x="1257" y="-99.8" font-family="Times,serif" font-size="14.00">IdentitiesModule</text>
</g>
<!-- IdentitiesModule&#45;&gt;AppModule -->
<g id="edge9" class="edge">
<title>IdentitiesModule&#45;&gt;AppModule</title>
<path fill="none" stroke="black" d="M1219.5,-122.11C1219.5,-122.11 1219.5,-140.99 1219.5,-140.99"/>
<polygon fill="black" stroke="black" points="1216,-140.99 1219.5,-150.99 1223,-140.99 1216,-140.99"/>
</g>
<!-- MediaModule -->
<g id="node10" class="node">
<title>MediaModule</title>
<polygon fill="#8dd3c7" stroke="black" points="1183.81,-122 1180.81,-126 1159.81,-126 1156.81,-122 1088.19,-122 1088.19,-86 1183.81,-86 1183.81,-122"/>
<text text-anchor="middle" x="1136" y="-99.8" font-family="Times,serif" font-size="14.00">MediaModule</text>
</g>
<!-- MediaModule&#45;&gt;AppModule -->
<g id="edge10" class="edge">
<title>MediaModule&#45;&gt;AppModule</title>
<path fill="none" stroke="black" d="M1168.91,-122.11C1168.91,-122.11 1168.91,-140.99 1168.91,-140.99"/>
<polygon fill="black" stroke="black" points="1165.41,-140.99 1168.91,-150.99 1172.41,-140.99 1165.41,-140.99"/>
</g>
<!-- OrdersModule -->
<g id="node11" class="node">
<title>OrdersModule</title>
<polygon fill="#8dd3c7" stroke="black" points="1070.64,-122 1067.64,-126 1046.64,-126 1043.64,-122 973.36,-122 973.36,-86 1070.64,-86 1070.64,-122"/>
<text text-anchor="middle" x="1022" y="-99.8" font-family="Times,serif" font-size="14.00">OrdersModule</text>
</g>
<!-- OrdersModule&#45;&gt;AppModule -->
<g id="edge11" class="edge">
<title>OrdersModule&#45;&gt;AppModule</title>
<path fill="none" stroke="black" d="M1022,-122.12C1022,-136.78 1022,-155 1022,-155 1022,-155 1144.32,-155 1144.32,-155"/>
<polygon fill="black" stroke="black" points="1144.32,-158.5 1154.32,-155 1144.32,-151.5 1144.32,-158.5"/>
</g>
<!-- PaymentModule -->
<g id="node12" class="node">
<title>PaymentModule</title>
<polygon fill="#8dd3c7" stroke="black" points="955.04,-122 952.04,-126 931.04,-126 928.04,-122 846.96,-122 846.96,-86 955.04,-86 955.04,-122"/>
<text text-anchor="middle" x="901" y="-99.8" font-family="Times,serif" font-size="14.00">PaymentModule</text>
</g>
<!-- PaymentModule&#45;&gt;AppModule -->
<g id="edge12" class="edge">
<title>PaymentModule&#45;&gt;AppModule</title>
<path fill="none" stroke="black" d="M901,-122.01C901,-138.05 901,-159 901,-159 901,-159 1144.05,-159 1144.05,-159"/>
<polygon fill="black" stroke="black" points="1144.05,-162.5 1154.05,-159 1144.05,-155.5 1144.05,-162.5"/>
</g>
<!-- ProductsModule -->
<g id="node13" class="node">
<title>ProductsModule</title>
<polygon fill="#8dd3c7" stroke="black" points="828.04,-122 825.04,-126 804.04,-126 801.04,-122 719.96,-122 719.96,-86 828.04,-86 828.04,-122"/>
<text text-anchor="middle" x="774" y="-99.8" font-family="Times,serif" font-size="14.00">ProductsModule</text>
</g>
<!-- ProductsModule&#45;&gt;AppModule -->
<g id="edge13" class="edge">
<title>ProductsModule&#45;&gt;AppModule</title>
<path fill="none" stroke="black" d="M774,-122.02C774,-139.37 774,-163 774,-163 774,-163 1143.99,-163 1143.99,-163"/>
<polygon fill="black" stroke="black" points="1143.99,-166.5 1153.99,-163 1143.99,-159.5 1143.99,-166.5"/>
</g>
<!-- SeedsModule -->
<g id="node14" class="node">
<title>SeedsModule</title>
<polygon fill="#8dd3c7" stroke="black" points="702.21,-122 699.21,-126 678.21,-126 675.21,-122 609.79,-122 609.79,-86 702.21,-86 702.21,-122"/>
<text text-anchor="middle" x="656" y="-99.8" font-family="Times,serif" font-size="14.00">SeedsModule</text>
</g>
<!-- SeedsModule&#45;&gt;AppModule -->
<g id="edge14" class="edge">
<title>SeedsModule&#45;&gt;AppModule</title>
<path fill="none" stroke="black" d="M656,-122.22C656,-140.83 656,-167 656,-167 656,-167 1144.08,-167 1144.08,-167"/>
<polygon fill="black" stroke="black" points="1144.08,-170.5 1154.08,-167 1144.08,-163.5 1144.08,-170.5"/>
</g>
<!-- StorageModule -->
<g id="node15" class="node">
<title>StorageModule</title>
<polygon fill="#8dd3c7" stroke="black" points="592.31,-122 589.31,-126 568.31,-126 565.31,-122 489.69,-122 489.69,-86 592.31,-86 592.31,-122"/>
<text text-anchor="middle" x="541" y="-99.8" font-family="Times,serif" font-size="14.00">StorageModule</text>
</g>
<!-- StorageModule&#45;&gt;AppModule -->
<g id="edge15" class="edge">
<title>StorageModule&#45;&gt;AppModule</title>
<path fill="none" stroke="black" d="M541,-122.31C541,-142.15 541,-171 541,-171 541,-171 1144.03,-171 1144.03,-171"/>
<polygon fill="black" stroke="black" points="1144.03,-174.5 1154.03,-171 1144.03,-167.5 1144.03,-174.5"/>
</g>
<!-- StorefrontConfigurationsModule -->
<g id="node16" class="node">
<title>StorefrontConfigurationsModule</title>
<polygon fill="#8dd3c7" stroke="black" points="472.3,-122 469.3,-126 448.3,-126 445.3,-122 271.7,-122 271.7,-86 472.3,-86 472.3,-122"/>
<text text-anchor="middle" x="372" y="-99.8" font-family="Times,serif" font-size="14.00">StorefrontConfigurationsModule</text>
</g>
<!-- StorefrontConfigurationsModule&#45;&gt;AppModule -->
<g id="edge16" class="edge">
<title>StorefrontConfigurationsModule&#45;&gt;AppModule</title>
<path fill="none" stroke="black" d="M372,-122.28C372,-143.32 372,-175 372,-175 372,-175 1144.29,-175 1144.29,-175"/>
<polygon fill="black" stroke="black" points="1144.29,-178.5 1154.29,-175 1144.29,-171.5 1144.29,-178.5"/>
</g>
<!-- UsersModule -->
<g id="node17" class="node">
<title>UsersModule</title>
<polygon fill="#8dd3c7" stroke="black" points="253.92,-122 250.92,-126 229.92,-126 226.92,-122 162.08,-122 162.08,-86 253.92,-86 253.92,-122"/>
<text text-anchor="middle" x="208" y="-99.8" font-family="Times,serif" font-size="14.00">UsersModule</text>
</g>
<!-- UsersModule&#45;&gt;AppModule -->
<g id="edge17" class="edge">
<title>UsersModule&#45;&gt;AppModule</title>
<path fill="none" stroke="black" d="M208,-122.16C208,-144.35 208,-179 208,-179 208,-179 1144.18,-179 1144.18,-179"/>
<polygon fill="black" stroke="black" points="1144.18,-182.5 1154.18,-179 1144.18,-175.5 1144.18,-182.5"/>
</g>
<!-- AppService -->
<g id="node19" class="node">
<title>AppService</title>
<ellipse fill="#fdb462" stroke="black" cx="81" cy="-104" rx="56.74" ry="18"/>
<text text-anchor="middle" x="81" y="-99.8" font-family="Times,serif" font-size="14.00">AppService</text>
</g>
<!-- AppService&#45;&gt;AppModule -->
<g id="edge18" class="edge">
<title>AppService&#45;&gt;AppModule</title>
<path fill="none" stroke="black" d="M81,-122.32C81,-145.66 81,-183 81,-183 81,-183 1144.33,-183 1144.33,-183"/>
<polygon fill="black" stroke="black" points="1144.33,-186.5 1154.33,-183 1144.33,-179.5 1144.33,-186.5"/>
</g>
</g>
</svg>
