<?xml version="1.0" encoding="UTF-8" standalone="no"?>
<!DOCTYPE svg PUBLIC "-//W3C//DTD SVG 1.1//EN"
 "http://www.w3.org/Graphics/SVG/1.1/DTD/svg11.dtd">
<!-- Generated by graphviz version 2.47.0 (20210316.0004)
 -->
<!-- Title: dependencies Pages: 1 -->
<svg width="731pt" height="211pt"
 viewBox="0.00 0.00 731.00 211.00" xmlns="http://www.w3.org/2000/svg" xmlns:xlink="http://www.w3.org/1999/xlink">
<g id="graph0" class="graph" transform="scale(1 1) rotate(0) translate(4 207)">
<title>dependencies</title>
<polygon fill="white" stroke="transparent" points="-4,4 -4,-207 727,-207 727,4 -4,4"/>
<text text-anchor="start" x="340.51" y="-42.4" font-family="Times-12" font-weight="bold" font-size="14.00">Legend</text>
<polygon fill="#ffffb3" stroke="transparent" points="127.5,-10 127.5,-30 147.5,-30 147.5,-10 127.5,-10"/>
<text text-anchor="start" x="151.13" y="-15.4" font-family="Times-12" font-size="14.00"> &#160;Declarations</text>
<polygon fill="#8dd3c7" stroke="transparent" points="240.5,-10 240.5,-30 260.5,-30 260.5,-10 240.5,-10"/>
<text text-anchor="start" x="264.23" y="-15.4" font-family="Times-12" font-size="14.00"> &#160;Module</text>
<polygon fill="#80b1d3" stroke="transparent" points="326.5,-10 326.5,-30 346.5,-30 346.5,-10 326.5,-10"/>
<text text-anchor="start" x="350.28" y="-15.4" font-family="Times-12" font-size="14.00"> &#160;Bootstrap</text>
<polygon fill="#fdb462" stroke="transparent" points="423.5,-10 423.5,-30 443.5,-30 443.5,-10 423.5,-10"/>
<text text-anchor="start" x="447.17" y="-15.4" font-family="Times-12" font-size="14.00"> &#160;Providers</text>
<polygon fill="#fb8072" stroke="transparent" points="519.5,-10 519.5,-30 539.5,-30 539.5,-10 519.5,-10"/>
<text text-anchor="start" x="543.23" y="-15.4" font-family="Times-12" font-size="14.00"> &#160;Exports</text>
<g id="clust1" class="cluster">
<title>cluster_SeedsModule</title>
<polygon fill="none" stroke="black" stroke-dasharray="1,5" points="8,-70 8,-195 715,-195 715,-70 8,-70"/>
</g>
<g id="clust3" class="cluster">
<title>cluster_SeedsModule_imports</title>
<polygon fill="none" stroke="black" points="577,-78 577,-130 707,-130 707,-78 577,-78"/>
</g>
<g id="clust6" class="cluster">
<title>cluster_SeedsModule_providers</title>
<polygon fill="none" stroke="black" points="16,-78 16,-130 569,-130 569,-78 16,-78"/>
</g>
<!-- PasswordModule -->
<g id="node1" class="node">
<title>PasswordModule</title>
<polygon fill="#8dd3c7" stroke="black" points="698.7,-122 695.7,-126 674.7,-126 671.7,-122 585.3,-122 585.3,-86 698.7,-86 698.7,-122"/>
<text text-anchor="middle" x="642" y="-99.8" font-family="Times,serif" font-size="14.00">PasswordModule</text>
</g>
<!-- SeedsModule -->
<g id="node2" class="node">
<title>SeedsModule</title>
<polygon fill="#8dd3c7" stroke="black" points="424.21,-187 421.21,-191 400.21,-191 397.21,-187 331.79,-187 331.79,-151 424.21,-151 424.21,-187"/>
<text text-anchor="middle" x="378" y="-164.8" font-family="Times,serif" font-size="14.00">SeedsModule</text>
</g>
<!-- PasswordModule&#45;&gt;SeedsModule -->
<g id="edge1" class="edge">
<title>PasswordModule&#45;&gt;SeedsModule</title>
<path fill="none" stroke="black" d="M642,-122.11C642,-141.34 642,-169 642,-169 642,-169 434.29,-169 434.29,-169"/>
<polygon fill="black" stroke="black" points="434.29,-165.5 424.29,-169 434.29,-172.5 434.29,-165.5"/>
</g>
<!-- SeedRolesRunner -->
<g id="node3" class="node">
<title>SeedRolesRunner</title>
<ellipse fill="#fdb462" stroke="black" cx="481" cy="-104" rx="80.46" ry="18"/>
<text text-anchor="middle" x="481" y="-99.8" font-family="Times,serif" font-size="14.00">SeedRolesRunner</text>
</g>
<!-- SeedRolesRunner&#45;&gt;SeedsModule -->
<g id="edge2" class="edge">
<title>SeedRolesRunner&#45;&gt;SeedsModule</title>
<path fill="none" stroke="black" d="M412.44,-113.59C412.44,-113.59 412.44,-140.75 412.44,-140.75"/>
<polygon fill="black" stroke="black" points="408.94,-140.75 412.44,-150.75 415.94,-140.75 408.94,-140.75"/>
</g>
<!-- SeedSuperAdminRunner -->
<g id="node4" class="node">
<title>SeedSuperAdminRunner</title>
<ellipse fill="#fdb462" stroke="black" cx="275" cy="-104" rx="107.67" ry="18"/>
<text text-anchor="middle" x="275" y="-99.8" font-family="Times,serif" font-size="14.00">SeedSuperAdminRunner</text>
</g>
<!-- SeedSuperAdminRunner&#45;&gt;SeedsModule -->
<g id="edge3" class="edge">
<title>SeedSuperAdminRunner&#45;&gt;SeedsModule</title>
<path fill="none" stroke="black" d="M357.24,-115.62C357.24,-115.62 357.24,-140.85 357.24,-140.85"/>
<polygon fill="black" stroke="black" points="353.74,-140.85 357.24,-150.85 360.74,-140.85 353.74,-140.85"/>
</g>
<!-- SeedsService -->
<g id="node5" class="node">
<title>SeedsService</title>
<ellipse fill="#fdb462" stroke="black" cx="87" cy="-104" rx="62.54" ry="18"/>
<text text-anchor="middle" x="87" y="-99.8" font-family="Times,serif" font-size="14.00">SeedsService</text>
</g>
<!-- SeedsService&#45;&gt;SeedsModule -->
<g id="edge4" class="edge">
<title>SeedsService&#45;&gt;SeedsModule</title>
<path fill="none" stroke="black" d="M87,-122.11C87,-141.34 87,-169 87,-169 87,-169 321.89,-169 321.89,-169"/>
<polygon fill="black" stroke="black" points="321.89,-172.5 331.89,-169 321.89,-165.5 321.89,-172.5"/>
</g>
</g>
</svg>
