<?xml version="1.0" encoding="UTF-8" standalone="no"?>
<!DOCTYPE svg PUBLIC "-//W3C//DTD SVG 1.1//EN"
 "http://www.w3.org/Graphics/SVG/1.1/DTD/svg11.dtd">
<!-- Generated by graphviz version 2.47.0 (20210316.0004)
 -->
<!-- Title: dependencies Pages: 1 -->
<svg width="1202pt" height="211pt"
 viewBox="0.00 0.00 1202.00 211.00" xmlns="http://www.w3.org/2000/svg" xmlns:xlink="http://www.w3.org/1999/xlink">
<g id="graph0" class="graph" transform="scale(1 1) rotate(0) translate(4 207)">
<title>dependencies</title>
<polygon fill="white" stroke="transparent" points="-4,4 -4,-207 1198,-207 1198,4 -4,4"/>
<text text-anchor="start" x="576.01" y="-42.4" font-family="Times-12" font-weight="bold" font-size="14.00">Legend</text>
<polygon fill="#ffffb3" stroke="transparent" points="363,-10 363,-30 383,-30 383,-10 363,-10"/>
<text text-anchor="start" x="386.63" y="-15.4" font-family="Times-12" font-size="14.00"> &#160;Declarations</text>
<polygon fill="#8dd3c7" stroke="transparent" points="476,-10 476,-30 496,-30 496,-10 476,-10"/>
<text text-anchor="start" x="499.73" y="-15.4" font-family="Times-12" font-size="14.00"> &#160;Module</text>
<polygon fill="#80b1d3" stroke="transparent" points="562,-10 562,-30 582,-30 582,-10 562,-10"/>
<text text-anchor="start" x="585.78" y="-15.4" font-family="Times-12" font-size="14.00"> &#160;Bootstrap</text>
<polygon fill="#fdb462" stroke="transparent" points="659,-10 659,-30 679,-30 679,-10 659,-10"/>
<text text-anchor="start" x="682.67" y="-15.4" font-family="Times-12" font-size="14.00"> &#160;Providers</text>
<polygon fill="#fb8072" stroke="transparent" points="755,-10 755,-30 775,-30 775,-10 755,-10"/>
<text text-anchor="start" x="778.73" y="-15.4" font-family="Times-12" font-size="14.00"> &#160;Exports</text>
<g id="clust1" class="cluster">
<title>cluster_SeedsModule</title>
<polygon fill="none" stroke="black" stroke-dasharray="1,5" points="8,-70 8,-195 1186,-195 1186,-70 8,-70"/>
</g>
<g id="clust6" class="cluster">
<title>cluster_SeedsModule_providers</title>
<polygon fill="none" stroke="black" points="16,-78 16,-130 1178,-130 1178,-78 16,-78"/>
</g>
<!-- SeedBrandsRunner -->
<g id="node1" class="node">
<title>SeedBrandsRunner</title>
<ellipse fill="#fdb462" stroke="black" cx="1084" cy="-104" rx="85.68" ry="18"/>
<text text-anchor="middle" x="1084" y="-99.8" font-family="Times,serif" font-size="14.00">SeedBrandsRunner</text>
</g>
<!-- SeedsModule -->
<g id="node7" class="node">
<title>SeedsModule</title>
<polygon fill="#8dd3c7" stroke="black" points="622.21,-187 619.21,-191 598.21,-191 595.21,-187 529.79,-187 529.79,-151 622.21,-151 622.21,-187"/>
<text text-anchor="middle" x="576" y="-164.8" font-family="Times,serif" font-size="14.00">SeedsModule</text>
</g>
<!-- SeedBrandsRunner&#45;&gt;SeedsModule -->
<g id="edge1" class="edge">
<title>SeedBrandsRunner&#45;&gt;SeedsModule</title>
<path fill="none" stroke="black" d="M1084,-122.28C1084,-143.32 1084,-175 1084,-175 1084,-175 632.43,-175 632.43,-175"/>
<polygon fill="black" stroke="black" points="632.43,-171.5 622.43,-175 632.43,-178.5 632.43,-171.5"/>
</g>
<!-- SeedCategoriesRunner -->
<g id="node2" class="node">
<title>SeedCategoriesRunner</title>
<ellipse fill="#fdb462" stroke="black" cx="881" cy="-104" rx="99.56" ry="18"/>
<text text-anchor="middle" x="881" y="-99.8" font-family="Times,serif" font-size="14.00">SeedCategoriesRunner</text>
</g>
<!-- SeedCategoriesRunner&#45;&gt;SeedsModule -->
<g id="edge2" class="edge">
<title>SeedCategoriesRunner&#45;&gt;SeedsModule</title>
<path fill="none" stroke="black" d="M881,-122.02C881,-139.37 881,-163 881,-163 881,-163 632.32,-163 632.32,-163"/>
<polygon fill="black" stroke="black" points="632.32,-159.5 622.32,-163 632.32,-166.5 632.32,-159.5"/>
</g>
<!-- SeedProductsRunner -->
<g id="node3" class="node">
<title>SeedProductsRunner</title>
<ellipse fill="#fdb462" stroke="black" cx="671" cy="-104" rx="92.06" ry="18"/>
<text text-anchor="middle" x="671" y="-99.8" font-family="Times,serif" font-size="14.00">SeedProductsRunner</text>
</g>
<!-- SeedProductsRunner&#45;&gt;SeedsModule -->
<g id="edge3" class="edge">
<title>SeedProductsRunner&#45;&gt;SeedsModule</title>
<path fill="none" stroke="black" d="M600.54,-115.62C600.54,-115.62 600.54,-140.85 600.54,-140.85"/>
<polygon fill="black" stroke="black" points="597.04,-140.85 600.54,-150.85 604.04,-140.85 597.04,-140.85"/>
</g>
<!-- SeedRolesRunner -->
<g id="node4" class="node">
<title>SeedRolesRunner</title>
<ellipse fill="#fdb462" stroke="black" cx="481" cy="-104" rx="80.46" ry="18"/>
<text text-anchor="middle" x="481" y="-99.8" font-family="Times,serif" font-size="14.00">SeedRolesRunner</text>
</g>
<!-- SeedRolesRunner&#45;&gt;SeedsModule -->
<g id="edge4" class="edge">
<title>SeedRolesRunner&#45;&gt;SeedsModule</title>
<path fill="none" stroke="black" d="M545.56,-114.73C545.56,-114.73 545.56,-140.87 545.56,-140.87"/>
<polygon fill="black" stroke="black" points="542.06,-140.87 545.56,-150.87 549.06,-140.87 542.06,-140.87"/>
</g>
<!-- SeedSuperAdminRunner -->
<g id="node5" class="node">
<title>SeedSuperAdminRunner</title>
<ellipse fill="#fdb462" stroke="black" cx="275" cy="-104" rx="107.67" ry="18"/>
<text text-anchor="middle" x="275" y="-99.8" font-family="Times,serif" font-size="14.00">SeedSuperAdminRunner</text>
</g>
<!-- SeedSuperAdminRunner&#45;&gt;SeedsModule -->
<g id="edge5" class="edge">
<title>SeedSuperAdminRunner&#45;&gt;SeedsModule</title>
<path fill="none" stroke="black" d="M275,-122.02C275,-139.37 275,-163 275,-163 275,-163 519.63,-163 519.63,-163"/>
<polygon fill="black" stroke="black" points="519.63,-166.5 529.63,-163 519.63,-159.5 519.63,-166.5"/>
</g>
<!-- SeedsService -->
<g id="node6" class="node">
<title>SeedsService</title>
<ellipse fill="#fdb462" stroke="black" cx="87" cy="-104" rx="62.54" ry="18"/>
<text text-anchor="middle" x="87" y="-99.8" font-family="Times,serif" font-size="14.00">SeedsService</text>
</g>
<!-- SeedsService&#45;&gt;SeedsModule -->
<g id="edge6" class="edge">
<title>SeedsService&#45;&gt;SeedsModule</title>
<path fill="none" stroke="black" d="M87,-122.28C87,-143.32 87,-175 87,-175 87,-175 519.56,-175 519.56,-175"/>
<polygon fill="black" stroke="black" points="519.56,-178.5 529.56,-175 519.56,-171.5 519.56,-178.5"/>
</g>
</g>
</svg>
