<?xml version="1.0" encoding="UTF-8" standalone="no"?>
<!DOCTYPE svg PUBLIC "-//W3C//DTD SVG 1.1//EN"
 "http://www.w3.org/Graphics/SVG/1.1/DTD/svg11.dtd">
<!-- Generated by graphviz version 2.47.0 (20210316.0004)
 -->
<!-- Title: dependencies Pages: 1 -->
<svg width="4187pt" height="284pt"
 viewBox="0.00 0.00 4187.00 284.00" xmlns="http://www.w3.org/2000/svg" xmlns:xlink="http://www.w3.org/1999/xlink">
<g id="graph0" class="graph" transform="scale(1 1) rotate(0) translate(4 280)">
<title>dependencies</title>
<polygon fill="white" stroke="transparent" points="-4,4 -4,-280 4183,-280 4183,4 -4,4"/>
<text text-anchor="start" x="2068.51" y="-42.4" font-family="Times-12" font-weight="bold" font-size="14.00">Legend</text>
<polygon fill="#ffffb3" stroke="transparent" points="1855.5,-10 1855.5,-30 1875.5,-30 1875.5,-10 1855.5,-10"/>
<text text-anchor="start" x="1879.13" y="-15.4" font-family="Times-12" font-size="14.00"> &#160;Declarations</text>
<polygon fill="#8dd3c7" stroke="transparent" points="1968.5,-10 1968.5,-30 1988.5,-30 1988.5,-10 1968.5,-10"/>
<text text-anchor="start" x="1992.23" y="-15.4" font-family="Times-12" font-size="14.00"> &#160;Module</text>
<polygon fill="#80b1d3" stroke="transparent" points="2054.5,-10 2054.5,-30 2074.5,-30 2074.5,-10 2054.5,-10"/>
<text text-anchor="start" x="2078.28" y="-15.4" font-family="Times-12" font-size="14.00"> &#160;Bootstrap</text>
<polygon fill="#fdb462" stroke="transparent" points="2151.5,-10 2151.5,-30 2171.5,-30 2171.5,-10 2151.5,-10"/>
<text text-anchor="start" x="2175.17" y="-15.4" font-family="Times-12" font-size="14.00"> &#160;Providers</text>
<polygon fill="#fb8072" stroke="transparent" points="2247.5,-10 2247.5,-30 2267.5,-30 2267.5,-10 2247.5,-10"/>
<text text-anchor="start" x="2271.23" y="-15.4" font-family="Times-12" font-size="14.00"> &#160;Exports</text>
<g id="clust1" class="cluster">
<title>cluster_ProductsModule</title>
<polygon fill="none" stroke="black" stroke-dasharray="1,5" points="8,-70 8,-268 4171,-268 4171,-70 8,-70"/>
</g>
<g id="clust4" class="cluster">
<title>cluster_ProductsModule_exports</title>
<polygon fill="none" stroke="black" points="1494,-208 1494,-260 1869,-260 1869,-208 1494,-208"/>
</g>
<g id="clust6" class="cluster">
<title>cluster_ProductsModule_providers</title>
<polygon fill="none" stroke="black" points="510,-78 510,-130 4163,-130 4163,-78 510,-78"/>
</g>
<g id="clust3" class="cluster">
<title>cluster_ProductsModule_imports</title>
<polygon fill="none" stroke="black" points="16,-78 16,-130 502,-130 502,-78 16,-78"/>
</g>
<!-- BrandsModule -->
<g id="node1" class="node">
<title>BrandsModule</title>
<polygon fill="#8dd3c7" stroke="black" points="493.71,-122 490.71,-126 469.71,-126 466.71,-122 394.29,-122 394.29,-86 493.71,-86 493.71,-122"/>
<text text-anchor="middle" x="444" y="-99.8" font-family="Times,serif" font-size="14.00">BrandsModule</text>
</g>
<!-- ProductsModule -->
<g id="node5" class="node">
<title>ProductsModule</title>
<polygon fill="#8dd3c7" stroke="black" points="1725.04,-187 1722.04,-191 1701.04,-191 1698.04,-187 1616.96,-187 1616.96,-151 1725.04,-151 1725.04,-187"/>
<text text-anchor="middle" x="1671" y="-164.8" font-family="Times,serif" font-size="14.00">ProductsModule</text>
</g>
<!-- BrandsModule&#45;&gt;ProductsModule -->
<g id="edge1" class="edge">
<title>BrandsModule&#45;&gt;ProductsModule</title>
<path fill="none" stroke="black" d="M444,-122.31C444,-142.15 444,-171 444,-171 444,-171 1606.69,-171 1606.69,-171"/>
<polygon fill="black" stroke="black" points="1606.69,-174.5 1616.69,-171 1606.69,-167.5 1606.69,-174.5"/>
</g>
<!-- CategoriesModule -->
<g id="node2" class="node">
<title>CategoriesModule</title>
<polygon fill="#8dd3c7" stroke="black" points="376.92,-122 373.92,-126 352.92,-126 349.92,-122 257.08,-122 257.08,-86 376.92,-86 376.92,-122"/>
<text text-anchor="middle" x="317" y="-99.8" font-family="Times,serif" font-size="14.00">CategoriesModule</text>
</g>
<!-- CategoriesModule&#45;&gt;ProductsModule -->
<g id="edge2" class="edge">
<title>CategoriesModule&#45;&gt;ProductsModule</title>
<path fill="none" stroke="black" d="M317,-122.28C317,-143.32 317,-175 317,-175 317,-175 1606.67,-175 1606.67,-175"/>
<polygon fill="black" stroke="black" points="1606.67,-178.5 1616.67,-175 1606.67,-171.5 1606.67,-178.5"/>
</g>
<!-- MediaModule -->
<g id="node3" class="node">
<title>MediaModule</title>
<polygon fill="#8dd3c7" stroke="black" points="239.81,-122 236.81,-126 215.81,-126 212.81,-122 144.19,-122 144.19,-86 239.81,-86 239.81,-122"/>
<text text-anchor="middle" x="192" y="-99.8" font-family="Times,serif" font-size="14.00">MediaModule</text>
</g>
<!-- MediaModule&#45;&gt;ProductsModule -->
<g id="edge3" class="edge">
<title>MediaModule&#45;&gt;ProductsModule</title>
<path fill="none" stroke="black" d="M192,-122.16C192,-144.35 192,-179 192,-179 192,-179 1606.61,-179 1606.61,-179"/>
<polygon fill="black" stroke="black" points="1606.61,-182.5 1616.61,-179 1606.61,-175.5 1606.61,-182.5"/>
</g>
<!-- StorageModule -->
<g id="node4" class="node">
<title>StorageModule</title>
<polygon fill="#8dd3c7" stroke="black" points="126.31,-122 123.31,-126 102.31,-126 99.31,-122 23.69,-122 23.69,-86 126.31,-86 126.31,-122"/>
<text text-anchor="middle" x="75" y="-99.8" font-family="Times,serif" font-size="14.00">StorageModule</text>
</g>
<!-- StorageModule&#45;&gt;ProductsModule -->
<g id="edge4" class="edge">
<title>StorageModule&#45;&gt;ProductsModule</title>
<path fill="none" stroke="black" d="M75,-122.32C75,-145.66 75,-183 75,-183 75,-183 1606.52,-183 1606.52,-183"/>
<polygon fill="black" stroke="black" points="1606.52,-186.5 1616.52,-183 1606.52,-179.5 1606.52,-186.5"/>
</g>
<!-- AdminProductVariantsService  -->
<g id="node6" class="node">
<title>AdminProductVariantsService </title>
<polygon fill="#fb8072" stroke="black" points="1860.84,-252 1669.16,-252 1669.16,-216 1860.84,-216 1860.84,-252"/>
<text text-anchor="middle" x="1765" y="-229.8" font-family="Times,serif" font-size="14.00">AdminProductVariantsService </text>
</g>
<!-- ProductsModule&#45;&gt;AdminProductVariantsService  -->
<g id="edge5" class="edge">
<title>ProductsModule&#45;&gt;AdminProductVariantsService </title>
<path fill="none" stroke="black" stroke-dasharray="5,2" d="M1697.3,-187.11C1697.3,-187.11 1697.3,-205.99 1697.3,-205.99"/>
<polygon fill="black" stroke="black" points="1693.8,-205.99 1697.3,-215.99 1700.8,-205.99 1693.8,-205.99"/>
</g>
<!-- AdminProductsService  -->
<g id="node7" class="node">
<title>AdminProductsService </title>
<polygon fill="#fb8072" stroke="black" points="1651.86,-252 1502.14,-252 1502.14,-216 1651.86,-216 1651.86,-252"/>
<text text-anchor="middle" x="1577" y="-229.8" font-family="Times,serif" font-size="14.00">AdminProductsService </text>
</g>
<!-- ProductsModule&#45;&gt;AdminProductsService  -->
<g id="edge6" class="edge">
<title>ProductsModule&#45;&gt;AdminProductsService </title>
<path fill="none" stroke="black" stroke-dasharray="5,2" d="M1634.2,-187.11C1634.2,-187.11 1634.2,-205.99 1634.2,-205.99"/>
<polygon fill="black" stroke="black" points="1630.7,-205.99 1634.2,-215.99 1637.7,-205.99 1630.7,-205.99"/>
</g>
<!-- AdminProductAttributesService -->
<g id="node8" class="node">
<title>AdminProductAttributesService</title>
<ellipse fill="#fdb462" stroke="black" cx="4020" cy="-104" rx="135.45" ry="18"/>
<text text-anchor="middle" x="4020" y="-99.8" font-family="Times,serif" font-size="14.00">AdminProductAttributesService</text>
</g>
<!-- AdminProductAttributesService&#45;&gt;ProductsModule -->
<g id="edge7" class="edge">
<title>AdminProductAttributesService&#45;&gt;ProductsModule</title>
<path fill="none" stroke="black" d="M4020,-122.32C4020,-145.66 4020,-183 4020,-183 4020,-183 1735.32,-183 1735.32,-183"/>
<polygon fill="black" stroke="black" points="1735.32,-179.5 1725.32,-183 1735.32,-186.5 1735.32,-179.5"/>
</g>
<!-- AdminProductCategoriesService -->
<g id="node9" class="node">
<title>AdminProductCategoriesService</title>
<ellipse fill="#fdb462" stroke="black" cx="3728" cy="-104" rx="138.3" ry="18"/>
<text text-anchor="middle" x="3728" y="-99.8" font-family="Times,serif" font-size="14.00">AdminProductCategoriesService</text>
</g>
<!-- AdminProductCategoriesService&#45;&gt;ProductsModule -->
<g id="edge8" class="edge">
<title>AdminProductCategoriesService&#45;&gt;ProductsModule</title>
<path fill="none" stroke="black" d="M3728,-122.16C3728,-144.35 3728,-179 3728,-179 3728,-179 1735.23,-179 1735.23,-179"/>
<polygon fill="black" stroke="black" points="1735.23,-175.5 1725.23,-179 1735.23,-182.5 1735.23,-175.5"/>
</g>
<!-- AdminProductImageUploadService -->
<g id="node10" class="node">
<title>AdminProductImageUploadService</title>
<ellipse fill="#fdb462" stroke="black" cx="3422" cy="-104" rx="149.32" ry="18"/>
<text text-anchor="middle" x="3422" y="-99.8" font-family="Times,serif" font-size="14.00">AdminProductImageUploadService</text>
</g>
<!-- AdminProductImageUploadService&#45;&gt;ProductsModule -->
<g id="edge9" class="edge">
<title>AdminProductImageUploadService&#45;&gt;ProductsModule</title>
<path fill="none" stroke="black" d="M3422,-122.28C3422,-143.32 3422,-175 3422,-175 3422,-175 1735.32,-175 1735.32,-175"/>
<polygon fill="black" stroke="black" points="1735.32,-171.5 1725.32,-175 1735.32,-178.5 1735.32,-171.5"/>
</g>
<!-- AdminProductImagesService -->
<g id="node11" class="node">
<title>AdminProductImagesService</title>
<ellipse fill="#fdb462" stroke="black" cx="3130" cy="-104" rx="124.98" ry="18"/>
<text text-anchor="middle" x="3130" y="-99.8" font-family="Times,serif" font-size="14.00">AdminProductImagesService</text>
</g>
<!-- AdminProductImagesService&#45;&gt;ProductsModule -->
<g id="edge10" class="edge">
<title>AdminProductImagesService&#45;&gt;ProductsModule</title>
<path fill="none" stroke="black" d="M3130,-122.31C3130,-142.15 3130,-171 3130,-171 3130,-171 1735.09,-171 1735.09,-171"/>
<polygon fill="black" stroke="black" points="1735.09,-167.5 1725.09,-171 1735.09,-174.5 1735.09,-167.5"/>
</g>
<!-- AdminProductValidatorsService -->
<g id="node12" class="node">
<title>AdminProductValidatorsService</title>
<ellipse fill="#fdb462" stroke="black" cx="2850" cy="-104" rx="137.16" ry="18"/>
<text text-anchor="middle" x="2850" y="-99.8" font-family="Times,serif" font-size="14.00">AdminProductValidatorsService</text>
</g>
<!-- AdminProductValidatorsService&#45;&gt;ProductsModule -->
<g id="edge11" class="edge">
<title>AdminProductValidatorsService&#45;&gt;ProductsModule</title>
<path fill="none" stroke="black" d="M2850,-122.22C2850,-140.83 2850,-167 2850,-167 2850,-167 1735.11,-167 1735.11,-167"/>
<polygon fill="black" stroke="black" points="1735.11,-163.5 1725.11,-167 1735.11,-170.5 1735.11,-163.5"/>
</g>
<!-- AdminProductVariantsService -->
<g id="node13" class="node">
<title>AdminProductVariantsService</title>
<ellipse fill="#fdb462" stroke="black" cx="2565" cy="-104" rx="129.63" ry="18"/>
<text text-anchor="middle" x="2565" y="-99.8" font-family="Times,serif" font-size="14.00">AdminProductVariantsService</text>
</g>
<!-- AdminProductVariantsService&#45;&gt;ProductsModule -->
<g id="edge12" class="edge">
<title>AdminProductVariantsService&#45;&gt;ProductsModule</title>
<path fill="none" stroke="black" d="M2565,-122.02C2565,-139.37 2565,-163 2565,-163 2565,-163 1735.24,-163 1735.24,-163"/>
<polygon fill="black" stroke="black" points="1735.24,-159.5 1725.24,-163 1735.24,-166.5 1735.24,-159.5"/>
</g>
<!-- AdminProductsService -->
<g id="node14" class="node">
<title>AdminProductsService</title>
<ellipse fill="#fdb462" stroke="black" cx="2317" cy="-104" rx="100.72" ry="18"/>
<text text-anchor="middle" x="2317" y="-99.8" font-family="Times,serif" font-size="14.00">AdminProductsService</text>
</g>
<!-- AdminProductsService&#45;&gt;ProductsModule -->
<g id="edge13" class="edge">
<title>AdminProductsService&#45;&gt;ProductsModule</title>
<path fill="none" stroke="black" d="M2317,-122.01C2317,-138.05 2317,-159 2317,-159 2317,-159 1735.24,-159 1735.24,-159"/>
<polygon fill="black" stroke="black" points="1735.24,-155.5 1725.24,-159 1735.24,-162.5 1735.24,-155.5"/>
</g>
<!-- AdminVariantAttributesService -->
<g id="node15" class="node">
<title>AdminVariantAttributesService</title>
<ellipse fill="#fdb462" stroke="black" cx="2064" cy="-104" rx="134.28" ry="18"/>
<text text-anchor="middle" x="2064" y="-99.8" font-family="Times,serif" font-size="14.00">AdminVariantAttributesService</text>
</g>
<!-- AdminVariantAttributesService&#45;&gt;ProductsModule -->
<g id="edge14" class="edge">
<title>AdminVariantAttributesService&#45;&gt;ProductsModule</title>
<path fill="none" stroke="black" d="M2064,-122.12C2064,-136.78 2064,-155 2064,-155 2064,-155 1735.23,-155 1735.23,-155"/>
<polygon fill="black" stroke="black" points="1735.23,-151.5 1725.23,-155 1735.23,-158.5 1735.23,-151.5"/>
</g>
<!-- ProductAttributeRepository -->
<g id="node16" class="node">
<title>ProductAttributeRepository</title>
<ellipse fill="#fdb462" stroke="black" cx="1793" cy="-104" rx="118.14" ry="18"/>
<text text-anchor="middle" x="1793" y="-99.8" font-family="Times,serif" font-size="14.00">ProductAttributeRepository</text>
</g>
<!-- ProductAttributeRepository&#45;&gt;ProductsModule -->
<g id="edge15" class="edge">
<title>ProductAttributeRepository&#45;&gt;ProductsModule</title>
<path fill="none" stroke="black" d="M1699.98,-115.32C1699.98,-115.32 1699.98,-140.94 1699.98,-140.94"/>
<polygon fill="black" stroke="black" points="1696.48,-140.94 1699.98,-150.94 1703.48,-140.94 1696.48,-140.94"/>
</g>
<!-- ProductImageRepository -->
<g id="node17" class="node">
<title>ProductImageRepository</title>
<ellipse fill="#fdb462" stroke="black" cx="1549" cy="-104" rx="107.67" ry="18"/>
<text text-anchor="middle" x="1549" y="-99.8" font-family="Times,serif" font-size="14.00">ProductImageRepository</text>
</g>
<!-- ProductImageRepository&#45;&gt;ProductsModule -->
<g id="edge16" class="edge">
<title>ProductImageRepository&#45;&gt;ProductsModule</title>
<path fill="none" stroke="black" d="M1636.66,-114.44C1636.66,-114.44 1636.66,-140.97 1636.66,-140.97"/>
<polygon fill="black" stroke="black" points="1633.16,-140.97 1636.66,-150.97 1640.16,-140.97 1633.16,-140.97"/>
</g>
<!-- ProductRepository -->
<g id="node18" class="node">
<title>ProductRepository</title>
<ellipse fill="#fdb462" stroke="black" cx="1340" cy="-104" rx="83.41" ry="18"/>
<text text-anchor="middle" x="1340" y="-99.8" font-family="Times,serif" font-size="14.00">ProductRepository</text>
</g>
<!-- ProductRepository&#45;&gt;ProductsModule -->
<g id="edge17" class="edge">
<title>ProductRepository&#45;&gt;ProductsModule</title>
<path fill="none" stroke="black" d="M1340,-122.12C1340,-136.78 1340,-155 1340,-155 1340,-155 1606.71,-155 1606.71,-155"/>
<polygon fill="black" stroke="black" points="1606.71,-158.5 1616.71,-155 1606.71,-151.5 1606.71,-158.5"/>
</g>
<!-- ProductVariantRepository -->
<g id="node19" class="node">
<title>ProductVariantRepository</title>
<ellipse fill="#fdb462" stroke="black" cx="1126" cy="-104" rx="112.32" ry="18"/>
<text text-anchor="middle" x="1126" y="-99.8" font-family="Times,serif" font-size="14.00">ProductVariantRepository</text>
</g>
<!-- ProductVariantRepository&#45;&gt;ProductsModule -->
<g id="edge18" class="edge">
<title>ProductVariantRepository&#45;&gt;ProductsModule</title>
<path fill="none" stroke="black" d="M1126,-122.01C1126,-138.05 1126,-159 1126,-159 1126,-159 1606.75,-159 1606.75,-159"/>
<polygon fill="black" stroke="black" points="1606.75,-162.5 1616.75,-159 1606.75,-155.5 1606.75,-162.5"/>
</g>
<!-- StorefrontProductsService -->
<g id="node20" class="node">
<title>StorefrontProductsService</title>
<ellipse fill="#fdb462" stroke="black" cx="883" cy="-104" rx="112.88" ry="18"/>
<text text-anchor="middle" x="883" y="-99.8" font-family="Times,serif" font-size="14.00">StorefrontProductsService</text>
</g>
<!-- StorefrontProductsService&#45;&gt;ProductsModule -->
<g id="edge19" class="edge">
<title>StorefrontProductsService&#45;&gt;ProductsModule</title>
<path fill="none" stroke="black" d="M883,-122.02C883,-139.37 883,-163 883,-163 883,-163 1606.84,-163 1606.84,-163"/>
<polygon fill="black" stroke="black" points="1606.84,-166.5 1616.84,-163 1606.84,-159.5 1606.84,-166.5"/>
</g>
<!-- VariantAttributeRepository -->
<g id="node21" class="node">
<title>VariantAttributeRepository</title>
<ellipse fill="#fdb462" stroke="black" cx="635" cy="-104" rx="117.47" ry="18"/>
<text text-anchor="middle" x="635" y="-99.8" font-family="Times,serif" font-size="14.00">VariantAttributeRepository</text>
</g>
<!-- VariantAttributeRepository&#45;&gt;ProductsModule -->
<g id="edge20" class="edge">
<title>VariantAttributeRepository&#45;&gt;ProductsModule</title>
<path fill="none" stroke="black" d="M635,-122.22C635,-140.83 635,-167 635,-167 635,-167 1606.76,-167 1606.76,-167"/>
<polygon fill="black" stroke="black" points="1606.76,-170.5 1616.76,-167 1606.76,-163.5 1606.76,-170.5"/>
</g>
</g>
</svg>
