<?xml version="1.0" encoding="UTF-8" standalone="no"?>
<!DOCTYPE svg PUBLIC "-//W3C//DTD SVG 1.1//EN"
 "http://www.w3.org/Graphics/SVG/1.1/DTD/svg11.dtd">
<!-- Generated by graphviz version 2.47.0 (20210316.0004)
 -->
<!-- Title: dependencies Pages: 1 -->
<svg width="1499pt" height="211pt"
 viewBox="0.00 0.00 1499.00 211.00" xmlns="http://www.w3.org/2000/svg" xmlns:xlink="http://www.w3.org/1999/xlink">
<g id="graph0" class="graph" transform="scale(1 1) rotate(0) translate(4 207)">
<title>dependencies</title>
<polygon fill="white" stroke="transparent" points="-4,4 -4,-207 1495,-207 1495,4 -4,4"/>
<text text-anchor="start" x="724.51" y="-42.4" font-family="Times-12" font-weight="bold" font-size="14.00">Legend</text>
<polygon fill="#ffffb3" stroke="transparent" points="511.5,-10 511.5,-30 531.5,-30 531.5,-10 511.5,-10"/>
<text text-anchor="start" x="535.13" y="-15.4" font-family="Times-12" font-size="14.00"> &#160;Declarations</text>
<polygon fill="#8dd3c7" stroke="transparent" points="624.5,-10 624.5,-30 644.5,-30 644.5,-10 624.5,-10"/>
<text text-anchor="start" x="648.23" y="-15.4" font-family="Times-12" font-size="14.00"> &#160;Module</text>
<polygon fill="#80b1d3" stroke="transparent" points="710.5,-10 710.5,-30 730.5,-30 730.5,-10 710.5,-10"/>
<text text-anchor="start" x="734.28" y="-15.4" font-family="Times-12" font-size="14.00"> &#160;Bootstrap</text>
<polygon fill="#fdb462" stroke="transparent" points="807.5,-10 807.5,-30 827.5,-30 827.5,-10 807.5,-10"/>
<text text-anchor="start" x="831.17" y="-15.4" font-family="Times-12" font-size="14.00"> &#160;Providers</text>
<polygon fill="#fb8072" stroke="transparent" points="903.5,-10 903.5,-30 923.5,-30 923.5,-10 903.5,-10"/>
<text text-anchor="start" x="927.23" y="-15.4" font-family="Times-12" font-size="14.00"> &#160;Exports</text>
<g id="clust1" class="cluster">
<title>cluster_StorefrontConfigurationsModule</title>
<polygon fill="none" stroke="black" stroke-dasharray="1,5" points="8,-70 8,-195 1483,-195 1483,-70 8,-70"/>
</g>
<g id="clust3" class="cluster">
<title>cluster_StorefrontConfigurationsModule_imports</title>
<polygon fill="none" stroke="black" points="1106,-78 1106,-130 1475,-130 1475,-78 1106,-78"/>
</g>
<g id="clust6" class="cluster">
<title>cluster_StorefrontConfigurationsModule_providers</title>
<polygon fill="none" stroke="black" points="16,-78 16,-130 1098,-130 1098,-78 16,-78"/>
</g>
<!-- CategoriesModule -->
<g id="node1" class="node">
<title>CategoriesModule</title>
<polygon fill="#8dd3c7" stroke="black" points="1466.92,-122 1463.92,-126 1442.92,-126 1439.92,-122 1347.08,-122 1347.08,-86 1466.92,-86 1466.92,-122"/>
<text text-anchor="middle" x="1407" y="-99.8" font-family="Times,serif" font-size="14.00">CategoriesModule</text>
</g>
<!-- StorefrontConfigurationsModule -->
<g id="node4" class="node">
<title>StorefrontConfigurationsModule</title>
<polygon fill="#8dd3c7" stroke="black" points="1043.3,-187 1040.3,-191 1019.3,-191 1016.3,-187 842.7,-187 842.7,-151 1043.3,-151 1043.3,-187"/>
<text text-anchor="middle" x="943" y="-164.8" font-family="Times,serif" font-size="14.00">StorefrontConfigurationsModule</text>
</g>
<!-- CategoriesModule&#45;&gt;StorefrontConfigurationsModule -->
<g id="edge1" class="edge">
<title>CategoriesModule&#45;&gt;StorefrontConfigurationsModule</title>
<path fill="none" stroke="black" d="M1407,-122.29C1407,-144.21 1407,-178 1407,-178 1407,-178 1053.4,-178 1053.4,-178"/>
<polygon fill="black" stroke="black" points="1053.4,-174.5 1043.4,-178 1053.4,-181.5 1053.4,-174.5"/>
</g>
<!-- MediaModule -->
<g id="node2" class="node">
<title>MediaModule</title>
<polygon fill="#8dd3c7" stroke="black" points="1329.81,-122 1326.81,-126 1305.81,-126 1302.81,-122 1234.19,-122 1234.19,-86 1329.81,-86 1329.81,-122"/>
<text text-anchor="middle" x="1282" y="-99.8" font-family="Times,serif" font-size="14.00">MediaModule</text>
</g>
<!-- MediaModule&#45;&gt;StorefrontConfigurationsModule -->
<g id="edge2" class="edge">
<title>MediaModule&#45;&gt;StorefrontConfigurationsModule</title>
<path fill="none" stroke="black" d="M1282,-122.11C1282,-141.34 1282,-169 1282,-169 1282,-169 1053.34,-169 1053.34,-169"/>
<polygon fill="black" stroke="black" points="1053.34,-165.5 1043.34,-169 1053.34,-172.5 1053.34,-165.5"/>
</g>
<!-- StorageModule -->
<g id="node3" class="node">
<title>StorageModule</title>
<polygon fill="#8dd3c7" stroke="black" points="1216.31,-122 1213.31,-126 1192.31,-126 1189.31,-122 1113.69,-122 1113.69,-86 1216.31,-86 1216.31,-122"/>
<text text-anchor="middle" x="1165" y="-99.8" font-family="Times,serif" font-size="14.00">StorageModule</text>
</g>
<!-- StorageModule&#45;&gt;StorefrontConfigurationsModule -->
<g id="edge3" class="edge">
<title>StorageModule&#45;&gt;StorefrontConfigurationsModule</title>
<path fill="none" stroke="black" d="M1165,-122.03C1165,-138.4 1165,-160 1165,-160 1165,-160 1053.28,-160 1053.28,-160"/>
<polygon fill="black" stroke="black" points="1053.28,-156.5 1043.28,-160 1053.28,-163.5 1053.28,-156.5"/>
</g>
<!-- StorefrontConfigurationRepository -->
<g id="node5" class="node">
<title>StorefrontConfigurationRepository</title>
<ellipse fill="#fdb462" stroke="black" cx="943" cy="-104" rx="146.99" ry="18"/>
<text text-anchor="middle" x="943" y="-99.8" font-family="Times,serif" font-size="14.00">StorefrontConfigurationRepository</text>
</g>
<!-- StorefrontConfigurationRepository&#45;&gt;StorefrontConfigurationsModule -->
<g id="edge4" class="edge">
<title>StorefrontConfigurationRepository&#45;&gt;StorefrontConfigurationsModule</title>
<path fill="none" stroke="black" d="M943,-122.11C943,-122.11 943,-140.99 943,-140.99"/>
<polygon fill="black" stroke="black" points="939.5,-140.99 943,-150.99 946.5,-140.99 939.5,-140.99"/>
</g>
<!-- StorefrontConfigurationsService -->
<g id="node6" class="node">
<title>StorefrontConfigurationsService</title>
<ellipse fill="#fdb462" stroke="black" cx="641" cy="-104" rx="137.16" ry="18"/>
<text text-anchor="middle" x="641" y="-99.8" font-family="Times,serif" font-size="14.00">StorefrontConfigurationsService</text>
</g>
<!-- StorefrontConfigurationsService&#45;&gt;StorefrontConfigurationsModule -->
<g id="edge5" class="edge">
<title>StorefrontConfigurationsService&#45;&gt;StorefrontConfigurationsModule</title>
<path fill="none" stroke="black" d="M641,-122.03C641,-138.4 641,-160 641,-160 641,-160 832.44,-160 832.44,-160"/>
<polygon fill="black" stroke="black" points="832.44,-163.5 842.44,-160 832.44,-156.5 832.44,-163.5"/>
</g>
<!-- StorefrontSliderRepository -->
<g id="node7" class="node">
<title>StorefrontSliderRepository</title>
<ellipse fill="#fdb462" stroke="black" cx="370" cy="-104" rx="115.77" ry="18"/>
<text text-anchor="middle" x="370" y="-99.8" font-family="Times,serif" font-size="14.00">StorefrontSliderRepository</text>
</g>
<!-- StorefrontSliderRepository&#45;&gt;StorefrontConfigurationsModule -->
<g id="edge6" class="edge">
<title>StorefrontSliderRepository&#45;&gt;StorefrontConfigurationsModule</title>
<path fill="none" stroke="black" d="M370,-122.11C370,-141.34 370,-169 370,-169 370,-169 832.54,-169 832.54,-169"/>
<polygon fill="black" stroke="black" points="832.54,-172.5 842.54,-169 832.54,-165.5 832.54,-172.5"/>
</g>
<!-- StorefrontSlidersService -->
<g id="node8" class="node">
<title>StorefrontSlidersService</title>
<ellipse fill="#fdb462" stroke="black" cx="130" cy="-104" rx="105.93" ry="18"/>
<text text-anchor="middle" x="130" y="-99.8" font-family="Times,serif" font-size="14.00">StorefrontSlidersService</text>
</g>
<!-- StorefrontSlidersService&#45;&gt;StorefrontConfigurationsModule -->
<g id="edge7" class="edge">
<title>StorefrontSlidersService&#45;&gt;StorefrontConfigurationsModule</title>
<path fill="none" stroke="black" d="M130,-122.29C130,-144.21 130,-178 130,-178 130,-178 832.49,-178 832.49,-178"/>
<polygon fill="black" stroke="black" points="832.49,-181.5 842.49,-178 832.49,-174.5 832.49,-181.5"/>
</g>
</g>
</svg>
