<?xml version="1.0" encoding="UTF-8" standalone="no"?>
<!DOCTYPE svg PUBLIC "-//W3C//DTD SVG 1.1//EN"
 "http://www.w3.org/Graphics/SVG/1.1/DTD/svg11.dtd">
<!-- Generated by graphviz version 2.47.0 (20210316.0004)
 -->
<!-- Title: dependencies Pages: 1 -->
<svg width="504pt" height="284pt"
 viewBox="0.00 0.00 504.00 284.00" xmlns="http://www.w3.org/2000/svg" xmlns:xlink="http://www.w3.org/1999/xlink">
<g id="graph0" class="graph" transform="scale(1 1) rotate(0) translate(4 280)">
<title>dependencies</title>
<polygon fill="white" stroke="transparent" points="-4,4 -4,-280 500,-280 500,4 -4,4"/>
<text text-anchor="start" x="227.01" y="-42.4" font-family="Times-12" font-weight="bold" font-size="14.00">Legend</text>
<polygon fill="#ffffb3" stroke="transparent" points="14,-10 14,-30 34,-30 34,-10 14,-10"/>
<text text-anchor="start" x="37.63" y="-15.4" font-family="Times-12" font-size="14.00"> &#160;Declarations</text>
<polygon fill="#8dd3c7" stroke="transparent" points="127,-10 127,-30 147,-30 147,-10 127,-10"/>
<text text-anchor="start" x="150.73" y="-15.4" font-family="Times-12" font-size="14.00"> &#160;Module</text>
<polygon fill="#80b1d3" stroke="transparent" points="213,-10 213,-30 233,-30 233,-10 213,-10"/>
<text text-anchor="start" x="236.78" y="-15.4" font-family="Times-12" font-size="14.00"> &#160;Bootstrap</text>
<polygon fill="#fdb462" stroke="transparent" points="310,-10 310,-30 330,-30 330,-10 310,-10"/>
<text text-anchor="start" x="333.67" y="-15.4" font-family="Times-12" font-size="14.00"> &#160;Providers</text>
<polygon fill="#fb8072" stroke="transparent" points="406,-10 406,-30 426,-30 426,-10 406,-10"/>
<text text-anchor="start" x="429.73" y="-15.4" font-family="Times-12" font-size="14.00"> &#160;Exports</text>
<g id="clust1" class="cluster">
<title>cluster_ProductVariantsModule</title>
<polygon fill="none" stroke="black" stroke-dasharray="1,5" points="12.5,-70 12.5,-268 483.5,-268 483.5,-70 12.5,-70"/>
</g>
<g id="clust4" class="cluster">
<title>cluster_ProductVariantsModule_exports</title>
<polygon fill="none" stroke="black" points="166.5,-208 166.5,-260 334.5,-260 334.5,-208 166.5,-208"/>
</g>
<g id="clust6" class="cluster">
<title>cluster_ProductVariantsModule_providers</title>
<polygon fill="none" stroke="black" points="20.5,-78 20.5,-130 475.5,-130 475.5,-78 20.5,-78"/>
</g>
<!-- ProductVariantsService  -->
<g id="node1" class="node">
<title>ProductVariantsService </title>
<polygon fill="#fb8072" stroke="black" points="326.95,-252 174.05,-252 174.05,-216 326.95,-216 326.95,-252"/>
<text text-anchor="middle" x="250.5" y="-229.8" font-family="Times,serif" font-size="14.00">ProductVariantsService </text>
</g>
<!-- ProductVariantsModule -->
<g id="node2" class="node">
<title>ProductVariantsModule</title>
<polygon fill="#8dd3c7" stroke="black" points="325.52,-187 322.52,-191 301.52,-191 298.52,-187 175.48,-187 175.48,-151 325.52,-151 325.52,-187"/>
<text text-anchor="middle" x="250.5" y="-164.8" font-family="Times,serif" font-size="14.00">ProductVariantsModule</text>
</g>
<!-- ProductVariantsModule&#45;&gt;ProductVariantsService  -->
<g id="edge1" class="edge">
<title>ProductVariantsModule&#45;&gt;ProductVariantsService </title>
<path fill="none" stroke="black" stroke-dasharray="5,2" d="M250.5,-187.11C250.5,-187.11 250.5,-205.99 250.5,-205.99"/>
<polygon fill="black" stroke="black" points="247,-205.99 250.5,-215.99 254,-205.99 247,-205.99"/>
</g>
<!-- ProductVariantsService -->
<g id="node3" class="node">
<title>ProductVariantsService</title>
<ellipse fill="#fdb462" stroke="black" cx="364.5" cy="-104" rx="102.98" ry="18"/>
<text text-anchor="middle" x="364.5" y="-99.8" font-family="Times,serif" font-size="14.00">ProductVariantsService</text>
</g>
<!-- ProductVariantsService&#45;&gt;ProductVariantsModule -->
<g id="edge2" class="edge">
<title>ProductVariantsService&#45;&gt;ProductVariantsModule</title>
<path fill="none" stroke="black" d="M293.76,-117.15C293.76,-117.15 293.76,-140.69 293.76,-140.69"/>
<polygon fill="black" stroke="black" points="290.26,-140.69 293.76,-150.69 297.26,-140.69 290.26,-140.69"/>
</g>
<!-- VariantAttributesService -->
<g id="node4" class="node">
<title>VariantAttributesService</title>
<ellipse fill="#fdb462" stroke="black" cx="136.5" cy="-104" rx="107.63" ry="18"/>
<text text-anchor="middle" x="136.5" y="-99.8" font-family="Times,serif" font-size="14.00">VariantAttributesService</text>
</g>
<!-- VariantAttributesService&#45;&gt;ProductVariantsModule -->
<g id="edge3" class="edge">
<title>VariantAttributesService&#45;&gt;ProductVariantsModule</title>
<path fill="none" stroke="black" d="M209.65,-117.47C209.65,-117.47 209.65,-140.86 209.65,-140.86"/>
<polygon fill="black" stroke="black" points="206.15,-140.86 209.65,-150.86 213.15,-140.86 206.15,-140.86"/>
</g>
</g>
</svg>
