<?xml version="1.0" encoding="UTF-8" standalone="no"?>
<!DOCTYPE svg PUBLIC "-//W3C//DTD SVG 1.1//EN"
 "http://www.w3.org/Graphics/SVG/1.1/DTD/svg11.dtd">
<!-- Generated by graphviz version 2.47.0 (20210316.0004)
 -->
<!-- Title: dependencies Pages: 1 -->
<svg width="782pt" height="211pt"
 viewBox="0.00 0.00 782.00 211.00" xmlns="http://www.w3.org/2000/svg" xmlns:xlink="http://www.w3.org/1999/xlink">
<g id="graph0" class="graph" transform="scale(1 1) rotate(0) translate(4 207)">
<title>dependencies</title>
<polygon fill="white" stroke="transparent" points="-4,4 -4,-207 778,-207 778,4 -4,4"/>
<text text-anchor="start" x="366.01" y="-42.4" font-family="Times-12" font-weight="bold" font-size="14.00">Legend</text>
<polygon fill="#ffffb3" stroke="transparent" points="153,-10 153,-30 173,-30 173,-10 153,-10"/>
<text text-anchor="start" x="176.63" y="-15.4" font-family="Times-12" font-size="14.00"> &#160;Declarations</text>
<polygon fill="#8dd3c7" stroke="transparent" points="266,-10 266,-30 286,-30 286,-10 266,-10"/>
<text text-anchor="start" x="289.73" y="-15.4" font-family="Times-12" font-size="14.00"> &#160;Module</text>
<polygon fill="#80b1d3" stroke="transparent" points="352,-10 352,-30 372,-30 372,-10 352,-10"/>
<text text-anchor="start" x="375.78" y="-15.4" font-family="Times-12" font-size="14.00"> &#160;Bootstrap</text>
<polygon fill="#fdb462" stroke="transparent" points="449,-10 449,-30 469,-30 469,-10 449,-10"/>
<text text-anchor="start" x="472.67" y="-15.4" font-family="Times-12" font-size="14.00"> &#160;Providers</text>
<polygon fill="#fb8072" stroke="transparent" points="545,-10 545,-30 565,-30 565,-10 545,-10"/>
<text text-anchor="start" x="568.73" y="-15.4" font-family="Times-12" font-size="14.00"> &#160;Exports</text>
<g id="clust1" class="cluster">
<title>cluster_CartsModule</title>
<polygon fill="none" stroke="black" stroke-dasharray="1,5" points="8,-70 8,-195 766,-195 766,-70 8,-70"/>
</g>
<g id="clust3" class="cluster">
<title>cluster_CartsModule_imports</title>
<polygon fill="none" stroke="black" points="592,-78 592,-130 758,-130 758,-78 592,-78"/>
</g>
<g id="clust6" class="cluster">
<title>cluster_CartsModule_providers</title>
<polygon fill="none" stroke="black" points="16,-78 16,-130 584,-130 584,-78 16,-78"/>
</g>
<!-- ProductVariantsModule -->
<g id="node1" class="node">
<title>ProductVariantsModule</title>
<polygon fill="#8dd3c7" stroke="black" points="750.02,-122 747.02,-126 726.02,-126 723.02,-122 599.98,-122 599.98,-86 750.02,-86 750.02,-122"/>
<text text-anchor="middle" x="675" y="-99.8" font-family="Times,serif" font-size="14.00">ProductVariantsModule</text>
</g>
<!-- CartsModule -->
<g id="node2" class="node">
<title>CartsModule</title>
<polygon fill="#8dd3c7" stroke="black" points="444.6,-187 441.6,-191 420.6,-191 417.6,-187 355.4,-187 355.4,-151 444.6,-151 444.6,-187"/>
<text text-anchor="middle" x="400" y="-164.8" font-family="Times,serif" font-size="14.00">CartsModule</text>
</g>
<!-- ProductVariantsModule&#45;&gt;CartsModule -->
<g id="edge1" class="edge">
<title>ProductVariantsModule&#45;&gt;CartsModule</title>
<path fill="none" stroke="black" d="M675,-122.11C675,-141.34 675,-169 675,-169 675,-169 454.8,-169 454.8,-169"/>
<polygon fill="black" stroke="black" points="454.8,-165.5 444.8,-169 454.8,-172.5 454.8,-165.5"/>
</g>
<!-- CartItemRepository -->
<g id="node3" class="node">
<title>CartItemRepository</title>
<ellipse fill="#fdb462" stroke="black" cx="488" cy="-104" rx="87.98" ry="18"/>
<text text-anchor="middle" x="488" y="-99.8" font-family="Times,serif" font-size="14.00">CartItemRepository</text>
</g>
<!-- CartItemRepository&#45;&gt;CartsModule -->
<g id="edge2" class="edge">
<title>CartItemRepository&#45;&gt;CartsModule</title>
<path fill="none" stroke="black" d="M422.41,-116.23C422.41,-116.23 422.41,-140.68 422.41,-140.68"/>
<polygon fill="black" stroke="black" points="418.91,-140.68 422.41,-150.68 425.91,-140.68 418.91,-140.68"/>
</g>
<!-- CartRepository -->
<g id="node4" class="node">
<title>CartRepository</title>
<ellipse fill="#fdb462" stroke="black" cx="312" cy="-104" rx="70.08" ry="18"/>
<text text-anchor="middle" x="312" y="-99.8" font-family="Times,serif" font-size="14.00">CartRepository</text>
</g>
<!-- CartRepository&#45;&gt;CartsModule -->
<g id="edge3" class="edge">
<title>CartRepository&#45;&gt;CartsModule</title>
<path fill="none" stroke="black" d="M368.75,-114.73C368.75,-114.73 368.75,-140.87 368.75,-140.87"/>
<polygon fill="black" stroke="black" points="365.25,-140.87 368.75,-150.87 372.25,-140.87 365.25,-140.87"/>
</g>
<!-- StorefrontCartsService -->
<g id="node5" class="node">
<title>StorefrontCartsService</title>
<ellipse fill="#fdb462" stroke="black" cx="124" cy="-104" rx="99.55" ry="18"/>
<text text-anchor="middle" x="124" y="-99.8" font-family="Times,serif" font-size="14.00">StorefrontCartsService</text>
</g>
<!-- StorefrontCartsService&#45;&gt;CartsModule -->
<g id="edge4" class="edge">
<title>StorefrontCartsService&#45;&gt;CartsModule</title>
<path fill="none" stroke="black" d="M124,-122.11C124,-141.34 124,-169 124,-169 124,-169 345.35,-169 345.35,-169"/>
<polygon fill="black" stroke="black" points="345.35,-172.5 355.35,-169 345.35,-165.5 345.35,-172.5"/>
</g>
</g>
</svg>
