<?xml version="1.0" encoding="UTF-8" standalone="no"?>
<!DOCTYPE svg PUBLIC "-//W3C//DTD SVG 1.1//EN"
 "http://www.w3.org/Graphics/SVG/1.1/DTD/svg11.dtd">
<!-- Generated by graphviz version 2.47.0 (20210316.0004)
 -->
<!-- Title: dependencies Pages: 1 -->
<svg width="932pt" height="284pt"
 viewBox="0.00 0.00 932.00 284.00" xmlns="http://www.w3.org/2000/svg" xmlns:xlink="http://www.w3.org/1999/xlink">
<g id="graph0" class="graph" transform="scale(1 1) rotate(0) translate(4 280)">
<title>dependencies</title>
<polygon fill="white" stroke="transparent" points="-4,4 -4,-280 928,-280 928,4 -4,4"/>
<text text-anchor="start" x="441.01" y="-42.4" font-family="Times-12" font-weight="bold" font-size="14.00">Legend</text>
<polygon fill="#ffffb3" stroke="transparent" points="228,-10 228,-30 248,-30 248,-10 228,-10"/>
<text text-anchor="start" x="251.63" y="-15.4" font-family="Times-12" font-size="14.00"> &#160;Declarations</text>
<polygon fill="#8dd3c7" stroke="transparent" points="341,-10 341,-30 361,-30 361,-10 341,-10"/>
<text text-anchor="start" x="364.73" y="-15.4" font-family="Times-12" font-size="14.00"> &#160;Module</text>
<polygon fill="#80b1d3" stroke="transparent" points="427,-10 427,-30 447,-30 447,-10 427,-10"/>
<text text-anchor="start" x="450.78" y="-15.4" font-family="Times-12" font-size="14.00"> &#160;Bootstrap</text>
<polygon fill="#fdb462" stroke="transparent" points="524,-10 524,-30 544,-30 544,-10 524,-10"/>
<text text-anchor="start" x="547.67" y="-15.4" font-family="Times-12" font-size="14.00"> &#160;Providers</text>
<polygon fill="#fb8072" stroke="transparent" points="620,-10 620,-30 640,-30 640,-10 620,-10"/>
<text text-anchor="start" x="643.73" y="-15.4" font-family="Times-12" font-size="14.00"> &#160;Exports</text>
<g id="clust1" class="cluster">
<title>cluster_CartsModule</title>
<polygon fill="none" stroke="black" stroke-dasharray="1,5" points="8,-70 8,-268 916,-268 916,-70 8,-70"/>
</g>
<g id="clust4" class="cluster">
<title>cluster_CartsModule_exports</title>
<polygon fill="none" stroke="black" points="415,-208 415,-260 561,-260 561,-208 415,-208"/>
</g>
<g id="clust3" class="cluster">
<title>cluster_CartsModule_imports</title>
<polygon fill="none" stroke="black" points="784,-78 784,-130 908,-130 908,-78 784,-78"/>
</g>
<g id="clust6" class="cluster">
<title>cluster_CartsModule_providers</title>
<polygon fill="none" stroke="black" points="16,-78 16,-130 776,-130 776,-78 16,-78"/>
</g>
<!-- ProductsModule -->
<g id="node1" class="node">
<title>ProductsModule</title>
<polygon fill="#8dd3c7" stroke="black" points="900.04,-122 897.04,-126 876.04,-126 873.04,-122 791.96,-122 791.96,-86 900.04,-86 900.04,-122"/>
<text text-anchor="middle" x="846" y="-99.8" font-family="Times,serif" font-size="14.00">ProductsModule</text>
</g>
<!-- CartsModule -->
<g id="node2" class="node">
<title>CartsModule</title>
<polygon fill="#8dd3c7" stroke="black" points="532.6,-187 529.6,-191 508.6,-191 505.6,-187 443.4,-187 443.4,-151 532.6,-151 532.6,-187"/>
<text text-anchor="middle" x="488" y="-164.8" font-family="Times,serif" font-size="14.00">CartsModule</text>
</g>
<!-- ProductsModule&#45;&gt;CartsModule -->
<g id="edge1" class="edge">
<title>ProductsModule&#45;&gt;CartsModule</title>
<path fill="none" stroke="black" d="M846,-122.28C846,-143.32 846,-175 846,-175 846,-175 542.62,-175 542.62,-175"/>
<polygon fill="black" stroke="black" points="542.62,-171.5 532.62,-175 542.62,-178.5 542.62,-171.5"/>
</g>
<!-- AdminCartsService  -->
<g id="node3" class="node">
<title>AdminCartsService </title>
<polygon fill="#fb8072" stroke="black" points="552.91,-252 423.09,-252 423.09,-216 552.91,-216 552.91,-252"/>
<text text-anchor="middle" x="488" y="-229.8" font-family="Times,serif" font-size="14.00">AdminCartsService </text>
</g>
<!-- CartsModule&#45;&gt;AdminCartsService  -->
<g id="edge2" class="edge">
<title>CartsModule&#45;&gt;AdminCartsService </title>
<path fill="none" stroke="black" stroke-dasharray="5,2" d="M488,-187.11C488,-187.11 488,-205.99 488,-205.99"/>
<polygon fill="black" stroke="black" points="484.5,-205.99 488,-215.99 491.5,-205.99 484.5,-205.99"/>
</g>
<!-- AdminCartsService -->
<g id="node4" class="node">
<title>AdminCartsService</title>
<ellipse fill="#fdb462" stroke="black" cx="681" cy="-104" rx="87.39" ry="18"/>
<text text-anchor="middle" x="681" y="-99.8" font-family="Times,serif" font-size="14.00">AdminCartsService</text>
</g>
<!-- AdminCartsService&#45;&gt;CartsModule -->
<g id="edge3" class="edge">
<title>AdminCartsService&#45;&gt;CartsModule</title>
<path fill="none" stroke="black" d="M681,-122.02C681,-139.37 681,-163 681,-163 681,-163 542.76,-163 542.76,-163"/>
<polygon fill="black" stroke="black" points="542.76,-159.5 532.76,-163 542.76,-166.5 542.76,-159.5"/>
</g>
<!-- CartItemRepository -->
<g id="node5" class="node">
<title>CartItemRepository</title>
<ellipse fill="#fdb462" stroke="black" cx="488" cy="-104" rx="87.98" ry="18"/>
<text text-anchor="middle" x="488" y="-99.8" font-family="Times,serif" font-size="14.00">CartItemRepository</text>
</g>
<!-- CartItemRepository&#45;&gt;CartsModule -->
<g id="edge4" class="edge">
<title>CartItemRepository&#45;&gt;CartsModule</title>
<path fill="none" stroke="black" d="M488,-122.11C488,-122.11 488,-140.99 488,-140.99"/>
<polygon fill="black" stroke="black" points="484.5,-140.99 488,-150.99 491.5,-140.99 484.5,-140.99"/>
</g>
<!-- CartRepository -->
<g id="node6" class="node">
<title>CartRepository</title>
<ellipse fill="#fdb462" stroke="black" cx="312" cy="-104" rx="70.08" ry="18"/>
<text text-anchor="middle" x="312" y="-99.8" font-family="Times,serif" font-size="14.00">CartRepository</text>
</g>
<!-- CartRepository&#45;&gt;CartsModule -->
<g id="edge5" class="edge">
<title>CartRepository&#45;&gt;CartsModule</title>
<path fill="none" stroke="black" d="M312,-122.02C312,-139.37 312,-163 312,-163 312,-163 433.13,-163 433.13,-163"/>
<polygon fill="black" stroke="black" points="433.13,-166.5 443.13,-163 433.13,-159.5 433.13,-166.5"/>
</g>
<!-- StorefrontCartsService -->
<g id="node7" class="node">
<title>StorefrontCartsService</title>
<ellipse fill="#fdb462" stroke="black" cx="124" cy="-104" rx="99.55" ry="18"/>
<text text-anchor="middle" x="124" y="-99.8" font-family="Times,serif" font-size="14.00">StorefrontCartsService</text>
</g>
<!-- StorefrontCartsService&#45;&gt;CartsModule -->
<g id="edge6" class="edge">
<title>StorefrontCartsService&#45;&gt;CartsModule</title>
<path fill="none" stroke="black" d="M124,-122.28C124,-143.32 124,-175 124,-175 124,-175 433.37,-175 433.37,-175"/>
<polygon fill="black" stroke="black" points="433.37,-178.5 443.37,-175 433.37,-171.5 433.37,-178.5"/>
</g>
</g>
</svg>
