<?xml version="1.0" encoding="UTF-8" standalone="no"?>
<!DOCTYPE svg PUBLIC "-//W3C//DTD SVG 1.1//EN"
 "http://www.w3.org/Graphics/SVG/1.1/DTD/svg11.dtd">
<!-- Generated by graphviz version 2.47.0 (20210316.0004)
 -->
<!-- Title: dependencies Pages: 1 -->
<svg width="1564pt" height="211pt"
 viewBox="0.00 0.00 1564.00 211.00" xmlns="http://www.w3.org/2000/svg" xmlns:xlink="http://www.w3.org/1999/xlink">
<g id="graph0" class="graph" transform="scale(1 1) rotate(0) translate(4 207)">
<title>dependencies</title>
<polygon fill="white" stroke="transparent" points="-4,4 -4,-207 1560,-207 1560,4 -4,4"/>
<text text-anchor="start" x="757.01" y="-42.4" font-family="Times-12" font-weight="bold" font-size="14.00">Legend</text>
<polygon fill="#ffffb3" stroke="transparent" points="544,-10 544,-30 564,-30 564,-10 544,-10"/>
<text text-anchor="start" x="567.63" y="-15.4" font-family="Times-12" font-size="14.00"> &#160;Declarations</text>
<polygon fill="#8dd3c7" stroke="transparent" points="657,-10 657,-30 677,-30 677,-10 657,-10"/>
<text text-anchor="start" x="680.73" y="-15.4" font-family="Times-12" font-size="14.00"> &#160;Module</text>
<polygon fill="#80b1d3" stroke="transparent" points="743,-10 743,-30 763,-30 763,-10 743,-10"/>
<text text-anchor="start" x="766.78" y="-15.4" font-family="Times-12" font-size="14.00"> &#160;Bootstrap</text>
<polygon fill="#fdb462" stroke="transparent" points="840,-10 840,-30 860,-30 860,-10 840,-10"/>
<text text-anchor="start" x="863.67" y="-15.4" font-family="Times-12" font-size="14.00"> &#160;Providers</text>
<polygon fill="#fb8072" stroke="transparent" points="936,-10 936,-30 956,-30 956,-10 936,-10"/>
<text text-anchor="start" x="959.73" y="-15.4" font-family="Times-12" font-size="14.00"> &#160;Exports</text>
<g id="clust1" class="cluster">
<title>cluster_AuthModule</title>
<polygon fill="none" stroke="black" stroke-dasharray="1,5" points="8,-70 8,-195 1548,-195 1548,-70 8,-70"/>
</g>
<g id="clust6" class="cluster">
<title>cluster_AuthModule_providers</title>
<polygon fill="none" stroke="black" points="530,-78 530,-130 1540,-130 1540,-78 530,-78"/>
</g>
<g id="clust3" class="cluster">
<title>cluster_AuthModule_imports</title>
<polygon fill="none" stroke="black" points="16,-78 16,-130 522,-130 522,-78 16,-78"/>
</g>
<!-- CustomersModule -->
<g id="node1" class="node">
<title>CustomersModule</title>
<polygon fill="#8dd3c7" stroke="black" points="513.93,-122 510.93,-126 489.93,-126 486.93,-122 394.07,-122 394.07,-86 513.93,-86 513.93,-122"/>
<text text-anchor="middle" x="454" y="-99.8" font-family="Times,serif" font-size="14.00">CustomersModule</text>
</g>
<!-- AuthModule -->
<g id="node5" class="node">
<title>AuthModule</title>
<polygon fill="#8dd3c7" stroke="black" points="786.55,-187 783.55,-191 762.55,-191 759.55,-187 699.45,-187 699.45,-151 786.55,-151 786.55,-187"/>
<text text-anchor="middle" x="743" y="-164.8" font-family="Times,serif" font-size="14.00">AuthModule</text>
</g>
<!-- CustomersModule&#45;&gt;AuthModule -->
<g id="edge1" class="edge">
<title>CustomersModule&#45;&gt;AuthModule</title>
<path fill="none" stroke="black" d="M454,-122.01C454,-138.05 454,-159 454,-159 454,-159 689.42,-159 689.42,-159"/>
<polygon fill="black" stroke="black" points="689.42,-162.5 699.42,-159 689.42,-155.5 689.42,-162.5"/>
</g>
<!-- IdentitiesModule -->
<g id="node2" class="node">
<title>IdentitiesModule</title>
<polygon fill="#8dd3c7" stroke="black" points="375.65,-122 372.65,-126 351.65,-126 348.65,-122 264.35,-122 264.35,-86 375.65,-86 375.65,-122"/>
<text text-anchor="middle" x="320" y="-99.8" font-family="Times,serif" font-size="14.00">IdentitiesModule</text>
</g>
<!-- IdentitiesModule&#45;&gt;AuthModule -->
<g id="edge2" class="edge">
<title>IdentitiesModule&#45;&gt;AuthModule</title>
<path fill="none" stroke="black" d="M320,-122.27C320,-140.56 320,-166 320,-166 320,-166 689.32,-166 689.32,-166"/>
<polygon fill="black" stroke="black" points="689.32,-169.5 699.32,-166 689.32,-162.5 689.32,-169.5"/>
</g>
<!-- PasswordModule -->
<g id="node3" class="node">
<title>PasswordModule</title>
<polygon fill="#8dd3c7" stroke="black" points="246.7,-122 243.7,-126 222.7,-126 219.7,-122 133.3,-122 133.3,-86 246.7,-86 246.7,-122"/>
<text text-anchor="middle" x="190" y="-99.8" font-family="Times,serif" font-size="14.00">PasswordModule</text>
</g>
<!-- PasswordModule&#45;&gt;AuthModule -->
<g id="edge3" class="edge">
<title>PasswordModule&#45;&gt;AuthModule</title>
<path fill="none" stroke="black" d="M190,-122.13C190,-142.57 190,-173 190,-173 190,-173 689.14,-173 689.14,-173"/>
<polygon fill="black" stroke="black" points="689.14,-176.5 699.14,-173 689.14,-169.5 689.14,-176.5"/>
</g>
<!-- UsersModule -->
<g id="node4" class="node">
<title>UsersModule</title>
<polygon fill="#8dd3c7" stroke="black" points="115.92,-122 112.92,-126 91.92,-126 88.92,-122 24.08,-122 24.08,-86 115.92,-86 115.92,-122"/>
<text text-anchor="middle" x="70" y="-99.8" font-family="Times,serif" font-size="14.00">UsersModule</text>
</g>
<!-- UsersModule&#45;&gt;AuthModule -->
<g id="edge4" class="edge">
<title>UsersModule&#45;&gt;AuthModule</title>
<path fill="none" stroke="black" d="M70,-122.01C70,-144.49 70,-180 70,-180 70,-180 689.36,-180 689.36,-180"/>
<polygon fill="black" stroke="black" points="689.36,-183.5 699.36,-180 689.36,-176.5 689.36,-183.5"/>
</g>
<!-- AuthService -->
<g id="node6" class="node">
<title>AuthService</title>
<ellipse fill="#fdb462" stroke="black" cx="1473" cy="-104" rx="59.11" ry="18"/>
<text text-anchor="middle" x="1473" y="-99.8" font-family="Times,serif" font-size="14.00">AuthService</text>
</g>
<!-- AuthService&#45;&gt;AuthModule -->
<g id="edge5" class="edge">
<title>AuthService&#45;&gt;AuthModule</title>
<path fill="none" stroke="black" d="M1473,-122.01C1473,-144.49 1473,-180 1473,-180 1473,-180 796.75,-180 796.75,-180"/>
<polygon fill="black" stroke="black" points="796.75,-176.5 786.75,-180 796.75,-183.5 796.75,-176.5"/>
</g>
<!-- JwtAuthGuard -->
<g id="node7" class="node">
<title>JwtAuthGuard</title>
<ellipse fill="#fdb462" stroke="black" cx="1328" cy="-104" rx="67.78" ry="18"/>
<text text-anchor="middle" x="1328" y="-99.8" font-family="Times,serif" font-size="14.00">JwtAuthGuard</text>
</g>
<!-- JwtAuthGuard&#45;&gt;AuthModule -->
<g id="edge6" class="edge">
<title>JwtAuthGuard&#45;&gt;AuthModule</title>
<path fill="none" stroke="black" d="M1328,-122.13C1328,-142.57 1328,-173 1328,-173 1328,-173 796.97,-173 796.97,-173"/>
<polygon fill="black" stroke="black" points="796.97,-169.5 786.97,-173 796.97,-176.5 796.97,-169.5"/>
</g>
<!-- JwtStrategy -->
<g id="node8" class="node">
<title>JwtStrategy</title>
<ellipse fill="#fdb462" stroke="black" cx="1185" cy="-104" rx="56.76" ry="18"/>
<text text-anchor="middle" x="1185" y="-99.8" font-family="Times,serif" font-size="14.00">JwtStrategy</text>
</g>
<!-- JwtStrategy&#45;&gt;AuthModule -->
<g id="edge7" class="edge">
<title>JwtStrategy&#45;&gt;AuthModule</title>
<path fill="none" stroke="black" d="M1185,-122.27C1185,-140.56 1185,-166 1185,-166 1185,-166 796.59,-166 796.59,-166"/>
<polygon fill="black" stroke="black" points="796.59,-162.5 786.59,-166 796.59,-169.5 796.59,-162.5"/>
</g>
<!-- LocalStrategy -->
<g id="node9" class="node">
<title>LocalStrategy</title>
<ellipse fill="#fdb462" stroke="black" cx="1045" cy="-104" rx="65.41" ry="18"/>
<text text-anchor="middle" x="1045" y="-99.8" font-family="Times,serif" font-size="14.00">LocalStrategy</text>
</g>
<!-- LocalStrategy&#45;&gt;AuthModule -->
<g id="edge8" class="edge">
<title>LocalStrategy&#45;&gt;AuthModule</title>
<path fill="none" stroke="black" d="M1045,-122.01C1045,-138.05 1045,-159 1045,-159 1045,-159 796.59,-159 796.59,-159"/>
<polygon fill="black" stroke="black" points="796.59,-155.5 786.59,-159 796.59,-162.5 796.59,-155.5"/>
</g>
<!-- RefreshTokenRepository -->
<g id="node10" class="node">
<title>RefreshTokenRepository</title>
<ellipse fill="#fdb462" stroke="black" cx="854" cy="-104" rx="108.23" ry="18"/>
<text text-anchor="middle" x="854" y="-99.8" font-family="Times,serif" font-size="14.00">RefreshTokenRepository</text>
</g>
<!-- RefreshTokenRepository&#45;&gt;AuthModule -->
<g id="edge9" class="edge">
<title>RefreshTokenRepository&#45;&gt;AuthModule</title>
<path fill="none" stroke="black" d="M766.33,-114.73C766.33,-114.73 766.33,-140.87 766.33,-140.87"/>
<polygon fill="black" stroke="black" points="762.83,-140.87 766.33,-150.87 769.83,-140.87 762.83,-140.87"/>
</g>
<!-- RefreshTokenService -->
<g id="node11" class="node">
<title>RefreshTokenService</title>
<ellipse fill="#fdb462" stroke="black" cx="633" cy="-104" rx="94.88" ry="18"/>
<text text-anchor="middle" x="633" y="-99.8" font-family="Times,serif" font-size="14.00">RefreshTokenService</text>
</g>
<!-- RefreshTokenService&#45;&gt;AuthModule -->
<g id="edge10" class="edge">
<title>RefreshTokenService&#45;&gt;AuthModule</title>
<path fill="none" stroke="black" d="M713.46,-113.59C713.46,-113.59 713.46,-140.75 713.46,-140.75"/>
<polygon fill="black" stroke="black" points="709.96,-140.75 713.46,-150.75 716.96,-140.75 709.96,-140.75"/>
</g>
</g>
</svg>
