<?xml version="1.0" encoding="UTF-8" standalone="no"?>
<!DOCTYPE svg PUBLIC "-//W3C//DTD SVG 1.1//EN"
 "http://www.w3.org/Graphics/SVG/1.1/DTD/svg11.dtd">
<!-- Generated by graphviz version 2.47.0 (20210316.0004)
 -->
<!-- Title: dependencies Pages: 1 -->
<svg width="1434pt" height="211pt"
 viewBox="0.00 0.00 1434.00 211.00" xmlns="http://www.w3.org/2000/svg" xmlns:xlink="http://www.w3.org/1999/xlink">
<g id="graph0" class="graph" transform="scale(1 1) rotate(0) translate(4 207)">
<title>dependencies</title>
<polygon fill="white" stroke="transparent" points="-4,4 -4,-207 1430,-207 1430,4 -4,4"/>
<text text-anchor="start" x="692.01" y="-42.4" font-family="Times-12" font-weight="bold" font-size="14.00">Legend</text>
<polygon fill="#ffffb3" stroke="transparent" points="479,-10 479,-30 499,-30 499,-10 479,-10"/>
<text text-anchor="start" x="502.63" y="-15.4" font-family="Times-12" font-size="14.00"> &#160;Declarations</text>
<polygon fill="#8dd3c7" stroke="transparent" points="592,-10 592,-30 612,-30 612,-10 592,-10"/>
<text text-anchor="start" x="615.73" y="-15.4" font-family="Times-12" font-size="14.00"> &#160;Module</text>
<polygon fill="#80b1d3" stroke="transparent" points="678,-10 678,-30 698,-30 698,-10 678,-10"/>
<text text-anchor="start" x="701.78" y="-15.4" font-family="Times-12" font-size="14.00"> &#160;Bootstrap</text>
<polygon fill="#fdb462" stroke="transparent" points="775,-10 775,-30 795,-30 795,-10 775,-10"/>
<text text-anchor="start" x="798.67" y="-15.4" font-family="Times-12" font-size="14.00"> &#160;Providers</text>
<polygon fill="#fb8072" stroke="transparent" points="871,-10 871,-30 891,-30 891,-10 871,-10"/>
<text text-anchor="start" x="894.73" y="-15.4" font-family="Times-12" font-size="14.00"> &#160;Exports</text>
<g id="clust1" class="cluster">
<title>cluster_AuthModule</title>
<polygon fill="none" stroke="black" stroke-dasharray="1,5" points="8,-70 8,-195 1418,-195 1418,-70 8,-70"/>
</g>
<g id="clust3" class="cluster">
<title>cluster_AuthModule_imports</title>
<polygon fill="none" stroke="black" points="1034,-78 1034,-130 1410,-130 1410,-78 1034,-78"/>
</g>
<g id="clust6" class="cluster">
<title>cluster_AuthModule_providers</title>
<polygon fill="none" stroke="black" points="16,-78 16,-130 1026,-130 1026,-78 16,-78"/>
</g>
<!-- CustomersModule -->
<g id="node1" class="node">
<title>CustomersModule</title>
<polygon fill="#8dd3c7" stroke="black" points="1401.93,-122 1398.93,-126 1377.93,-126 1374.93,-122 1282.07,-122 1282.07,-86 1401.93,-86 1401.93,-122"/>
<text text-anchor="middle" x="1342" y="-99.8" font-family="Times,serif" font-size="14.00">CustomersModule</text>
</g>
<!-- AuthModule -->
<g id="node4" class="node">
<title>AuthModule</title>
<polygon fill="#8dd3c7" stroke="black" points="857.55,-187 854.55,-191 833.55,-191 830.55,-187 770.45,-187 770.45,-151 857.55,-151 857.55,-187"/>
<text text-anchor="middle" x="814" y="-164.8" font-family="Times,serif" font-size="14.00">AuthModule</text>
</g>
<!-- CustomersModule&#45;&gt;AuthModule -->
<g id="edge1" class="edge">
<title>CustomersModule&#45;&gt;AuthModule</title>
<path fill="none" stroke="black" d="M1342,-122.01C1342,-144.49 1342,-180 1342,-180 1342,-180 867.66,-180 867.66,-180"/>
<polygon fill="black" stroke="black" points="867.66,-176.5 857.66,-180 867.66,-183.5 867.66,-176.5"/>
</g>
<!-- IdentitiesModule -->
<g id="node2" class="node">
<title>IdentitiesModule</title>
<polygon fill="#8dd3c7" stroke="black" points="1263.65,-122 1260.65,-126 1239.65,-126 1236.65,-122 1152.35,-122 1152.35,-86 1263.65,-86 1263.65,-122"/>
<text text-anchor="middle" x="1208" y="-99.8" font-family="Times,serif" font-size="14.00">IdentitiesModule</text>
</g>
<!-- IdentitiesModule&#45;&gt;AuthModule -->
<g id="edge2" class="edge">
<title>IdentitiesModule&#45;&gt;AuthModule</title>
<path fill="none" stroke="black" d="M1208,-122.13C1208,-142.57 1208,-173 1208,-173 1208,-173 867.67,-173 867.67,-173"/>
<polygon fill="black" stroke="black" points="867.67,-169.5 857.67,-173 867.67,-176.5 867.67,-169.5"/>
</g>
<!-- UsersModule -->
<g id="node3" class="node">
<title>UsersModule</title>
<polygon fill="#8dd3c7" stroke="black" points="1133.92,-122 1130.92,-126 1109.92,-126 1106.92,-122 1042.08,-122 1042.08,-86 1133.92,-86 1133.92,-122"/>
<text text-anchor="middle" x="1088" y="-99.8" font-family="Times,serif" font-size="14.00">UsersModule</text>
</g>
<!-- UsersModule&#45;&gt;AuthModule -->
<g id="edge3" class="edge">
<title>UsersModule&#45;&gt;AuthModule</title>
<path fill="none" stroke="black" d="M1088,-122.27C1088,-140.56 1088,-166 1088,-166 1088,-166 867.72,-166 867.72,-166"/>
<polygon fill="black" stroke="black" points="867.72,-162.5 857.72,-166 867.72,-169.5 867.72,-162.5"/>
</g>
<!-- AuthService -->
<g id="node5" class="node">
<title>AuthService</title>
<ellipse fill="#fdb462" stroke="black" cx="959" cy="-104" rx="59.11" ry="18"/>
<text text-anchor="middle" x="959" y="-99.8" font-family="Times,serif" font-size="14.00">AuthService</text>
</g>
<!-- AuthService&#45;&gt;AuthModule -->
<g id="edge4" class="edge">
<title>AuthService&#45;&gt;AuthModule</title>
<path fill="none" stroke="black" d="M959,-122.01C959,-138.05 959,-159 959,-159 959,-159 867.9,-159 867.9,-159"/>
<polygon fill="black" stroke="black" points="867.9,-155.5 857.9,-159 867.9,-162.5 867.9,-155.5"/>
</g>
<!-- JwtAuthGuard -->
<g id="node6" class="node">
<title>JwtAuthGuard</title>
<ellipse fill="#fdb462" stroke="black" cx="814" cy="-104" rx="67.78" ry="18"/>
<text text-anchor="middle" x="814" y="-99.8" font-family="Times,serif" font-size="14.00">JwtAuthGuard</text>
</g>
<!-- JwtAuthGuard&#45;&gt;AuthModule -->
<g id="edge5" class="edge">
<title>JwtAuthGuard&#45;&gt;AuthModule</title>
<path fill="none" stroke="black" d="M814,-122.11C814,-122.11 814,-140.99 814,-140.99"/>
<polygon fill="black" stroke="black" points="810.5,-140.99 814,-150.99 817.5,-140.99 810.5,-140.99"/>
</g>
<!-- JwtStrategy -->
<g id="node7" class="node">
<title>JwtStrategy</title>
<ellipse fill="#fdb462" stroke="black" cx="671" cy="-104" rx="56.76" ry="18"/>
<text text-anchor="middle" x="671" y="-99.8" font-family="Times,serif" font-size="14.00">JwtStrategy</text>
</g>
<!-- JwtStrategy&#45;&gt;AuthModule -->
<g id="edge6" class="edge">
<title>JwtStrategy&#45;&gt;AuthModule</title>
<path fill="none" stroke="black" d="M671,-122.01C671,-138.05 671,-159 671,-159 671,-159 760.32,-159 760.32,-159"/>
<polygon fill="black" stroke="black" points="760.32,-162.5 770.32,-159 760.32,-155.5 760.32,-162.5"/>
</g>
<!-- LocalStrategy -->
<g id="node8" class="node">
<title>LocalStrategy</title>
<ellipse fill="#fdb462" stroke="black" cx="531" cy="-104" rx="65.41" ry="18"/>
<text text-anchor="middle" x="531" y="-99.8" font-family="Times,serif" font-size="14.00">LocalStrategy</text>
</g>
<!-- LocalStrategy&#45;&gt;AuthModule -->
<g id="edge7" class="edge">
<title>LocalStrategy&#45;&gt;AuthModule</title>
<path fill="none" stroke="black" d="M531,-122.27C531,-140.56 531,-166 531,-166 531,-166 760.4,-166 760.4,-166"/>
<polygon fill="black" stroke="black" points="760.4,-169.5 770.4,-166 760.4,-162.5 760.4,-169.5"/>
</g>
<!-- RefreshTokenRepository -->
<g id="node9" class="node">
<title>RefreshTokenRepository</title>
<ellipse fill="#fdb462" stroke="black" cx="340" cy="-104" rx="108.23" ry="18"/>
<text text-anchor="middle" x="340" y="-99.8" font-family="Times,serif" font-size="14.00">RefreshTokenRepository</text>
</g>
<!-- RefreshTokenRepository&#45;&gt;AuthModule -->
<g id="edge8" class="edge">
<title>RefreshTokenRepository&#45;&gt;AuthModule</title>
<path fill="none" stroke="black" d="M340,-122.13C340,-142.57 340,-173 340,-173 340,-173 760.26,-173 760.26,-173"/>
<polygon fill="black" stroke="black" points="760.26,-176.5 770.26,-173 760.26,-169.5 760.26,-176.5"/>
</g>
<!-- RefreshTokenService -->
<g id="node10" class="node">
<title>RefreshTokenService</title>
<ellipse fill="#fdb462" stroke="black" cx="119" cy="-104" rx="94.88" ry="18"/>
<text text-anchor="middle" x="119" y="-99.8" font-family="Times,serif" font-size="14.00">RefreshTokenService</text>
</g>
<!-- RefreshTokenService&#45;&gt;AuthModule -->
<g id="edge9" class="edge">
<title>RefreshTokenService&#45;&gt;AuthModule</title>
<path fill="none" stroke="black" d="M119,-122.01C119,-144.49 119,-180 119,-180 119,-180 760.26,-180 760.26,-180"/>
<polygon fill="black" stroke="black" points="760.26,-183.5 770.26,-180 760.26,-176.5 760.26,-183.5"/>
</g>
</g>
</svg>
