<?xml version="1.0" encoding="UTF-8" standalone="no"?>
<!DOCTYPE svg PUBLIC "-//W3C//DTD SVG 1.1//EN"
 "http://www.w3.org/Graphics/SVG/1.1/DTD/svg11.dtd">
<!-- Generated by graphviz version 2.47.0 (20210316.0004)
 -->
<!-- Title: dependencies Pages: 1 -->
<svg width="504pt" height="284pt"
 viewBox="0.00 0.00 504.00 284.00" xmlns="http://www.w3.org/2000/svg" xmlns:xlink="http://www.w3.org/1999/xlink">
<g id="graph0" class="graph" transform="scale(1 1) rotate(0) translate(4 280)">
<title>dependencies</title>
<polygon fill="white" stroke="transparent" points="-4,4 -4,-280 500,-280 500,4 -4,4"/>
<text text-anchor="start" x="227.01" y="-42.4" font-family="Times-12" font-weight="bold" font-size="14.00">Legend</text>
<polygon fill="#ffffb3" stroke="transparent" points="14,-10 14,-30 34,-30 34,-10 14,-10"/>
<text text-anchor="start" x="37.63" y="-15.4" font-family="Times-12" font-size="14.00"> &#160;Declarations</text>
<polygon fill="#8dd3c7" stroke="transparent" points="127,-10 127,-30 147,-30 147,-10 127,-10"/>
<text text-anchor="start" x="150.73" y="-15.4" font-family="Times-12" font-size="14.00"> &#160;Module</text>
<polygon fill="#80b1d3" stroke="transparent" points="213,-10 213,-30 233,-30 233,-10 213,-10"/>
<text text-anchor="start" x="236.78" y="-15.4" font-family="Times-12" font-size="14.00"> &#160;Bootstrap</text>
<polygon fill="#fdb462" stroke="transparent" points="310,-10 310,-30 330,-30 330,-10 310,-10"/>
<text text-anchor="start" x="333.67" y="-15.4" font-family="Times-12" font-size="14.00"> &#160;Providers</text>
<polygon fill="#fb8072" stroke="transparent" points="406,-10 406,-30 426,-30 426,-10 406,-10"/>
<text text-anchor="start" x="429.73" y="-15.4" font-family="Times-12" font-size="14.00"> &#160;Exports</text>
<g id="clust1" class="cluster">
<title>cluster_CategoriesModule</title>
<polygon fill="none" stroke="black" stroke-dasharray="1,5" points="31,-70 31,-268 465,-268 465,-70 31,-70"/>
</g>
<g id="clust3" class="cluster">
<title>cluster_CategoriesModule_imports</title>
<polygon fill="none" stroke="black" points="225,-78 225,-130 457,-130 457,-78 225,-78"/>
</g>
<g id="clust6" class="cluster">
<title>cluster_CategoriesModule_providers</title>
<polygon fill="none" stroke="black" points="39,-78 39,-130 217,-130 217,-78 39,-78"/>
</g>
<g id="clust4" class="cluster">
<title>cluster_CategoriesModule_exports</title>
<polygon fill="none" stroke="black" points="215,-208 215,-260 353,-260 353,-208 215,-208"/>
</g>
<!-- MediaModule -->
<g id="node1" class="node">
<title>MediaModule</title>
<polygon fill="#8dd3c7" stroke="black" points="448.81,-122 445.81,-126 424.81,-126 421.81,-122 353.19,-122 353.19,-86 448.81,-86 448.81,-122"/>
<text text-anchor="middle" x="401" y="-99.8" font-family="Times,serif" font-size="14.00">MediaModule</text>
</g>
<!-- CategoriesModule -->
<g id="node3" class="node">
<title>CategoriesModule</title>
<polygon fill="#8dd3c7" stroke="black" points="343.92,-187 340.92,-191 319.92,-191 316.92,-187 224.08,-187 224.08,-151 343.92,-151 343.92,-187"/>
<text text-anchor="middle" x="284" y="-164.8" font-family="Times,serif" font-size="14.00">CategoriesModule</text>
</g>
<!-- MediaModule&#45;&gt;CategoriesModule -->
<g id="edge1" class="edge">
<title>MediaModule&#45;&gt;CategoriesModule</title>
<path fill="none" stroke="black" d="M353.1,-104C345.15,-104 339.43,-104 339.43,-104 339.43,-104 339.43,-140.89 339.43,-140.89"/>
<polygon fill="black" stroke="black" points="335.93,-140.89 339.43,-150.89 342.93,-140.89 335.93,-140.89"/>
</g>
<!-- StorageModule -->
<g id="node2" class="node">
<title>StorageModule</title>
<polygon fill="#8dd3c7" stroke="black" points="335.31,-122 332.31,-126 311.31,-126 308.31,-122 232.69,-122 232.69,-86 335.31,-86 335.31,-122"/>
<text text-anchor="middle" x="284" y="-99.8" font-family="Times,serif" font-size="14.00">StorageModule</text>
</g>
<!-- StorageModule&#45;&gt;CategoriesModule -->
<g id="edge2" class="edge">
<title>StorageModule&#45;&gt;CategoriesModule</title>
<path fill="none" stroke="black" d="M284,-122.11C284,-122.11 284,-140.99 284,-140.99"/>
<polygon fill="black" stroke="black" points="280.5,-140.99 284,-150.99 287.5,-140.99 280.5,-140.99"/>
</g>
<!-- CategoriesService  -->
<g id="node4" class="node">
<title>CategoriesService </title>
<polygon fill="#fb8072" stroke="black" points="344.84,-252 223.16,-252 223.16,-216 344.84,-216 344.84,-252"/>
<text text-anchor="middle" x="284" y="-229.8" font-family="Times,serif" font-size="14.00">CategoriesService </text>
</g>
<!-- CategoriesModule&#45;&gt;CategoriesService  -->
<g id="edge3" class="edge">
<title>CategoriesModule&#45;&gt;CategoriesService </title>
<path fill="none" stroke="black" stroke-dasharray="5,2" d="M284,-187.11C284,-187.11 284,-205.99 284,-205.99"/>
<polygon fill="black" stroke="black" points="280.5,-205.99 284,-215.99 287.5,-205.99 280.5,-205.99"/>
</g>
<!-- CategoriesService -->
<g id="node5" class="node">
<title>CategoriesService</title>
<ellipse fill="#fdb462" stroke="black" cx="128" cy="-104" rx="81.07" ry="18"/>
<text text-anchor="middle" x="128" y="-99.8" font-family="Times,serif" font-size="14.00">CategoriesService</text>
</g>
<!-- CategoriesService&#45;&gt;CategoriesModule -->
<g id="edge4" class="edge">
<title>CategoriesService&#45;&gt;CategoriesModule</title>
<path fill="none" stroke="black" d="M209.65,-104C220.83,-104 228.57,-104 228.57,-104 228.57,-104 228.57,-140.89 228.57,-140.89"/>
<polygon fill="black" stroke="black" points="225.07,-140.89 228.57,-150.89 232.07,-140.89 225.07,-140.89"/>
</g>
</g>
</svg>
