<?xml version="1.0" encoding="UTF-8" standalone="no"?>
<!DOCTYPE svg PUBLIC "-//W3C//DTD SVG 1.1//EN"
 "http://www.w3.org/Graphics/SVG/1.1/DTD/svg11.dtd">
<!-- Generated by graphviz version 2.47.0 (20210316.0004)
 -->
<!-- Title: dependencies Pages: 1 -->
<svg width="654pt" height="284pt"
 viewBox="0.00 0.00 654.00 284.00" xmlns="http://www.w3.org/2000/svg" xmlns:xlink="http://www.w3.org/1999/xlink">
<g id="graph0" class="graph" transform="scale(1 1) rotate(0) translate(4 280)">
<title>dependencies</title>
<polygon fill="white" stroke="transparent" points="-4,4 -4,-280 650,-280 650,4 -4,4"/>
<text text-anchor="start" x="302.01" y="-42.4" font-family="Times-12" font-weight="bold" font-size="14.00">Legend</text>
<polygon fill="#ffffb3" stroke="transparent" points="89,-10 89,-30 109,-30 109,-10 89,-10"/>
<text text-anchor="start" x="112.63" y="-15.4" font-family="Times-12" font-size="14.00"> &#160;Declarations</text>
<polygon fill="#8dd3c7" stroke="transparent" points="202,-10 202,-30 222,-30 222,-10 202,-10"/>
<text text-anchor="start" x="225.73" y="-15.4" font-family="Times-12" font-size="14.00"> &#160;Module</text>
<polygon fill="#80b1d3" stroke="transparent" points="288,-10 288,-30 308,-30 308,-10 288,-10"/>
<text text-anchor="start" x="311.78" y="-15.4" font-family="Times-12" font-size="14.00"> &#160;Bootstrap</text>
<polygon fill="#fdb462" stroke="transparent" points="385,-10 385,-30 405,-30 405,-10 385,-10"/>
<text text-anchor="start" x="408.67" y="-15.4" font-family="Times-12" font-size="14.00"> &#160;Providers</text>
<polygon fill="#fb8072" stroke="transparent" points="481,-10 481,-30 501,-30 501,-10 481,-10"/>
<text text-anchor="start" x="504.73" y="-15.4" font-family="Times-12" font-size="14.00"> &#160;Exports</text>
<g id="clust1" class="cluster">
<title>cluster_CategoriesModule</title>
<polygon fill="none" stroke="black" stroke-dasharray="1,5" points="8,-70 8,-268 638,-268 638,-70 8,-70"/>
</g>
<g id="clust4" class="cluster">
<title>cluster_CategoriesModule_exports</title>
<polygon fill="none" stroke="black" points="310,-208 310,-260 448,-260 448,-208 310,-208"/>
</g>
<g id="clust3" class="cluster">
<title>cluster_CategoriesModule_imports</title>
<polygon fill="none" stroke="black" points="398,-78 398,-130 630,-130 630,-78 398,-78"/>
</g>
<g id="clust6" class="cluster">
<title>cluster_CategoriesModule_providers</title>
<polygon fill="none" stroke="black" points="16,-78 16,-130 390,-130 390,-78 16,-78"/>
</g>
<!-- MediaModule -->
<g id="node1" class="node">
<title>MediaModule</title>
<polygon fill="#8dd3c7" stroke="black" points="621.81,-122 618.81,-126 597.81,-126 594.81,-122 526.19,-122 526.19,-86 621.81,-86 621.81,-122"/>
<text text-anchor="middle" x="574" y="-99.8" font-family="Times,serif" font-size="14.00">MediaModule</text>
</g>
<!-- CategoriesModule -->
<g id="node3" class="node">
<title>CategoriesModule</title>
<polygon fill="#8dd3c7" stroke="black" points="438.92,-187 435.92,-191 414.92,-191 411.92,-187 319.08,-187 319.08,-151 438.92,-151 438.92,-187"/>
<text text-anchor="middle" x="379" y="-164.8" font-family="Times,serif" font-size="14.00">CategoriesModule</text>
</g>
<!-- MediaModule&#45;&gt;CategoriesModule -->
<g id="edge1" class="edge">
<title>MediaModule&#45;&gt;CategoriesModule</title>
<path fill="none" stroke="black" d="M574,-122.11C574,-141.34 574,-169 574,-169 574,-169 448.83,-169 448.83,-169"/>
<polygon fill="black" stroke="black" points="448.83,-165.5 438.83,-169 448.83,-172.5 448.83,-165.5"/>
</g>
<!-- StorageModule -->
<g id="node2" class="node">
<title>StorageModule</title>
<polygon fill="#8dd3c7" stroke="black" points="508.31,-122 505.31,-126 484.31,-126 481.31,-122 405.69,-122 405.69,-86 508.31,-86 508.31,-122"/>
<text text-anchor="middle" x="457" y="-99.8" font-family="Times,serif" font-size="14.00">StorageModule</text>
</g>
<!-- StorageModule&#45;&gt;CategoriesModule -->
<g id="edge2" class="edge">
<title>StorageModule&#45;&gt;CategoriesModule</title>
<path fill="none" stroke="black" d="M422.28,-122.11C422.28,-122.11 422.28,-140.99 422.28,-140.99"/>
<polygon fill="black" stroke="black" points="418.78,-140.99 422.28,-150.99 425.78,-140.99 418.78,-140.99"/>
</g>
<!-- CategoriesService  -->
<g id="node4" class="node">
<title>CategoriesService </title>
<polygon fill="#fb8072" stroke="black" points="439.84,-252 318.16,-252 318.16,-216 439.84,-216 439.84,-252"/>
<text text-anchor="middle" x="379" y="-229.8" font-family="Times,serif" font-size="14.00">CategoriesService </text>
</g>
<!-- CategoriesModule&#45;&gt;CategoriesService  -->
<g id="edge3" class="edge">
<title>CategoriesModule&#45;&gt;CategoriesService </title>
<path fill="none" stroke="black" stroke-dasharray="5,2" d="M379,-187.11C379,-187.11 379,-205.99 379,-205.99"/>
<polygon fill="black" stroke="black" points="375.5,-205.99 379,-215.99 382.5,-205.99 375.5,-205.99"/>
</g>
<!-- CategoriesService -->
<g id="node5" class="node">
<title>CategoriesService</title>
<ellipse fill="#fdb462" stroke="black" cx="301" cy="-104" rx="81.07" ry="18"/>
<text text-anchor="middle" x="301" y="-99.8" font-family="Times,serif" font-size="14.00">CategoriesService</text>
</g>
<!-- CategoriesService&#45;&gt;CategoriesModule -->
<g id="edge4" class="edge">
<title>CategoriesService&#45;&gt;CategoriesModule</title>
<path fill="none" stroke="black" d="M350.79,-118.43C350.79,-118.43 350.79,-140.89 350.79,-140.89"/>
<polygon fill="black" stroke="black" points="347.29,-140.89 350.79,-150.89 354.29,-140.89 347.29,-140.89"/>
</g>
<!-- CategoryRepository -->
<g id="node6" class="node">
<title>CategoryRepository</title>
<ellipse fill="#fdb462" stroke="black" cx="113" cy="-104" rx="88.63" ry="18"/>
<text text-anchor="middle" x="113" y="-99.8" font-family="Times,serif" font-size="14.00">CategoryRepository</text>
</g>
<!-- CategoryRepository&#45;&gt;CategoriesModule -->
<g id="edge5" class="edge">
<title>CategoryRepository&#45;&gt;CategoriesModule</title>
<path fill="none" stroke="black" d="M113,-122.11C113,-141.34 113,-169 113,-169 113,-169 308.97,-169 308.97,-169"/>
<polygon fill="black" stroke="black" points="308.97,-172.5 318.97,-169 308.97,-165.5 308.97,-172.5"/>
</g>
</g>
</svg>
