<?xml version="1.0" encoding="UTF-8" standalone="no"?>
<!DOCTYPE svg PUBLIC "-//W3C//DTD SVG 1.1//EN"
 "http://www.w3.org/Graphics/SVG/1.1/DTD/svg11.dtd">
<!-- Generated by graphviz version 2.47.0 (20210316.0004)
 -->
<!-- Title: dependencies Pages: 1 -->
<svg width="602pt" height="284pt"
 viewBox="0.00 0.00 602.00 284.00" xmlns="http://www.w3.org/2000/svg" xmlns:xlink="http://www.w3.org/1999/xlink">
<g id="graph0" class="graph" transform="scale(1 1) rotate(0) translate(4 280)">
<title>dependencies</title>
<polygon fill="white" stroke="transparent" points="-4,4 -4,-280 598,-280 598,4 -4,4"/>
<text text-anchor="start" x="276.01" y="-42.4" font-family="Times-12" font-weight="bold" font-size="14.00">Legend</text>
<polygon fill="#ffffb3" stroke="transparent" points="63,-10 63,-30 83,-30 83,-10 63,-10"/>
<text text-anchor="start" x="86.63" y="-15.4" font-family="Times-12" font-size="14.00"> &#160;Declarations</text>
<polygon fill="#8dd3c7" stroke="transparent" points="176,-10 176,-30 196,-30 196,-10 176,-10"/>
<text text-anchor="start" x="199.73" y="-15.4" font-family="Times-12" font-size="14.00"> &#160;Module</text>
<polygon fill="#80b1d3" stroke="transparent" points="262,-10 262,-30 282,-30 282,-10 262,-10"/>
<text text-anchor="start" x="285.78" y="-15.4" font-family="Times-12" font-size="14.00"> &#160;Bootstrap</text>
<polygon fill="#fdb462" stroke="transparent" points="359,-10 359,-30 379,-30 379,-10 359,-10"/>
<text text-anchor="start" x="382.67" y="-15.4" font-family="Times-12" font-size="14.00"> &#160;Providers</text>
<polygon fill="#fb8072" stroke="transparent" points="455,-10 455,-30 475,-30 475,-10 455,-10"/>
<text text-anchor="start" x="478.73" y="-15.4" font-family="Times-12" font-size="14.00"> &#160;Exports</text>
<g id="clust1" class="cluster">
<title>cluster_BrandsModule</title>
<polygon fill="none" stroke="black" stroke-dasharray="1,5" points="8,-70 8,-268 586,-268 586,-70 8,-70"/>
</g>
<g id="clust4" class="cluster">
<title>cluster_BrandsModule_exports</title>
<polygon fill="none" stroke="black" points="270,-208 270,-260 388,-260 388,-208 270,-208"/>
</g>
<g id="clust3" class="cluster">
<title>cluster_BrandsModule_imports</title>
<polygon fill="none" stroke="black" points="346,-78 346,-130 578,-130 578,-78 346,-78"/>
</g>
<g id="clust6" class="cluster">
<title>cluster_BrandsModule_providers</title>
<polygon fill="none" stroke="black" points="16,-78 16,-130 338,-130 338,-78 16,-78"/>
</g>
<!-- MediaModule -->
<g id="node1" class="node">
<title>MediaModule</title>
<polygon fill="#8dd3c7" stroke="black" points="569.81,-122 566.81,-126 545.81,-126 542.81,-122 474.19,-122 474.19,-86 569.81,-86 569.81,-122"/>
<text text-anchor="middle" x="522" y="-99.8" font-family="Times,serif" font-size="14.00">MediaModule</text>
</g>
<!-- BrandsModule -->
<g id="node3" class="node">
<title>BrandsModule</title>
<polygon fill="#8dd3c7" stroke="black" points="378.71,-187 375.71,-191 354.71,-191 351.71,-187 279.29,-187 279.29,-151 378.71,-151 378.71,-187"/>
<text text-anchor="middle" x="329" y="-164.8" font-family="Times,serif" font-size="14.00">BrandsModule</text>
</g>
<!-- MediaModule&#45;&gt;BrandsModule -->
<g id="edge1" class="edge">
<title>MediaModule&#45;&gt;BrandsModule</title>
<path fill="none" stroke="black" d="M522,-122.11C522,-141.34 522,-169 522,-169 522,-169 388.7,-169 388.7,-169"/>
<polygon fill="black" stroke="black" points="388.7,-165.5 378.7,-169 388.7,-172.5 388.7,-165.5"/>
</g>
<!-- StorageModule -->
<g id="node2" class="node">
<title>StorageModule</title>
<polygon fill="#8dd3c7" stroke="black" points="456.31,-122 453.31,-126 432.31,-126 429.31,-122 353.69,-122 353.69,-86 456.31,-86 456.31,-122"/>
<text text-anchor="middle" x="405" y="-99.8" font-family="Times,serif" font-size="14.00">StorageModule</text>
</g>
<!-- StorageModule&#45;&gt;BrandsModule -->
<g id="edge2" class="edge">
<title>StorageModule&#45;&gt;BrandsModule</title>
<path fill="none" stroke="black" d="M366.22,-122.11C366.22,-122.11 366.22,-140.99 366.22,-140.99"/>
<polygon fill="black" stroke="black" points="362.72,-140.99 366.22,-150.99 369.72,-140.99 362.72,-140.99"/>
</g>
<!-- BrandsService  -->
<g id="node4" class="node">
<title>BrandsService </title>
<polygon fill="#fb8072" stroke="black" points="379.63,-252 278.37,-252 278.37,-216 379.63,-216 379.63,-252"/>
<text text-anchor="middle" x="329" y="-229.8" font-family="Times,serif" font-size="14.00">BrandsService </text>
</g>
<!-- BrandsModule&#45;&gt;BrandsService  -->
<g id="edge3" class="edge">
<title>BrandsModule&#45;&gt;BrandsService </title>
<path fill="none" stroke="black" stroke-dasharray="5,2" d="M329,-187.11C329,-187.11 329,-205.99 329,-205.99"/>
<polygon fill="black" stroke="black" points="325.5,-205.99 329,-215.99 332.5,-205.99 325.5,-205.99"/>
</g>
<!-- BrandRepository -->
<g id="node5" class="node">
<title>BrandRepository</title>
<ellipse fill="#fdb462" stroke="black" cx="253" cy="-104" rx="77.03" ry="18"/>
<text text-anchor="middle" x="253" y="-99.8" font-family="Times,serif" font-size="14.00">BrandRepository</text>
</g>
<!-- BrandRepository&#45;&gt;BrandsModule -->
<g id="edge4" class="edge">
<title>BrandRepository&#45;&gt;BrandsModule</title>
<path fill="none" stroke="black" d="M304.71,-117.47C304.71,-117.47 304.71,-140.86 304.71,-140.86"/>
<polygon fill="black" stroke="black" points="301.21,-140.86 304.71,-150.86 308.21,-140.86 301.21,-140.86"/>
</g>
<!-- BrandsService -->
<g id="node6" class="node">
<title>BrandsService</title>
<ellipse fill="#fdb462" stroke="black" cx="91" cy="-104" rx="67.19" ry="18"/>
<text text-anchor="middle" x="91" y="-99.8" font-family="Times,serif" font-size="14.00">BrandsService</text>
</g>
<!-- BrandsService&#45;&gt;BrandsModule -->
<g id="edge5" class="edge">
<title>BrandsService&#45;&gt;BrandsModule</title>
<path fill="none" stroke="black" d="M91,-122.11C91,-141.34 91,-169 91,-169 91,-169 269.11,-169 269.11,-169"/>
<polygon fill="black" stroke="black" points="269.11,-172.5 279.11,-169 269.11,-165.5 269.11,-172.5"/>
</g>
</g>
</svg>
