<?xml version="1.0" encoding="UTF-8" standalone="no"?>
<!DOCTYPE svg PUBLIC "-//W3C//DTD SVG 1.1//EN"
 "http://www.w3.org/Graphics/SVG/1.1/DTD/svg11.dtd">
<!-- Generated by graphviz version 2.47.0 (20210316.0004)
 -->
<!-- Title: dependencies Pages: 1 -->
<svg width="504pt" height="284pt"
 viewBox="0.00 0.00 504.00 284.00" xmlns="http://www.w3.org/2000/svg" xmlns:xlink="http://www.w3.org/1999/xlink">
<g id="graph0" class="graph" transform="scale(1 1) rotate(0) translate(4 280)">
<title>dependencies</title>
<polygon fill="white" stroke="transparent" points="-4,4 -4,-280 500,-280 500,4 -4,4"/>
<text text-anchor="start" x="227.01" y="-42.4" font-family="Times-12" font-weight="bold" font-size="14.00">Legend</text>
<polygon fill="#ffffb3" stroke="transparent" points="14,-10 14,-30 34,-30 34,-10 14,-10"/>
<text text-anchor="start" x="37.63" y="-15.4" font-family="Times-12" font-size="14.00"> &#160;Declarations</text>
<polygon fill="#8dd3c7" stroke="transparent" points="127,-10 127,-30 147,-30 147,-10 127,-10"/>
<text text-anchor="start" x="150.73" y="-15.4" font-family="Times-12" font-size="14.00"> &#160;Module</text>
<polygon fill="#80b1d3" stroke="transparent" points="213,-10 213,-30 233,-30 233,-10 213,-10"/>
<text text-anchor="start" x="236.78" y="-15.4" font-family="Times-12" font-size="14.00"> &#160;Bootstrap</text>
<polygon fill="#fdb462" stroke="transparent" points="310,-10 310,-30 330,-30 330,-10 310,-10"/>
<text text-anchor="start" x="333.67" y="-15.4" font-family="Times-12" font-size="14.00"> &#160;Providers</text>
<polygon fill="#fb8072" stroke="transparent" points="406,-10 406,-30 426,-30 426,-10 406,-10"/>
<text text-anchor="start" x="429.73" y="-15.4" font-family="Times-12" font-size="14.00"> &#160;Exports</text>
<g id="clust1" class="cluster">
<title>cluster_BrandsModule</title>
<polygon fill="none" stroke="black" stroke-dasharray="1,5" points="45,-70 45,-268 451,-268 451,-70 45,-70"/>
</g>
<g id="clust4" class="cluster">
<title>cluster_BrandsModule_exports</title>
<polygon fill="none" stroke="black" points="211,-208 211,-260 329,-260 329,-208 211,-208"/>
</g>
<g id="clust3" class="cluster">
<title>cluster_BrandsModule_imports</title>
<polygon fill="none" stroke="black" points="211,-78 211,-130 443,-130 443,-78 211,-78"/>
</g>
<g id="clust6" class="cluster">
<title>cluster_BrandsModule_providers</title>
<polygon fill="none" stroke="black" points="53,-78 53,-130 203,-130 203,-78 53,-78"/>
</g>
<!-- MediaModule -->
<g id="node1" class="node">
<title>MediaModule</title>
<polygon fill="#8dd3c7" stroke="black" points="434.81,-122 431.81,-126 410.81,-126 407.81,-122 339.19,-122 339.19,-86 434.81,-86 434.81,-122"/>
<text text-anchor="middle" x="387" y="-99.8" font-family="Times,serif" font-size="14.00">MediaModule</text>
</g>
<!-- BrandsModule -->
<g id="node3" class="node">
<title>BrandsModule</title>
<polygon fill="#8dd3c7" stroke="black" points="319.71,-187 316.71,-191 295.71,-191 292.71,-187 220.29,-187 220.29,-151 319.71,-151 319.71,-187"/>
<text text-anchor="middle" x="270" y="-164.8" font-family="Times,serif" font-size="14.00">BrandsModule</text>
</g>
<!-- MediaModule&#45;&gt;BrandsModule -->
<g id="edge1" class="edge">
<title>MediaModule&#45;&gt;BrandsModule</title>
<path fill="none" stroke="black" d="M387,-122.11C387,-141.34 387,-169 387,-169 387,-169 329.62,-169 329.62,-169"/>
<polygon fill="black" stroke="black" points="329.62,-165.5 319.62,-169 329.62,-172.5 329.62,-165.5"/>
</g>
<!-- StorageModule -->
<g id="node2" class="node">
<title>StorageModule</title>
<polygon fill="#8dd3c7" stroke="black" points="321.31,-122 318.31,-126 297.31,-126 294.31,-122 218.69,-122 218.69,-86 321.31,-86 321.31,-122"/>
<text text-anchor="middle" x="270" y="-99.8" font-family="Times,serif" font-size="14.00">StorageModule</text>
</g>
<!-- StorageModule&#45;&gt;BrandsModule -->
<g id="edge2" class="edge">
<title>StorageModule&#45;&gt;BrandsModule</title>
<path fill="none" stroke="black" d="M270,-122.11C270,-122.11 270,-140.99 270,-140.99"/>
<polygon fill="black" stroke="black" points="266.5,-140.99 270,-150.99 273.5,-140.99 266.5,-140.99"/>
</g>
<!-- BrandsService  -->
<g id="node4" class="node">
<title>BrandsService </title>
<polygon fill="#fb8072" stroke="black" points="320.63,-252 219.37,-252 219.37,-216 320.63,-216 320.63,-252"/>
<text text-anchor="middle" x="270" y="-229.8" font-family="Times,serif" font-size="14.00">BrandsService </text>
</g>
<!-- BrandsModule&#45;&gt;BrandsService  -->
<g id="edge3" class="edge">
<title>BrandsModule&#45;&gt;BrandsService </title>
<path fill="none" stroke="black" stroke-dasharray="5,2" d="M270,-187.11C270,-187.11 270,-205.99 270,-205.99"/>
<polygon fill="black" stroke="black" points="266.5,-205.99 270,-215.99 273.5,-205.99 266.5,-205.99"/>
</g>
<!-- BrandsService -->
<g id="node5" class="node">
<title>BrandsService</title>
<ellipse fill="#fdb462" stroke="black" cx="128" cy="-104" rx="67.19" ry="18"/>
<text text-anchor="middle" x="128" y="-99.8" font-family="Times,serif" font-size="14.00">BrandsService</text>
</g>
<!-- BrandsService&#45;&gt;BrandsModule -->
<g id="edge4" class="edge">
<title>BrandsService&#45;&gt;BrandsModule</title>
<path fill="none" stroke="black" d="M128,-122.11C128,-141.34 128,-169 128,-169 128,-169 210.34,-169 210.34,-169"/>
<polygon fill="black" stroke="black" points="210.34,-172.5 220.34,-169 210.34,-165.5 210.34,-172.5"/>
</g>
</g>
</svg>
